<?xml version="1.0" encoding="UTF-8" standalone="no"?>
<svg width="32px" height="32px" viewBox="0 0 32 32" version="1.1" xmlns="http://www.w3.org/2000/svg" xmlns:xlink="http://www.w3.org/1999/xlink">
    <!-- Generator: Sketch 40.3 (33839) - http://www.bohemiancoding.com/sketch -->
    <title>Slice 1</title>
    <desc>Created with Sketch.</desc>
    <defs></defs>
    <g id="Page-1" stroke="none" stroke-width="1" fill="none" fill-rule="evenodd">
        <g id="Group-3" fill="#000000">
            <path d="M3.79259259,28.6814815 L11.437037,29.7481481 L10.1925926,30.9925926 C10.0148148,31.1703704 10.0148148,31.5259259 10.1925926,31.7037037 C10.3111111,31.8222222 10.4296296,31.8814815 10.5481481,31.8814815 C10.6666667,31.8814815 10.7851852,31.8222222 10.9037037,31.7037037 L12.8592593,29.7481481 C16.2962963,27.2 21.2148148,27.9111111 23.8222222,31.3481481 C23.9407407,31.4666667 24.0592593,31.5259259 24.237037,31.5259259 L24.237037,31.5259259 C24.4148148,31.5259259 24.5333333,31.4666667 24.6518519,31.3481481 C26.1925926,29.3925926 29.037037,29.037037 30.9925926,30.5777778 C31.1111111,30.6962963 31.3481481,30.6962963 31.5259259,30.637037 C31.7037037,30.5777778 31.8222222,30.4 31.8222222,30.2222222 C32,27.8518519 31.2888889,25.5407407 29.7481481,23.762963 C28.4444444,22.2222222 26.7259259,21.2148148 24.7703704,20.8 L24.7703704,20.8 L24.7703704,20.8 C24.9481481,20.6222222 24.9481481,20.2666667 24.7703704,20.0888889 C24.5925926,19.9111111 24.237037,19.9111111 24.0592593,20.0888889 L23.2888889,20.7407407 C20.9185185,22.7555556 17.7185185,23.0518519 14.7555556,21.6296296 C15.0518519,21.1555556 15.2296296,20.562963 15.2888889,19.9703704 L16.5333333,18.7259259 C16.7111111,18.5481481 16.7111111,18.1925926 16.5333333,18.0148148 C16.3555556,17.837037 16,17.837037 15.8222222,18.0148148 L15.0518519,18.7851852 C14.8740741,18.3703704 14.637037,18.0148148 14.3407407,17.7185185 C14.0444444,17.4222222 13.6888889,17.1851852 13.2740741,17.0074074 L14.0444444,16.237037 C14.2222222,16.0592593 14.2222222,15.7037037 14.0444444,15.5259259 C13.8666667,15.3481481 13.5111111,15.3481481 13.3333333,15.5259259 L12.0888889,16.7703704 C11.4962963,16.7703704 10.9037037,16.9481481 10.4296296,17.3037037 C9.00740741,14.4 9.3037037,11.1407407 11.3185185,8.77037037 L12.0296296,8.05925926 C12.2074074,7.88148148 12.2074074,7.52592593 12.0296296,7.34814815 C11.8518519,7.17037037 11.4962963,7.17037037 11.3185185,7.34814815 L11.3185185,7.34814815 C10.9037037,5.39259259 9.8962963,3.67407407 8.35555556,2.37037037 C6.45925926,0.711111111 4.14814815,5.19029264e-15 1.77777778,0.177777778 C1.6,0.177777778 1.42222222,0.296296296 1.36296296,0.474074074 C1.3037037,0.651851852 1.3037037,0.888888889 1.42222222,1.00740741 C2.19259259,1.95555556 2.48888889,3.14074074 2.31111111,4.32592593 C2.13333333,5.51111111 1.54074074,6.57777778 0.592592593,7.34814815 C0.474074074,7.46666667 0.414814815,7.58518519 0.414814815,7.76296296 C0.414814815,7.94074074 0.474074074,8.05925926 0.592592593,8.17777778 C4.02962963,10.7851852 4.74074074,15.7037037 2.13333333,19.1407407 C2.13333333,19.2 2.07407407,19.2 2.07407407,19.2592593 L0.237037037,21.0962963 C0.0592592593,21.2740741 0.0592592593,21.6296296 0.237037037,21.8074074 C0.414814815,21.9259259 0.533333333,21.9259259 0.651851852,21.9259259 C0.77037037,21.9259259 0.888888889,21.8666667 1.00740741,21.7481481 L2.19259259,20.562963 L3.25925926,28.0888889 L3.79259259,28.6814815 Z M3.26801698,28.0261188 C3.4962963,27.8181327 4.1970679,27.0522762 4.1970679,27.0522762 L3.14074074,19.6148148 C4.44444444,17.7777778 5.03703704,15.4666667 4.74074074,13.2148148 C4.44444444,11.0814815 3.37777778,9.18518519 1.77777778,7.76296296 C3.55555556,6.04444444 3.91111111,3.37777778 2.78518519,1.18518519 C4.56296296,1.24444444 6.28148148,1.8962963 7.64444444,3.02222222 C9.18518519,4.32592593 10.1333333,6.16296296 10.3703704,8.17777778 C9.24444444,9.6 8.59259259,11.2592593 8.53333333,13.037037 C8.47407407,14.6962963 8.82962963,16.3555556 9.65925926,17.8962963 L6.6962963,20.8592593 C5.57037037,21.9851852 5.45185185,23.7037037 6.34074074,24.9481481 C6.34074074,24.9481481 4.91162551,26.3772634 4.1970679,27.091821 C3.72644033,27.5624486 2.78518519,28.5037037 2.78518519,28.5037037 C2.60740741,28.6814815 2.60740741,29.037037 2.78518519,29.2148148 C2.9037037,29.3333333 3.02222222,29.3925926 3.14074074,29.3925926 C3.25925926,29.3925926 3.37777778,29.3333333 3.4962963,29.2148148 L7.05185185,25.6592593 C7.58518519,26.0740741 8.23703704,26.2518519 8.88888889,26.2518519 C9.71851852,26.2518519 10.5481481,25.8962963 11.1407407,25.3037037 L14.1037037,22.3407407 C15.6444444,23.1703704 17.3037037,23.5259259 18.962963,23.4666667 C20.7407407,23.3481481 22.4,22.7555556 23.8222222,21.6296296 C25.837037,21.8666667 27.6740741,22.8148148 28.9777778,24.3555556 C30.162963,25.7185185 30.7555556,27.437037 30.8148148,29.2148148 C28.6814815,28.0888889 25.9555556,28.4444444 24.237037,30.2222222 C21.2740741,26.7851852 16.1185185,26.1333333 12.3851852,28.8 L5.01439043,27.6977238 L3.97719907,28.7281636 L3.7945216,28.6761188 C3.7945216,28.6761188 3.2032373,28.0851398 3.26801698,28.0261188 Z M10.4296296,24.5925926 C10.0148148,25.0074074 9.48148148,25.2444444 8.88888889,25.2444444 C8.2962963,25.2444444 7.76296296,25.0074074 7.34814815,24.5925926 C6.51851852,23.762963 6.51851852,22.4 7.34814815,21.5111111 L10.5481481,18.3111111 C10.5481481,18.3111111 10.5481481,18.3111111 10.6074074,18.2518519 C11.0222222,17.837037 11.5555556,17.6592593 12.0888889,17.6592593 L12.2074074,17.6592593 L12.2074074,17.6592593 C12.7407407,17.7185185 13.2148148,17.8962963 13.6296296,18.3111111 C13.9851852,18.6666667 14.2222222,19.2 14.2814815,19.7333333 L14.2814815,19.7333333 L14.2814815,19.8518519 C14.2814815,20.4444444 14.0444444,20.9777778 13.6888889,21.3333333 C13.6888889,21.3333333 13.6888889,21.3333333 13.6296296,21.3925926 L10.4296296,24.5925926 L10.4296296,24.5925926 Z" id="Shape"></path>
            <path d="M27.2,25.3037037 C27.0814815,25.3037037 26.962963,25.2444444 26.8444444,25.1851852 C26.8444444,25.1851852 25.8962963,24.2962963 24.4148148,23.762963 C24.1777778,23.6444444 24,23.4074074 24.1185185,23.1111111 C24.237037,22.8740741 24.4740741,22.6962963 24.7703704,22.8148148 C26.4296296,23.4074074 27.4962963,24.3555556 27.5555556,24.4148148 C27.7333333,24.5925926 27.7925926,24.9481481 27.6148148,25.1259259 C27.437037,25.2444444 27.3185185,25.3037037 27.2,25.3037037 L27.2,25.3037037 Z" id="Shape"></path>
            <path d="M28.4444444,26.8444444 C28.2666667,26.8444444 28.1481481,26.7851852 28.0296296,26.6666667 L27.7925926,26.3111111 C27.6148148,26.0740741 27.6740741,25.7777778 27.9111111,25.6 C28.1481481,25.4222222 28.4444444,25.4814815 28.6222222,25.7185185 L28.8592593,26.0740741 C29.037037,26.3111111 28.9777778,26.6074074 28.7407407,26.7851852 C28.6222222,26.8444444 28.5037037,26.8444444 28.4444444,26.8444444 L28.4444444,26.8444444 Z" id="Shape"></path>
        </g>
    </g>
</svg>