<?xml version="1.0" encoding="UTF-8" standalone="no"?>
<svg width="32px" height="32px" viewBox="0 0 32 32" version="1.1" xmlns="http://www.w3.org/2000/svg" xmlns:xlink="http://www.w3.org/1999/xlink">
    <!-- Generator: Sketch 40.3 (33839) - http://www.bohemiancoding.com/sketch -->
    <title>Slice 1</title>
    <desc>Created with Sketch.</desc>
    <defs></defs>
    <g id="Page-1" stroke="none" stroke-width="1" fill="none" fill-rule="evenodd">
        <g id="Group" fill="#000000">
            <path d="M0.581818182,0.638271605 C0.232727273,1.04444444 0,1.50864198 0,2.0308642 C0,2.55308642 0.232727273,3.07530864 0.581818182,3.42345679 L15.0690909,17.8716049 L14.8945455,18.045679 C14.3709091,18.5679012 14.6618182,19.4962963 15.36,19.6703704 L15.5345455,19.7283951 L16.7563636,19.9604938 L16.7563636,19.9604938 C16.4654545,20.6567901 16.3490909,21.3530864 16.3490909,22.1074074 C16.3490909,22.8617284 16.4654545,23.5580247 16.7563636,24.254321 C17.0472727,24.9506173 17.4545455,25.5888889 18.0363636,26.1691358 L22.8654545,30.9851852 L22.8654545,30.9851852 C23.2727273,31.391358 23.9709091,31.391358 24.3781818,30.9851852 L24.3781818,30.9851852 L25.2509091,30.1148148 L25.2509091,30.1148148 C25.6,29.7666667 25.6581818,29.3024691 25.4254545,28.8962963 L25.4254545,28.8962963 L24.6690909,27.5037037 L26.0654545,28.2580247 L26.0654545,28.2580247 C26.4727273,28.4901235 26.9963636,28.4320988 27.2872727,28.0839506 L27.2872727,28.0839506 L31.1272727,24.254321 C31.5345455,23.8481481 31.5345455,23.1518519 31.1272727,22.745679 L31.1272727,22.745679 L26.2981818,17.9296296 C25.7745455,17.4074074 25.0763636,16.9432099 24.3781818,16.6530864 C23.68,16.362963 22.9818182,16.2469136 22.2254545,16.2469136 C21.4690909,16.2469136 20.7709091,16.362963 20.0727273,16.6530864 L20.0727273,16.6530864 L19.84,15.4345679 L19.7818182,15.2604938 C19.6072727,14.5061728 18.6763636,14.2160494 18.1527273,14.7962963 L17.8618182,15.0864198 L3.37454545,0.638271605 C3.02545455,0.290123457 2.50181818,0.0580246914 1.97818182,0.0580246914 C1.45454545,0.0580246914 0.989090909,0.290123457 0.581818182,0.638271605 L0.581818182,0.638271605 L0.581818182,0.638271605 L0.581818182,0.638271605 Z M18.7345455,25.4728395 C18.1527273,24.8925926 17.7454545,24.1382716 17.5127273,23.3839506 L23.3890909,17.5234568 C24.1454545,17.7555556 24.9018182,18.1617284 25.4836364,18.7419753 L30.3127273,23.5580247 L26.4727273,27.3876543 L23.9709091,25.9950617 C23.3890909,25.6469136 22.6909091,26.3432099 23.04,26.9234568 L24.4363636,29.4185185 L23.5636364,30.2888889 L18.7345455,25.4728395 L18.7345455,25.4728395 L18.7345455,25.4728395 Z M17.3963636,22.0493827 C17.3963636,21.4111111 17.5709091,20.7728395 17.8036364,20.1925926 C17.8618182,20.0185185 17.9781818,19.8444444 18.0363636,19.7283951 C18.1527273,19.554321 18.2690909,19.4382716 18.3854545,19.2641975 C18.5018182,19.1481481 18.6181818,18.9740741 18.7345455,18.8580247 L18.7927273,18.8 C18.9090909,18.6839506 19.0836364,18.5679012 19.2,18.4518519 C19.3745455,18.3358025 19.4909091,18.2197531 19.6654545,18.1037037 C19.84,17.9876543 19.9563636,17.9296296 20.1309091,17.8716049 C20.7127273,17.5814815 21.3527273,17.4654321 21.9927273,17.4654321 L20.3636364,19.0901235 L18.9672727,20.482716 L17.3963636,22.0493827 L17.3963636,22.0493827 Z M15.7672727,18.7419753 L16.5818182,17.9296296 L17.92,16.5950617 L18.6763636,15.8407407 L18.7345455,15.782716 L18.7927273,16.0148148 L19.0254545,17.3493827 C18.6763636,17.5814815 18.3854545,17.8135802 18.0945455,18.1037037 L18.0363636,18.1037037 C17.7454545,18.3938272 17.5127273,18.6839506 17.28,19.0320988 L15.9418182,18.8 L15.7672727,18.7419753 L15.7672727,18.7419753 Z M1.33818182,2.72716049 C0.989090909,2.32098765 0.989090909,1.74074074 1.33818182,1.39259259 L1.33818182,1.39259259 C1.51272727,1.21851852 1.74545455,1.10246914 1.97818182,1.10246914 C2.21090909,1.10246914 2.44363636,1.21851852 2.61818182,1.39259259 L17.1054545,15.8407407 L15.7672727,17.1753086 L1.33818182,2.72716049 L1.33818182,2.72716049 L1.33818182,2.72716049 Z" id="Shape"></path>
            <path d="M21.4690909,24.4283951 C21.2363636,24.6024691 21.2363636,24.9506173 21.4109091,25.1246914 L21.8763636,25.5888889 C22.0509091,25.762963 22.4,25.762963 22.5745455,25.5888889 C22.8072727,25.4148148 22.8072727,25.0666667 22.6327273,24.8925926 L22.1672727,24.4283951 C21.9927273,24.1962963 21.7018182,24.254321 21.4690909,24.4283951 L21.4690909,24.4283951 L21.4690909,24.4283951 Z" id="Shape"></path>
            <path d="M26.88,22.5135802 C26.7636364,22.5135802 26.6472727,22.4555556 26.5309091,22.3975309 L24.4363636,20.2506173 C24.2618182,20.0765432 24.2618182,19.7283951 24.4363636,19.554321 C24.6109091,19.3802469 24.96,19.3802469 25.1345455,19.554321 L27.2290909,21.6432099 C27.4036364,21.817284 27.4036364,22.1654321 27.2290909,22.3395062 C27.1709091,22.4555556 27.0545455,22.5135802 26.88,22.5135802 L26.88,22.5135802 Z" id="Shape"></path>
            <path d="M28.5672727,24.0222222 C28.4509091,24.0222222 28.3345455,23.9641975 28.2181818,23.9061728 L27.9272727,23.5580247 C27.7527273,23.3839506 27.7527273,23.0358025 27.9272727,22.8617284 C28.1018182,22.6876543 28.4509091,22.6876543 28.6254545,22.8617284 L28.9163636,23.1518519 C29.0909091,23.3259259 29.0909091,23.6740741 28.9163636,23.8481481 C28.8,23.9641975 28.6836364,24.0222222 28.5672727,24.0222222 L28.5672727,24.0222222 Z" id="Shape"></path>
        </g>
    </g>
</svg>