<?xml version="1.0" encoding="UTF-8" standalone="no"?>
<svg width="32px" height="32px" viewBox="0 0 32 32" version="1.1" xmlns="http://www.w3.org/2000/svg" xmlns:xlink="http://www.w3.org/1999/xlink">
    <!-- Generator: Sketch 40.3 (33839) - http://www.bohemiancoding.com/sketch -->
    <title>Slice 1</title>
    <desc>Created with Sketch.</desc>
    <defs></defs>
    <g id="Page-1" stroke="none" stroke-width="1" fill="none" fill-rule="evenodd">
        <path d="M5.12307692,8.36923077 L5.12307692,8.36923077 L5.12307692,8.43076923 L5.12307692,8.43076923 L9.30769231,31.0153846 C9.36923077,31.2615385 9.55384615,31.4461538 9.8,31.4461538 L22.2923077,31.4461538 C22.5384615,31.4461538 22.7846154,31.2615385 22.7846154,31.0153846 L26.9692308,8.43076923 C26.9692308,8.30769231 26.9692308,8.18461538 26.9076923,8.12307692 L22.7846154,0.8 C22.7230769,0.615384615 22.5384615,0.553846154 22.3538462,0.553846154 L9.8,0.553846154 C9.61538462,0.553846154 9.43076923,0.676923077 9.36923077,0.8 L5.18461538,8.12307692 C5.18461538,8.12307692 5.18461538,8.18461538 5.12307692,8.18461538 L5.12307692,8.18461538 L5.12307692,8.24615385 L5.12307692,8.24615385 C5.12307692,8.30769231 5.12307692,8.30769231 5.12307692,8.36923077 L5.12307692,8.36923077 L5.12307692,8.36923077 L5.12307692,8.36923077 Z M10.1692308,1.53846154 L13.1230769,1.53846154 L9.55384615,7.87692308 L6.6,7.87692308 L10.1692308,1.53846154 L10.1692308,1.53846154 Z M10.3538462,8.43076923 L14.2923077,1.53846154 L21.9846154,1.53846154 L25.9230769,8.43076923 L21.8615385,30.4615385 L14.4153846,30.4615385 L10.3538462,8.43076923 L10.3538462,8.43076923 Z M13.3692308,30.4615385 L10.2923077,30.4615385 L6.29230769,8.86153846 L9.36923077,8.86153846 L13.3692308,30.4615385 L13.3692308,30.4615385 Z" id="Shape" fill="#000000"></path>
        <path d="M14.1692308,8.55384615 C13.8615385,8.55384615 13.6769231,8.8 13.6769231,9.04615385 C13.6769231,9.29230769 13.9230769,9.53846154 14.1692308,9.53846154 L17.6153846,9.53846154 L17.6153846,24.6769231 C17.6153846,24.9230769 17.8615385,25.1692308 18.1076923,25.1692308 C18.4153846,25.1692308 18.6,24.9230769 18.6,24.6769231 L18.6,9.53846154 L22.0461538,9.53846154 C22.3538462,9.53846154 22.5384615,9.29230769 22.5384615,9.04615385 C22.5384615,8.8 22.2923077,8.55384615 22.0461538,8.55384615 L18.6,8.55384615 L18.6,5.04615385 C18.6,4.8 18.3538462,4.55384615 18.1076923,4.55384615 C17.8,4.55384615 17.6153846,4.8 17.6153846,5.04615385 L17.6153846,8.55384615 L14.1692308,8.55384615 L14.1692308,8.55384615 L14.1692308,8.55384615 Z" id="Shape" fill="#000000"></path>
        <path d="M18.1692308,25.8461538 C17.8615385,25.8461538 17.6153846,26.0923077 17.6153846,26.3384615 L17.6153846,27.0769231 C17.6153846,27.3846154 17.8615385,27.5692308 18.1692308,27.5692308 C18.4769231,27.5692308 18.7230769,27.3230769 18.7230769,27.0769231 L18.7230769,26.4 C18.6615385,26.0923077 18.4769231,25.8461538 18.1692308,25.8461538 L18.1692308,25.8461538 L18.1692308,25.8461538 Z" id="Shape" fill="#000000"></path>
    </g>
</svg>