<?xml version="1.0" encoding="UTF-8" standalone="no"?>
<svg width="32px" height="33px" viewBox="0 0 32 33" version="1.1" xmlns="http://www.w3.org/2000/svg" xmlns:xlink="http://www.w3.org/1999/xlink">
    <!-- Generator: Sketch 40.3 (33839) - http://www.bohemiancoding.com/sketch -->
    <title>Slice 1</title>
    <desc>Created with Sketch.</desc>
    <defs></defs>
    <g id="Page-1" stroke="none" stroke-width="1" fill="none" fill-rule="evenodd">
        <path d="M5.99851163,18.6781481 C6.25525581,18.6781481 6.46362791,18.4707407 6.46362791,18.2151852 L6.46362791,11.6711111 C6.46362791,6.43703704 10.7415814,2.17888889 16,2.17888889 C17.6357209,2.17888889 19.2483721,2.59777778 20.6653023,3.39037037 C20.887814,3.51518519 21.1724651,3.43666667 21.2986047,3.21333333 C21.4243721,2.99037037 21.3447442,2.70814815 21.1207442,2.58296296 C19.5650233,1.71296296 17.7946047,1.25296296 15.9996279,1.25296296 C10.228093,1.25296296 5.53302326,5.92666667 5.53302326,11.6711111 L5.53302326,18.2151852 C5.53339535,18.4711111 5.74176744,18.6781481 5.99851163,18.6781481 L5.99851163,18.6781481 Z" id="Shape" fill="#2C405A"></path>
        <path d="M11.2230698,5.16444444 C11.0630698,4.96481481 10.7702326,4.93222222 10.5693023,5.09148148 C9.63386047,5.83481481 8.85767442,6.73592593 8.26269767,7.76925926 C8.13506977,7.99111111 8.21209302,8.27407407 8.43534884,8.40111111 C8.50790698,8.44259259 8.58753488,8.46259259 8.66604651,8.46259259 C8.82753488,8.46259259 8.98381395,8.37888889 9.07013953,8.23 C9.60632558,7.29814815 10.3062326,6.48592593 11.1501395,5.81518519 C11.3506977,5.65555556 11.3834419,5.36407407 11.2230698,5.16444444 L11.2230698,5.16444444 Z" id="Shape" fill="#2C405A"></path>
        <path d="M12.6623256,4.8037037 C12.728186,4.8037037 12.7947907,4.78962963 12.8584186,4.76 C13.4786977,4.47185185 14.1335814,4.25962963 14.804093,4.12888889 C15.056,4.08 15.2204651,3.83666667 15.1709767,3.58592593 C15.1218605,3.33518519 14.8785116,3.17111111 14.6251163,3.22037037 C13.8805581,3.36518519 13.1534884,3.60074074 12.4647442,3.92074074 C12.231814,4.02888889 12.1313488,4.30444444 12.24,4.53592593 C12.3192558,4.70444444 12.4874419,4.8037037 12.6623256,4.8037037 L12.6623256,4.8037037 Z" id="Shape" fill="#2C405A"></path>
        <path d="M12.6842791,15.1914815 C13.6792558,15.1914815 14.4889302,14.3855556 14.4889302,13.3951852 C14.4889302,12.4048148 13.6792558,11.5988889 12.6842791,11.5988889 C11.6889302,11.5988889 10.8792558,12.4048148 10.8792558,13.3951852 C10.8792558,14.3855556 11.6889302,15.1914815 12.6842791,15.1914815 L12.6842791,15.1914815 Z M12.6842791,12.5248148 C13.1665116,12.5248148 13.5586977,12.9151852 13.5586977,13.3951852 C13.5586977,13.7740741 13.3127442,14.0940741 12.9726512,14.212963 C12.411907,13.7925926 12.16,13.217037 12.0476279,12.8022222 C12.2072558,12.6325926 12.4323721,12.5248148 12.6842791,12.5248148 L12.6842791,12.5248148 Z" id="Shape" fill="#2C405A"></path>
        <path d="M19.3023256,15.1914815 C20.2973023,15.1914815 21.1069767,14.3855556 21.1069767,13.3951852 C21.1069767,12.4048148 20.2973023,11.5988889 19.3023256,11.5988889 C18.3069767,11.5988889 17.4973023,12.4048148 17.4973023,13.3951852 C17.4973023,14.3855556 18.3069767,15.1914815 19.3023256,15.1914815 L19.3023256,15.1914815 Z M19.3023256,12.5248148 C19.7845581,12.5248148 20.1767442,12.9151852 20.1767442,13.3951852 C20.1767442,13.7733333 19.9315349,14.092963 19.592186,14.2125926 C19.0310698,13.7914815 18.779907,13.2148148 18.667907,12.8003704 C18.8271628,12.6318519 19.0515349,12.5248148 19.3023256,12.5248148 L19.3023256,12.5248148 Z" id="Shape" fill="#2C405A"></path>
        <path d="M31.1106977,17.51 C30.2452093,16.8711111 29.019907,17.0518519 28.3776744,17.912963 C27.8779535,18.5833333 27.2234419,19.0744444 26.4662326,19.3622222 L26.4662326,11.6711111 C26.4662326,8.83592593 25.3421395,6.18518519 23.3012093,4.20703704 C23.1170233,4.02851852 22.8226977,4.03222222 22.6433488,4.21555556 C22.4643721,4.39888889 22.468093,4.69185185 22.651907,4.87037037 C24.5116279,6.67259259 25.5356279,9.08777778 25.5356279,11.6711111 L25.5356279,20.4444444 C25.5356279,20.7 25.744,20.9074074 26.0007442,20.9074074 C26.2574884,20.9074074 26.4658605,20.7 26.4658605,20.4444444 L26.4658605,20.3403704 C27.52,20.0162963 28.455814,19.3614815 29.1244651,18.4648148 C29.4612093,18.012963 30.1034419,17.9188889 30.555907,18.2537037 C31.0091163,18.5881481 31.1043721,19.2274074 30.7683721,19.6785185 C29.7242791,21.0788889 28.1767442,22.0603704 26.4662326,22.4362963 L26.4662326,22.0803704 C26.4662326,21.8248148 26.2578605,21.6174074 26.0011163,21.6174074 C25.7443721,21.6174074 25.536,21.8248148 25.536,22.0803704 L25.536,28.7951852 L25.536,29.0774074 C25.536,29.3625926 25.4076279,29.6162963 25.208186,29.7922222 C24.4096744,29.63 23.8779535,28.95 23.5706047,28.3981481 C23.4042791,27.527037 22.6381395,26.8648148 21.7153488,26.8648148 C20.6708837,26.8648148 19.8210233,27.7103704 19.8210233,28.7496296 L19.8210233,28.7948148 L19.8210233,29.077037 C19.8210233,29.3688889 19.6866977,29.6274074 19.4790698,29.8033333 C18.7259535,29.6803704 18.2035349,29.0988889 17.876093,28.5696296 C17.783814,27.6151852 16.9826977,26.8644444 16,26.8644444 C14.9555349,26.8644444 14.1060465,27.71 14.1060465,28.7492593 L14.1060465,28.7944444 L14.1060465,29.0766667 C14.1060465,29.3681481 13.972093,29.6262963 13.7652093,29.8022222 C13.0065116,29.6748148 12.4837209,29.0818519 12.1585116,28.5492593 C12.0569302,27.6048148 11.259907,26.8644444 10.2846512,26.8644444 C9.24055814,26.8644444 8.39106977,27.71 8.39106977,28.7492593 L8.39106977,28.7944444 L8.39106977,29.0766667 C8.39106977,29.3692593 8.256,29.6281481 8.048,29.8040741 C7.312,29.6888889 6.79404651,29.137037 6.46325581,28.6188889 L6.46325581,21.897037 C6.46325581,21.6414815 6.25488372,21.4340741 5.99813953,21.4340741 C5.74139535,21.4340741 5.53302326,21.6414815 5.53302326,21.897037 L5.53302326,22.4366667 C3.82213953,22.0603704 2.27460465,21.0792593 1.23088372,19.6788889 C0.895255814,19.2277778 0.990511628,18.5885185 1.44334884,18.2540741 C1.89544186,17.92 2.53767442,18.0137037 2.8747907,18.4651852 C3.61227907,19.4548148 4.67386047,20.1544444 5.86269767,20.4340741 C6.11460465,20.4948148 6.36353488,20.3388889 6.42269767,20.09 C6.48148837,19.8411111 6.32706977,19.5918519 6.07702326,19.532963 C5.08688372,19.3 4.23776744,18.7396296 3.6215814,17.912963 C2.97934884,17.0518519 1.75367442,16.8711111 0.88855814,17.51 C0.0238139535,18.1488889 -0.157767442,19.3688889 0.483348837,20.23 C1.70083721,21.8633333 3.5255814,22.9888889 5.53265116,23.3781481 L5.53265116,28.8314815 L5.53265116,29.0774074 L5.53265116,29.2577778 C5.53265116,29.3218519 5.54567442,29.3825926 5.56948837,29.4381481 C5.73916279,30.3051852 6.5067907,30.9625926 7.42660465,30.9625926 C8.47106977,30.9625926 9.32093023,30.117037 9.32093023,29.0777778 L9.32093023,28.7955556 L9.32093023,28.7503704 C9.32093023,28.2214815 9.75293023,27.7914815 10.2842791,27.7914815 C10.8156279,27.7914815 11.248,28.2218519 11.248,28.7503704 C11.248,28.7648148 11.2550698,28.777037 11.256186,28.7911111 C11.2546977,28.8055556 11.248,28.8174074 11.248,28.8318519 L11.248,29.0777778 C11.248,30.117037 12.0974884,30.9625926 13.1419535,30.9625926 C14.1864186,30.9625926 15.0362791,30.117037 15.0362791,29.0777778 L15.0362791,28.7955556 L15.0362791,28.7503704 C15.0362791,28.2214815 15.4686512,27.7914815 16,27.7914815 C16.5313488,27.7914815 16.9633488,28.2218519 16.9633488,28.7503704 C16.9633488,28.7648148 16.9704186,28.777037 16.9715349,28.7911111 C16.9700465,28.8055556 16.9633488,28.8174074 16.9633488,28.8318519 L16.9633488,29.0777778 C16.9633488,30.117037 17.8128372,30.9625926 18.8573023,30.9625926 C19.9017674,30.9625926 20.7512558,30.117037 20.7512558,29.0777778 L20.7512558,28.7955556 L20.7512558,28.7503704 C20.7512558,28.2214815 21.1836279,27.7914815 21.7153488,27.7914815 C22.2466977,27.7914815 22.6786977,28.2218519 22.6786977,28.7503704 C22.6786977,28.7648148 22.6857674,28.777037 22.6868837,28.7911111 C22.6853953,28.8055556 22.6786977,28.8174074 22.6786977,28.8318519 L22.6786977,29.0777778 C22.6786977,30.117037 23.528186,30.9625926 24.5726512,30.9625926 C25.4928372,30.9625926 26.260093,30.3055556 26.4297674,29.4381481 C26.4532093,29.382963 26.4666047,29.3218519 26.4666047,29.2577778 L26.4666047,29.0777778 L26.4666047,28.7955556 L26.4666047,23.3785185 C28.4740465,22.9892593 30.2984186,21.8637037 31.515907,20.2303704 C32.1573953,19.3688889 31.975814,18.1488889 31.1106977,17.51 L31.1106977,17.51 Z" id="Shape" fill="#2C405A"></path>
        <path d="M16,18.0833333 C17.0444651,18.0833333 17.8939535,17.2377778 17.8939535,16.1985185 C17.8939535,15.942963 17.6855814,15.7355556 17.4288372,15.7355556 C17.172093,15.7355556 16.9637209,15.942963 16.9637209,16.1985185 C16.9637209,16.7274074 16.5313488,17.1574074 16,17.1574074 C15.4686512,17.1574074 15.0366512,16.727037 15.0366512,16.1985185 C15.0366512,15.942963 14.8282791,15.7355556 14.5715349,15.7355556 C14.3147907,15.7355556 14.1064186,15.942963 14.1064186,16.1985185 C14.1064186,17.2377778 14.955907,18.0833333 16,18.0833333 L16,18.0833333 Z" id="Shape" fill="#2C405A"></path>
    </g>
</svg>