<?xml version="1.0" encoding="UTF-8" standalone="no"?>
<svg width="32px" height="32px" viewBox="0 0 32 32" version="1.1" xmlns="http://www.w3.org/2000/svg" xmlns:xlink="http://www.w3.org/1999/xlink">
    <!-- Generator: Sketch 40.3 (33839) - http://www.bohemiancoding.com/sketch -->
    <title>Slice 1</title>
    <desc>Created with Sketch.</desc>
    <defs></defs>
    <g id="Page-1" stroke="none" stroke-width="1" fill="none" fill-rule="evenodd">
        <g id="Group" transform="translate(0.000000, 1.000000)" fill="#000000">
            <path d="M9.61381818,4.19623912 C8.60872727,4.98995696 7.77490909,5.9519847 7.136,7.05498996 C7.01127273,7.27041224 7.08654545,7.54517456 7.30472727,7.66852989 C7.37563636,7.70880918 7.45345455,7.72822956 7.53018182,7.72822956 C7.688,7.72822956 7.84072727,7.6469517 7.92509091,7.50237781 C8.50690909,6.49791296 9.26618182,5.62183835 10.1814545,4.89932855 C10.3774545,4.7443252 10.4094545,4.46165088 10.2527273,4.26744715 C10.0967273,4.07324342 9.81054545,4.04159541 9.61381818,4.19623912 L9.61381818,4.19623912 Z" id="Shape"></path>
            <path d="M11.8436364,3.80423529 C11.908,3.80423529 11.9730909,3.79056911 12.0352727,3.76179818 C12.708,3.45143185 13.4181818,3.22234338 14.1465455,3.08172549 C14.3927273,3.03425347 14.5534545,2.79797226 14.5050909,2.55449833 C14.4570909,2.31102439 14.22,2.15098613 13.9716364,2.19953706 C13.1712727,2.35418077 12.3901818,2.60592635 11.6509091,2.94722143 C11.4232727,3.05223529 11.3250909,3.31980488 11.4312727,3.54493735 C11.5083636,3.70821234 11.6727273,3.80423529 11.8436364,3.80423529 L11.8436364,3.80423529 Z" id="Shape"></path>
            <path d="M31.2621818,28.345473 L26.6963636,28.345473 L26.6963636,11.216704 C26.6963636,8.1892836 25.4883636,5.35822477 23.2945455,3.24536011 C23.1145455,3.0720153 22.8269091,3.07561167 22.6516364,3.25363176 C22.4767273,3.43165184 22.4803636,3.71612434 22.66,3.88946915 C24.6767273,5.83150646 25.7872727,8.43383644 25.7872727,11.216704 L25.7872727,28.345473 L7.53745455,28.345473 C6.19636364,28.345473 5.10545455,27.1622688 5.10545455,25.7082582 L5.10545455,11.216704 C5.10545455,5.57724342 9.74436364,0.989360115 15.4465455,0.989360115 C17.22,0.989360115 18.9694545,1.44070397 20.5058182,2.29448111 C20.7247273,2.4163979 21.0018182,2.33907604 21.1247273,2.12257484 C21.2476364,1.90607365 21.1698182,1.63203061 20.9509091,1.51047346 C19.2789091,0.581532281 17.3752727,0.0902687709 15.4461818,0.0899091344 C9.24290909,0.0899091344 4.196,5.08130464 4.196,11.2163443 L4.196,25.7082582 L4.196,28.345473 L0.737818182,28.345473 C0.486909091,28.345473 0.283272727,28.5468694 0.283272727,28.7950187 C0.283272727,29.0431679 0.486909091,29.2445643 0.737818182,29.2445643 L4.65054545,29.2445643 L7.53709091,29.2445643 L31.2618182,29.2445643 C31.5127273,29.2445643 31.7163636,29.0431679 31.7163636,28.7950187 C31.7163636,28.5468694 31.5130909,28.345473 31.2621818,28.345473 L31.2621818,28.345473 Z" id="Shape"></path>
            <path d="M18.0603636,8.45937064 C18.0603636,8.21122143 17.8567273,8.00982496 17.6058182,8.00982496 L16.4545455,8.00982496 L16.4545455,6.87193496 C16.4545455,6.62378575 16.2509091,6.42238929 16,6.42238929 C15.7490909,6.42238929 15.5454545,6.62378575 15.5454545,6.87193496 L15.5454545,8.00982496 L14.3941818,8.00982496 C14.1432727,8.00982496 13.9396364,8.21122143 13.9396364,8.45937064 C13.9396364,8.70751985 14.1432727,8.90891631 14.3941818,8.90891631 L15.5454545,8.90891631 L15.5454545,11.6356805 C15.5454545,11.8838297 15.7490909,12.0852262 16,12.0852262 C16.2509091,12.0852262 16.4545455,11.8838297 16.4545455,11.6356805 L16.4545455,8.90891631 L17.6058182,8.90891631 C17.8567273,8.90891631 18.0603636,8.70787948 18.0603636,8.45937064 L18.0603636,8.45937064 Z" id="Shape"></path>
            <path d="M16.1254545,14.9389421 C15.8745455,14.9389421 15.6709091,15.1403386 15.6709091,15.3884878 L15.6709091,19.0064314 C15.6709091,19.2545806 15.8745455,19.455977 16.1254545,19.455977 C16.3763636,19.455977 16.58,19.2545806 16.58,19.0064314 L16.58,15.3884878 C16.58,15.1403386 16.3763636,14.9389421 16.1254545,14.9389421 L16.1254545,14.9389421 Z" id="Shape"></path>
            <path d="M14.2032727,16.3566294 C14.2032727,15.5747795 13.56,14.9389421 12.7698182,14.9389421 L11.088,14.9389421 C11.0643636,14.9389421 11.044,14.9486523 11.0214545,14.9522487 C10.9989091,14.9486523 10.9781818,14.9389421 10.9545455,14.9389421 C10.7036364,14.9389421 10.5,15.1403386 10.5,15.3884878 L10.5,19.0064314 C10.5,19.2545806 10.7036364,19.455977 10.9545455,19.455977 C11.2054545,19.455977 11.4090909,19.2545806 11.4090909,19.0064314 L11.4090909,17.7743166 L12.5069091,17.7743166 L13.3549091,19.2304849 C13.4389091,19.3750588 13.5916364,19.4556174 13.7490909,19.4556174 C13.8261818,19.4556174 13.904,19.436197 13.9756364,19.3955581 C14.1930909,19.2718431 14.268,18.9970808 14.1425455,18.7816585 L13.452,17.5952176 C13.8970909,17.3549804 14.2032727,16.8928474 14.2032727,16.3566294 L14.2032727,16.3566294 Z M11.4090909,15.8380335 L12.7694545,15.8380335 C13.0585455,15.8380335 13.2938182,16.0707183 13.2938182,16.3566294 C13.2938182,16.6425404 13.0585455,16.8752253 12.7694545,16.8752253 L11.4090909,16.8752253 L11.4090909,15.8380335 L11.4090909,15.8380335 Z" id="Shape"></path>
            <path d="M18.8443636,14.9389421 C18.8207273,14.9389421 18.8003636,14.9486523 18.7774545,14.9522487 C18.7549091,14.9486523 18.7345455,14.9389421 18.7105455,14.9389421 C18.4596364,14.9389421 18.256,15.1403386 18.256,15.3884878 L18.256,19.0064314 C18.256,19.2545806 18.4596364,19.455977 18.7105455,19.455977 C18.9614545,19.455977 19.1650909,19.2545806 19.1650909,19.0064314 L19.1650909,17.7743166 L20.5258182,17.7743166 C21.3163636,17.7743166 21.9592727,17.1381196 21.9592727,16.3566294 C21.9592727,15.5747795 21.316,14.9389421 20.5258182,14.9389421 L18.8443636,14.9389421 L18.8443636,14.9389421 Z M21.0509091,16.3566294 C21.0509091,16.6425404 20.8156364,16.8752253 20.5265455,16.8752253 L19.1658182,16.8752253 L19.1658182,15.8380335 L20.5265455,15.8380335 C20.8152727,15.8380335 21.0509091,16.0707183 21.0509091,16.3566294 L21.0509091,16.3566294 Z" id="Shape"></path>
        </g>
    </g>
</svg>