<?xml version="1.0" encoding="UTF-8" standalone="no"?>
<svg width="32px" height="32px" viewBox="0 0 32 32" version="1.1" xmlns="http://www.w3.org/2000/svg" xmlns:xlink="http://www.w3.org/1999/xlink">
    <!-- Generator: Sketch 40.3 (33839) - http://www.bohemiancoding.com/sketch -->
    <title>Slice 1</title>
    <desc>Created with Sketch.</desc>
    <defs></defs>
    <g id="Page-1" stroke="none" stroke-width="1" fill="none" fill-rule="evenodd">
        <g id="Group" transform="translate(0.000000, 1.000000)" fill="#000000">
            <path d="M10.410427,17.9351827 C10.421573,17.9351827 10.4327191,17.9348225 10.4442247,17.9341022 C10.6915955,17.9153732 10.8774831,17.6999896 10.8591461,17.4518303 C10.848,17.3009177 10.8426067,17.1485645 10.8426067,16.9944104 L10.8426067,15.2871896 L10.8426067,13.7110719 L10.8426067,11.0097732 C11.6174382,11.0209385 12.2894382,11.4225316 12.3038202,11.8849939 L12.3038202,15.3639065 C12.3038202,15.3901991 12.3146067,15.4132502 12.3189213,15.4384623 C12.3239551,15.466916 12.3257528,15.4953697 12.3358202,15.5220225 C12.348764,15.556239 12.3692584,15.5843325 12.3893933,15.6135065 C12.401618,15.6315152 12.4106067,15.6509645 12.4253483,15.6668121 C12.455191,15.6992277 12.4915056,15.722639 12.5292584,15.7453299 C12.5404045,15.7521732 12.5475955,15.7626182 12.5594607,15.7680208 C12.5648539,15.770542 12.5698876,15.7737835 12.5752809,15.7763048 C12.5767191,15.7770251 12.5781573,15.7777455 12.5795955,15.7784658 C14.1227865,16.5294268 15.1191011,18.1217524 15.1191011,19.8422996 C15.1191011,20.090819 15.3204494,20.292516 15.5685393,20.292516 C15.8166292,20.292516 16.0179775,20.090819 16.0179775,19.8422996 C16.0179775,17.8663896 14.9209888,16.0327481 13.2023371,15.0898147 L13.2023371,12.5628398 C13.2023371,12.5621195 13.2026966,12.5617593 13.2026966,12.561039 L13.2026966,11.9105662 C13.2026966,11.9062442 13.2048539,11.9030026 13.2048539,11.8990407 C13.2048539,11.887155 13.2026966,11.8756294 13.2026966,11.8633835 L13.2023371,6.89659567 C13.2023371,6.64807619 13.0009888,6.44637922 12.7528989,6.44637922 C12.504809,6.44637922 12.3034607,6.64807619 12.3034607,6.89659567 L12.3034607,9.50172814 C12.0826966,9.38971429 11.836764,9.32056104 11.5724944,9.32056104 C10.6739775,9.32056104 9.94301124,10.0527931 9.94301124,10.9528658 L9.94301124,13.7099913 L9.94301124,15.2861091 L9.94301124,16.9933299 C9.94301124,17.1698147 9.94948315,17.3441385 9.96206742,17.5166615 C9.98004494,17.7547359 10.1770787,17.9351827 10.410427,17.9351827 L10.410427,17.9351827 Z M11.7148764,10.2368416 C11.7235056,10.2386424 11.7321348,10.241884 11.740764,10.2436848 C11.7321348,10.2411636 11.7231461,10.2393628 11.7148764,10.2368416 L11.7148764,10.2368416 Z M11.761618,10.250168 C11.8022472,10.2613333 11.8417978,10.2746597 11.879191,10.2919481 C11.8403596,10.2779013 11.8018876,10.2631342 11.761618,10.250168 L11.761618,10.250168 Z" id="Shape"></path>
            <path d="M20.2815281,17.3963636 C20.0384719,17.3416173 19.7982921,17.4914494 19.7422022,17.7334857 C19.580764,18.4315013 19.2366742,19.0672069 18.7466067,19.5721697 C18.5736629,19.7504554 18.5779775,20.0357126 18.7559551,20.2089558 C18.8433258,20.2939567 18.9562247,20.3364571 19.0691236,20.3364571 C19.1863371,20.3364571 19.3035506,20.2907152 19.3916404,20.1999515 C19.9953258,19.5772121 20.419236,18.7945558 20.6177079,17.9369835 C20.6737978,17.6942268 20.5231461,17.4525506 20.2815281,17.3963636 L20.2815281,17.3963636 Z" id="Shape"></path>
            <path d="M26.3838202,9.30867532 L25.5493034,8.07003983 C25.4101573,7.86402078 25.1311461,7.80999481 24.9254831,7.94866147 C24.7198202,8.08768831 24.6655281,8.36754286 24.8043146,8.5735619 L25.6388315,9.8121974 C25.8459326,10.1197853 25.7646742,10.539387 25.4572584,10.7472069 C25.1502022,10.9550268 24.7316854,10.8736277 24.5238652,10.5653195 L24.3814831,10.3546182 C24.3688989,10.3358892 24.3491236,10.325084 24.334382,10.3088762 L23.9521798,9.79274805 C23.8040449,9.59321212 23.5228764,9.55143203 23.3233258,9.6994632 C23.1241348,9.84785455 23.082427,10.1298701 23.2302022,10.3294061 L23.3855281,10.539387 L22.2346067,11.4942061 C22.1314157,11.5799273 22.0717303,11.7070684 22.0717303,11.8410528 L22.0717303,12.8081177 C22.0717303,13.0566372 22.2730787,13.2583342 22.5211685,13.2583342 C22.7692584,13.2583342 22.9706067,13.0566372 22.9706067,12.8081177 L22.9706067,12.0528346 L23.9284494,11.2582926 C24.4454831,11.8180017 25.3094831,11.932897 25.9599101,11.4938459 C26.6782921,11.0083325 26.8684944,10.0283013 26.3838202,9.30867532 L26.3838202,9.30867532 Z" id="Shape"></path>
            <path d="M24.0075506,29.4891775 L20.8643596,29.4891775 C20.8650787,29.4776519 20.871191,29.4672069 20.871191,29.4553212 L20.871191,22.2558199 C20.871191,22.1780225 20.846382,22.1088693 20.8118652,22.0451186 C22.1479551,20.7855931 22.9562247,18.9735619 22.9562247,16.9947706 L22.9562247,14.3024762 C22.9562247,14.0539567 22.7548764,13.8522597 22.5067865,13.8522597 C22.2586966,13.8522597 22.0573483,14.0539567 22.0573483,14.3024762 L22.0573483,16.9947706 C22.0573483,19.5815342 20.4850337,21.8437818 18.1443596,22.6235567 C17.9088539,22.7024346 17.781573,22.9570771 17.8595955,23.1929905 C17.9221573,23.3817212 18.097618,23.5009385 18.2860225,23.5009385 C18.332764,23.5009385 18.3809438,23.4933749 18.4280449,23.4782476 C18.6844045,23.3928866 18.9299775,23.287716 19.1694382,23.1724606 C19.4171685,23.2819532 19.8000899,23.5117437 19.9719551,23.9266632 L19.9719551,29.4556814 C19.9719551,29.4675671 19.9780674,29.4780121 19.9787865,29.4895377 L13.4248989,29.4895377 C13.425618,29.4780121 13.4317303,29.4675671 13.4317303,29.4556814 L13.4317303,23.0229887 C13.6140225,23.1231169 13.8013483,23.2153212 13.9926292,23.2970805 C14.0501573,23.3212121 14.1098427,23.3330978 14.168809,23.3330978 C14.3435506,23.3330978 14.5096629,23.2304485 14.5822921,23.0593662 C14.6797303,22.8302961 14.5733034,22.5662892 14.3449888,22.4683221 C13.0056629,21.8967273 11.9025618,20.7704658 11.3179326,19.3787567 C11.221573,19.1493264 10.958382,19.0412745 10.7293483,19.138161 C10.5006742,19.2346874 10.3931685,19.4986944 10.4895281,19.7277645 C10.9364494,20.7920762 11.6519551,21.7170009 12.5328539,22.4164571 L12.5328539,29.4560416 C12.5328539,29.4679273 12.5389663,29.4783723 12.5396854,29.4898978 L4.24701124,29.4898978 C4.04853933,29.4898978 3.88746067,29.6508952 3.88746067,29.850071 C3.88746067,30.0492468 4.04853933,30.2102442 4.24701124,30.2102442 L24.007191,30.2102442 C24.2056629,30.2102442 24.3667416,30.0492468 24.3667416,29.850071 C24.3667416,29.6508952 24.2060225,29.4891775 24.0075506,29.4891775 L24.0075506,29.4891775 Z" id="Shape"></path>
            <path d="M28.9287191,29.4891775 L25.7326742,29.4891775 C25.5342022,29.4891775 25.3731236,29.6501749 25.3731236,29.8493506 C25.3731236,30.0485264 25.5342022,30.2095238 25.7326742,30.2095238 L28.9287191,30.2095238 C29.127191,30.2095238 29.2882697,30.0485264 29.2882697,29.8493506 C29.2882697,29.6501749 29.127191,29.4891775 28.9287191,29.4891775 L28.9287191,29.4891775 Z" id="Shape"></path>
            <path d="M31.3869663,29.4891775 L30.3543371,29.4891775 C30.1558652,29.4891775 29.9947865,29.6501749 29.9947865,29.8493506 C29.9947865,30.0485264 30.1558652,30.2095238 30.3543371,30.2095238 L31.3869663,30.2095238 C31.5854382,30.2095238 31.7465169,30.0485264 31.7465169,29.8493506 C31.7465169,29.6501749 31.5854382,29.4891775 31.3869663,29.4891775 L31.3869663,29.4891775 Z" id="Shape"></path>
            <path d="M2.03469663,29.4891775 L0.657977528,29.4891775 C0.459505618,29.4891775 0.298426966,29.6501749 0.298426966,29.8493506 C0.298426966,30.0485264 0.459505618,30.2095238 0.657977528,30.2095238 L2.03469663,30.2095238 C2.23316854,30.2095238 2.39424719,30.0485264 2.39424719,29.8493506 C2.39424719,29.6501749 2.23316854,29.4891775 2.03469663,29.4891775 L2.03469663,29.4891775 Z" id="Shape"></path>
            <path d="M12.7528989,5.77213506 C13.0009888,5.77213506 13.2023371,5.5704381 13.2023371,5.32191861 L13.2023371,1.71046234 C13.9843596,1.72234805 14.663191,2.13222511 14.663191,2.60045022 L14.663191,11.7902684 C14.663191,12.0387879 14.8645393,12.2404848 15.1126292,12.2404848 C15.3607191,12.2404848 15.5620674,12.0387879 15.5620674,11.7902684 L15.5620674,7.69401905 C15.6008989,7.65800173 15.6357753,7.61694199 15.6605843,7.56651775 L17.9462472,2.94261472 C18.0282247,2.7510026 18.1867865,2.6033316 18.3834607,2.53633939 C18.5797753,2.46862684 18.7958652,2.48699567 18.9774382,2.58748398 L20.0334382,3.16988398 C20.3246742,3.77029264 20.2257978,4.44813853 19.808,4.66172121 C19.7925393,4.66964502 19.783191,4.68369177 19.768809,4.6926961 C19.7522697,4.68693333 19.736809,4.67864935 19.7206292,4.67180606 L19.5182022,4.56879654 L19.413573,4.51116883 C19.4060225,4.50720693 19.3977528,4.50720693 19.3898427,4.50360519 L18.7081348,4.15711861 C18.4866517,4.04474459 18.2162697,4.13298701 18.1037303,4.35485368 C17.991191,4.57672035 18.08,4.84757056 18.3011236,4.96030476 L18.581573,5.10293333 L17.2598652,7.57768312 C17.2249888,7.64287446 17.2066517,7.71562944 17.2066517,7.78982511 L17.2037753,11.8136797 C17.2037753,12.0621991 17.404764,12.2638961 17.6528539,12.2642563 L17.6532135,12.2642563 C17.9013034,12.2642563 18.1026517,12.0629195 18.1026517,11.8144 L18.1062472,7.90291948 L19.3840899,5.51028918 C19.4053034,5.51893333 19.427236,5.52289524 19.4484494,5.53081905 C19.4549213,5.53225974 19.4606742,5.53514113 19.4667865,5.53658182 C19.7849888,5.64859567 20.1283596,5.66372294 20.4591461,5.56755671 C20.8787416,5.44581818 21.2253483,5.16740433 21.4360449,4.78418009 C21.6467416,4.40131602 21.696,3.9586632 21.5744719,3.5387013 C21.4529438,3.11837922 21.1753708,2.77117229 20.792809,2.56011082 L19.4117753,1.79834459 C19.008,1.57575758 18.5272809,1.53433766 18.0933034,1.6841697 C17.6575281,1.83184069 17.3030112,2.16139913 17.1307865,2.56515325 L15.5620674,5.73755844 L15.5620674,1.67552554 C15.5620674,0.775452814 14.8311011,0.0432207792 13.9325843,0.0432207792 C13.0340674,0.0432207792 12.3031011,0.775452814 12.3031011,1.67552554 L12.3031011,5.32191861 C12.3034607,5.5704381 12.504809,5.77213506 12.7528989,5.77213506 L12.7528989,5.77213506 Z" id="Shape"></path>
            <path d="M23.1424719,7.59209004 C22.9324944,7.57083983 22.7322247,7.46350823 22.6053034,7.27477749 C22.5945169,7.2585697 22.5826517,7.24344242 22.5697079,7.22867532 L22.0260674,6.6116987 C22.0174382,6.60197403 22.0052135,6.59765195 21.9962247,6.58864762 L21.6079101,6.06495584 C21.4597753,5.86505974 21.1778876,5.82363983 20.9790562,5.97203117 C20.7798652,6.12042251 20.7381573,6.40207792 20.8862921,6.60197403 L21.0649888,6.84292987 L19.8299326,7.86762251 C19.7267416,7.95334372 19.6670562,8.08048485 19.6670562,8.21446926 L19.6670562,11.9001212 C19.6670562,12.1486407 19.8684045,12.3503377 20.1164944,12.3503377 C20.3645843,12.3503377 20.5659326,12.1486407 20.5659326,11.9001212 L20.5659326,11.1855377 C20.6666067,11.150961 20.7564944,11.0836087 20.8129438,10.9834805 C20.8542921,10.9103654 20.9075056,10.8466147 20.970427,10.7940294 L22.5416629,9.4902026 C22.7329438,9.33172641 22.759191,9.04754978 22.6013483,8.85629784 C22.4427865,8.66468571 22.1594607,8.63839307 21.9685393,8.79650909 L20.5662921,9.96022857 L20.5662921,8.42553074 L21.639191,7.53518268 C21.6402697,7.53554286 21.6413483,7.53590303 21.642427,7.53662338 L21.8779326,7.80387186 C22.2029663,8.26741472 22.7282697,8.50909091 23.2578876,8.49612468 C23.2625618,8.49612468 23.2665169,8.49792554 23.271191,8.49792554 C23.3075056,8.49792554 23.3438202,8.49288312 23.3801348,8.48351861 C23.6404494,8.45758615 23.8978876,8.37618701 24.1294382,8.21951169 C24.4915056,7.97495411 24.7370787,7.60361558 24.8201348,7.17428918 C24.903191,6.74496277 24.8147416,6.3084329 24.5573034,5.92772987 L23.2952809,4.24247965 C23.2035955,4.10669437 23.0921348,3.98567619 22.9641348,3.88230649 C22.7703371,3.72599134 22.4877303,3.75768658 22.3324045,3.95145974 C22.1770787,4.1452329 22.208,4.42868918 22.4014382,4.58428398 C22.4593258,4.63074632 22.5096629,4.68549264 22.5639551,4.76473074 L23.3132584,5.76565195 C23.6692135,6.48599827 23.5857978,7.28450216 23.1424719,7.59209004 L23.1424719,7.59209004 Z" id="Shape"></path>
            <ellipse id="Oval" cx="23.7587416" cy="26.3445056" rx="0.936988764" ry="0.938611255"></ellipse>
            <path d="M9.63092135,25.1897905 C10.2989663,25.1897905 10.8422472,24.6452087 10.8422472,23.9763671 C10.8422472,23.3075255 10.2989663,22.7629437 9.63092135,22.7629437 C8.9628764,22.7629437 8.41959551,23.3075255 8.41959551,23.9763671 C8.41959551,24.6452087 8.9628764,25.1897905 9.63092135,25.1897905 L9.63092135,25.1897905 Z M9.63092135,23.6630165 C9.80314607,23.6630165 9.94337079,23.803484 9.94337079,23.9760069 C9.94337079,24.1485299 9.80314607,24.2889974 9.63092135,24.2889974 C9.45869663,24.2889974 9.31847191,24.1485299 9.31847191,23.9760069 C9.31847191,23.803484 9.45869663,23.6630165 9.63092135,23.6630165 L9.63092135,23.6630165 Z" id="Shape"></path>
            <path d="M9.43820225,27.1631792 C9.43820225,27.5935861 9.78768539,27.9436745 10.2173483,27.9436745 C10.6470112,27.9436745 10.9964944,27.5935861 10.9964944,27.1631792 C10.9964944,26.7327723 10.6470112,26.382684 10.2173483,26.382684 C9.78768539,26.382684 9.43820225,26.7327723 9.43820225,27.1631792 L9.43820225,27.1631792 Z M10.3370787,27.1631792 C10.3370787,27.2294511 10.2835056,27.2831169 10.2173483,27.2831169 C10.151191,27.2831169 10.097618,27.2294511 10.097618,27.1631792 C10.097618,27.0969074 10.151191,27.0432416 10.2173483,27.0432416 C10.2835056,27.0432416 10.3370787,27.0969074 10.3370787,27.1631792 L10.3370787,27.1631792 Z" id="Shape"></path>
            <path d="M17.048809,25.2121212 C17.048809,25.5766165 17.3443596,25.8726788 17.7078652,25.8726788 C18.0713708,25.8726788 18.3669213,25.5766165 18.3669213,25.2121212 C18.3669213,24.8479861 18.0713708,24.5519238 17.7078652,24.5519238 C17.3443596,24.5519238 17.048809,24.8479861 17.048809,25.2121212 L17.048809,25.2121212 Z M17.7078652,24.9722459 C17.8401798,24.9722459 17.9476854,25.0799377 17.9476854,25.2121212 C17.9476854,25.3446649 17.8401798,25.4523567 17.7078652,25.4523567 C17.5755506,25.4523567 17.4684045,25.3446649 17.4684045,25.2121212 C17.4684045,25.0799377 17.5759101,24.9722459 17.7078652,24.9722459 L17.7078652,24.9722459 Z" id="Shape"></path>
            <path d="M5.21348315,23.9522355 C5.57698876,23.9522355 5.87253933,23.6561732 5.87253933,23.2916779 C5.87253933,22.9275429 5.57698876,22.6314805 5.21348315,22.6314805 C4.84997753,22.6314805 4.55442697,22.9275429 4.55442697,23.2916779 C4.55442697,23.6561732 4.84997753,23.9522355 5.21348315,23.9522355 L5.21348315,23.9522355 Z M5.21348315,23.0518026 C5.34579775,23.0518026 5.45330337,23.1594944 5.45330337,23.2916779 C5.45330337,23.4242216 5.34579775,23.5319134 5.21348315,23.5319134 C5.08116854,23.5319134 4.97366292,23.4242216 4.97366292,23.2916779 C4.97366292,23.1594944 5.08116854,23.0518026 5.21348315,23.0518026 L5.21348315,23.0518026 Z" id="Shape"></path>
            <path d="M24.3717753,22.1809039 C24.0550112,22.1809039 23.7968539,22.4391481 23.7968539,22.7568208 C23.7968539,23.0744935 24.0546517,23.3327377 24.3717753,23.3327377 C24.6888989,23.3327377 24.9466966,23.0744935 24.9466966,22.7568208 C24.9466966,22.4391481 24.6888989,22.1809039 24.3717753,22.1809039 L24.3717753,22.1809039 Z M24.3717753,23.0813368 C24.1930787,23.0813368 24.0478202,22.9358268 24.0478202,22.7568208 C24.0478202,22.5778147 24.1930787,22.4323048 24.3717753,22.4323048 C24.5504719,22.4323048 24.6957303,22.5778147 24.6957303,22.7568208 C24.6957303,22.9358268 24.5504719,23.0813368 24.3717753,23.0813368 L24.3717753,23.0813368 Z" id="Shape"></path>
            <path d="M27.5980225,23.7422545 C27.9931685,23.7422545 28.3146067,23.4198996 28.3146067,23.0244294 C28.3146067,22.6289593 27.9931685,22.3066043 27.5980225,22.3066043 C27.2028764,22.3066043 26.8814382,22.6289593 26.8814382,23.0244294 C26.8814382,23.4198996 27.2028764,23.7422545 27.5980225,23.7422545 L27.5980225,23.7422545 Z M27.5980225,22.8418216 C27.6983371,22.8418216 27.7803146,22.9239411 27.7803146,23.0244294 C27.7803146,23.1249177 27.6983371,23.2070372 27.5980225,23.2070372 C27.4977079,23.2070372 27.4157303,23.1249177 27.4157303,23.0244294 C27.4157303,22.9239411 27.4977079,22.8418216 27.5980225,22.8418216 L27.5980225,22.8418216 Z" id="Shape"></path>
        </g>
    </g>
</svg>