<?xml version="1.0" encoding="UTF-8" standalone="no"?>
<svg width="32px" height="32px" viewBox="0 0 32 32" version="1.1" xmlns="http://www.w3.org/2000/svg" xmlns:xlink="http://www.w3.org/1999/xlink">
    <!-- Generator: Sketch 40.3 (33839) - http://www.bohemiancoding.com/sketch -->
    <title>Slice 1</title>
    <desc>Created with Sketch.</desc>
    <defs></defs>
    <g id="Page-1" stroke="none" stroke-width="1" fill="none" fill-rule="evenodd">
        <g id="Group-2" transform="translate(2.000000, 0.000000)" fill="#000000">
            <g id="Group">
                <path d="M25.3787234,30.4592593 C27.2255319,29.8666667 28.0595745,29.037037 28.0595745,28.5037037 C28.0595745,28.2074074 28,27.7925926 27.2851064,27.6148148 C26.093617,27.3185185 22.4,26.7851852 22.4,26.7851852 L17.693617,9.71851852 C17.6340426,9.6 17.6340426,9.48148148 17.693617,9.36296296 L18.587234,5.98518519 C18.6468085,5.86666667 18.706383,5.74814815 18.7659574,5.68888889 L23.412766,1.12592593 C23.5914894,0.948148148 23.5914894,0.711111111 23.4723404,0.474074074 C23.3531915,0.296296296 23.0553191,0.177777778 22.8170213,0.296296296 C22.8170213,0.296296296 17.0978723,2.31111111 15.5489362,2.84444444 C15.4297872,2.9037037 15.2510638,3.02222222 15.1914894,3.14074074 L11.6170213,7.7037037 C11.4382979,7.94074074 11.3191489,8.11851852 11.2595745,8.41481481 C9.7106383,13.3333333 6.19574468,26.8444444 6.19574468,26.8444444 L1.37021277,27.6740741 C0.774468085,27.8518519 0.536170213,28.3851852 0.536170213,28.6222222 C0.536170213,29.5111111 1.37021277,29.9259259 3.21702128,30.5185185 L25.3787234,30.4592593 Z M21.2680851,26.7851852 C20.1957447,26.962963 19.0042553,27.0814815 17.7531915,27.1407407 L17.7531915,24.4148148 C18.706383,24.3555556 19.6595745,24.237037 20.493617,24.1777778 L21.2680851,26.7851852 L21.2680851,26.7851852 Z M12.3319149,8.47407407 L16.0255319,3.79259259 L21.0297872,2.01481481 L17.812766,5.21481481 C17.7531915,5.27407407 17.693617,5.33333333 17.693617,5.45185185 L16.6212766,9.42222222 L16.6212766,9.65925926 L20.3148936,23.1703704 C19.5404255,23.2888889 18.706383,23.3481481 17.812766,23.4074074 C17.7531915,23.1703704 17.5148936,23.0518519 17.2765957,23.0518519 L11.3191489,23.0518519 C11.0808511,23.0518519 10.8425532,23.2296296 10.7829787,23.4074074 C9.8893617,23.3481481 9.05531915,23.2888889 8.28085106,23.1703704 L12.3319149,8.47407407 L12.3319149,8.47407407 Z M16.7404255,24.0592593 L16.7404255,27.5555556 L11.9148936,27.5555556 L11.9148936,24.0592593 L16.7404255,24.0592593 L16.7404255,24.0592593 Z M8.04255319,24.1777778 C8.93617021,24.2962963 9.82978723,24.3555556 10.7829787,24.4148148 L10.7829787,27.1407407 C9.53191489,27.0814815 8.34042553,26.9037037 7.26808511,26.7851852 L8.04255319,24.1777778 L8.04255319,24.1777778 Z M1.72765957,28.6222222 L6.67234043,27.7333333 C7.92340426,27.9703704 9.35319149,28.0888889 10.8425532,28.2074074 C10.9021277,28.4444444 11.1404255,28.6222222 11.3787234,28.6222222 L17.2765957,28.6222222 C17.5148936,28.6222222 17.7531915,28.4444444 17.812766,28.2074074 C19.3021277,28.0888889 20.7319149,27.9703704 21.9829787,27.7333333 L26.9276596,28.6222222 C26.5106383,28.9777778 25.5574468,29.4518519 23.6510638,29.8666667 C21.1489362,30.4 17.8723404,30.7555556 14.2978723,30.7555556 C10.7829787,30.7555556 7.44680851,30.4592593 4.94468085,29.8666667 C3.03829787,29.4518519 2.14468085,28.9777778 1.72765957,28.6222222 L1.72765957,28.6222222 L1.72765957,28.6222222 Z M3.21702128,30.4592593 C3.33617021,30.5185185 4.58723404,30.8148148 4.76595745,30.8740741 C7.32765957,31.4666667 10.7234043,31.762963 14.3574468,31.762963 C17.9914894,31.762963 21.387234,31.4666667 23.9489362,30.8740741 C24.0680851,30.8740741 25.3787234,30.5185185 25.4978723,30.4592593 L3.21702128,30.4592593 Z" id="Shape"></path>
            </g>
            <path d="M13.2255319,25.0666667 C12.9276596,25.0666667 12.6893617,25.3037037 12.6893617,25.5407407 L12.6893617,26.1925926 C12.6893617,26.4888889 12.9276596,26.6666667 13.2255319,26.6666667 C13.5234043,26.6666667 13.7617021,26.4296296 13.7617021,26.1925926 L13.7617021,25.5407407 C13.7617021,25.2444444 13.5234043,25.0666667 13.2255319,25.0666667 L13.2255319,25.0666667 L13.2255319,25.0666667 Z" id="Shape"></path>
            <path d="M15.4297872,25.0666667 C15.1319149,25.0666667 14.893617,25.3037037 14.893617,25.5407407 L14.893617,26.1925926 C14.893617,26.4888889 15.1319149,26.6666667 15.4297872,26.6666667 C15.7276596,26.6666667 15.9659574,26.4296296 15.9659574,26.1925926 L15.9659574,25.5407407 C15.9659574,25.2444444 15.7276596,25.0666667 15.4297872,25.0666667 L15.4297872,25.0666667 L15.4297872,25.0666667 Z" id="Shape"></path>
            <path d="M12.5702128,13.5703704 L12.4510638,13.5703704 C12.1531915,13.5111111 12.0340426,13.2148148 12.093617,12.9777778 L12.8085106,10.0740741 C12.8680851,9.77777778 13.1659574,9.65925926 13.4042553,9.71851852 C13.7021277,9.77777778 13.8212766,10.0740741 13.7617021,10.3111111 L13.0468085,13.2148148 C12.987234,13.4518519 12.8085106,13.5703704 12.5702128,13.5703704 L12.5702128,13.5703704 Z" id="Shape"></path>
            <path d="M11.9148936,15.762963 L11.7957447,15.762963 C11.4978723,15.7037037 11.3787234,15.4074074 11.4382979,15.1703704 L11.5574468,14.7555556 C11.6170213,14.4592593 11.9148936,14.3407407 12.1531915,14.4 C12.4510638,14.4592593 12.5702128,14.7555556 12.5106383,14.9925926 L12.3914894,15.4074074 C12.3319149,15.6444444 12.1531915,15.762963 11.9148936,15.762963 L11.9148936,15.762963 Z" id="Shape"></path>
        </g>
    </g>
</svg>