<?xml version="1.0" encoding="UTF-8" standalone="no"?>
<svg width="32px" height="32px" viewBox="0 0 32 32" version="1.1" xmlns="http://www.w3.org/2000/svg" xmlns:xlink="http://www.w3.org/1999/xlink">
    <!-- Generator: Sketch 40.3 (33839) - http://www.bohemiancoding.com/sketch -->
    <title>Slice 1</title>
    <desc>Created with Sketch.</desc>
    <defs></defs>
    <g id="Page-1" stroke="none" stroke-width="1" fill="none" fill-rule="evenodd">
        <path d="M31.9890011,11.4599074 C31.9336457,11.2078156 31.685294,11.0488556 31.4317061,11.104211 L29.267232,11.5822131 L29.266484,11.5822131 C27.8343479,11.9001331 25.528493,10.6434141 23.5304594,8.45911675 C21.5511269,6.29539073 20.5087234,3.91435704 20.9190272,2.50952473 L21.2051552,1.60925013 C21.2833261,1.36314266 21.1471816,1.10020413 20.9014481,1.02203321 C20.6549666,0.943862298 20.3924021,1.08038088 20.3142312,1.32574031 L20.0445602,2.17365161 C20.0430641,2.17813989 20.0393239,2.18113208 20.0378278,2.18562036 C19.594984,3.58521635 17.3549572,4.95414241 14.4637554,5.59260055 C11.5729277,6.23068466 8.96560975,5.93183987 7.97556951,4.84941582 C7.9643488,4.83707305 7.94863981,4.83183672 7.93629704,4.82061601 L5.45726919,2.11680004 C5.28334826,1.92642207 4.98749566,1.91407929 4.79674367,2.08800023 C4.6063657,2.26266921 4.5936489,2.55814778 4.76831788,2.74852575 L7.36030083,5.57539546 C8.31630493,6.75992793 8.31181664,9.51573318 7.33224906,12.3635482 C7.24809377,12.6077856 7.37787993,12.8737163 7.62211729,12.9578716 C7.86485855,13.0424009 8.13228536,12.9118667 8.21606663,12.6680033 C8.77036947,11.056336 9.15636174,9.02688445 8.95999939,7.31984113 L10.8637791,9.39641968 C11.3810536,10.0094442 11.3971366,11.5197512 10.8970672,13.1007486 C10.3891432,14.7071795 9.4866245,15.9496857 8.70267122,16.1228585 C8.70229719,16.1228585 8.70192317,16.1232326 8.70154915,16.1232326 L5.97379566,16.7257844 C6.62085634,16.0061632 7.22116408,15.0509072 7.7320802,13.9015329 C7.83680678,13.6655241 7.73058411,13.3891207 7.49457527,13.2843941 C7.25744436,13.1785454 6.98216305,13.2858902 6.87743647,13.521525 C5.95023218,15.6070801 4.71034423,17.0040579 3.56096998,17.2580199 C3.56096998,17.2580199 3.56059595,17.2580199 3.56059595,17.2583939 L0.366809175,17.9641763 C0.114717327,18.0199058 -0.0446166901,18.2693795 0.0111128134,18.5214713 C0.0593618466,18.739527 0.252732003,18.8880144 0.4674215,18.8880144 C0.500709592,18.8880144 0.534745732,18.8842741 0.568781872,18.8771677 L3.76369072,18.1717593 C5.27063146,17.8377563 7.74666712,19.2556795 9.78397319,21.6153938 C9.876357,21.7227386 10.0068912,21.77772 10.1381735,21.77772 C10.2462663,21.77772 10.3547331,21.7403177 10.4430026,21.6640169 C10.6382429,21.4953323 10.6603103,21.2002277 10.4916257,21.0046134 C9.36244869,19.6966532 7.78032923,18.324735 6.18624102,17.6365317 L8.90651403,17.0358499 C9.6885972,16.8634251 11.0309676,17.6114721 12.166503,18.8532302 C13.2148909,19.9988642 13.8193129,21.2742844 13.7194486,22.0679623 L12.8274025,24.8746347 C12.5221993,23.9612693 11.9929561,22.9730992 11.2561297,21.9654798 C11.1031541,21.7571487 10.8110418,21.7111439 10.6027107,21.8641195 C10.3943796,22.016347 10.3491227,22.3088334 10.5013503,22.5175385 C11.721415,24.1853094 12.3247149,25.7917404 12.1766016,26.9201693 L11.0283494,30.5328624 C10.9501785,30.7789699 11.0863231,31.0419084 11.3320565,31.1200794 C11.3791835,31.1350403 11.4270585,31.1421467 11.4738114,31.1421467 C11.6720439,31.1421467 11.8560635,31.0149787 11.9192734,30.8163723 L12.9025812,27.7228238 C12.9403576,27.677941 12.9725236,27.6274478 12.9908508,27.567978 L12.9912248,27.567978 C12.9912248,27.56723 12.9912248,27.566856 12.9915988,27.566482 C13.6049974,25.6324064 18.1067444,23.5019684 22.3032882,23.8647712 C22.5565022,23.8853425 22.7872747,23.6968347 22.809342,23.4391325 C22.8317835,23.1818043 22.6414055,22.9555201 22.3837033,22.9330787 C19.5078365,22.6806128 15.8154764,23.6194118 13.6899007,25.2475362 L14.5026538,22.6907114 C14.5348199,22.6488208 14.5617496,22.6016938 14.5785806,22.5478345 L14.5789546,22.5478345 C14.7708287,21.9407943 15.6467918,21.3045803 16.8661084,20.8871701 C17.1099717,20.8033888 17.240506,20.5374581 17.1567247,20.2932207 C17.0729434,20.0493574 16.8085088,19.9188232 16.5627753,20.0026044 C16.0249295,20.186624 15.555156,20.4099161 15.1489665,20.6575196 L15.7028953,18.91457 C15.7309471,18.8752976 15.7541365,18.8311628 15.7694715,18.7825397 C15.8936473,18.389067 16.9670948,17.8897456 17.9964075,17.8897456 C18.4687992,17.8897456 18.7388441,18.0012046 18.8345942,18.1055572 C18.8461889,18.118274 18.8622719,18.1231363 18.8746147,18.134357 L20.1638737,19.5403114 C19.6286461,19.4830858 19.0313305,19.4890702 18.3786595,19.5758436 C18.1224534,19.6102538 17.9429221,19.8451405 17.9769583,20.1009726 C18.0113684,20.3571787 18.2514915,20.5333438 18.5020873,20.5026739 C19.8897145,20.3164102 21.0387147,20.5153907 21.4998857,21.0192004 C21.5167168,21.0379015 21.5391582,21.045756 21.5582334,21.060717 L24.8690895,24.6711659 C24.9281852,24.7508329 24.9865329,24.831622 25.0531091,24.9041826 C25.0770466,24.9307383 25.1084646,24.9442031 25.1372644,24.9640263 L26.8405675,26.8218011 C26.9329513,26.9224135 27.0589972,26.9732807 27.1854172,26.9732807 C27.2983723,26.9732807 27.4113274,26.9328861 27.501467,26.8506009 C27.691845,26.675932 27.7045618,26.3800794 27.5302668,26.1897014 L25.7600135,24.258618 C25.7596395,24.258244 25.7592655,24.258244 25.7588915,24.25787 L25.5722537,24.0544012 C24.68507,22.7748667 24.7482799,20.0347705 25.7592655,17.212389 C25.846039,16.9692738 25.719993,16.7014729 25.4768777,16.6143254 C25.2330144,16.527552 24.9659616,16.6535979 24.8788141,16.8967132 C24.2474625,18.6583639 23.8827895,20.7225997 24.0761597,22.4225366 L22.0874767,20.2532002 C21.647625,19.5851942 21.6588457,18.149692 22.1323595,16.6524758 C22.6402834,15.0452968 23.5428022,13.8020426 24.3275035,13.6292438 L24.3278775,13.6292438 L27.0530128,13.0274399 C26.5200293,13.6213893 26.0177157,14.3772908 25.5666434,15.2805576 C25.4510701,15.5117041 25.54495,15.7922218 25.7760966,15.907795 C25.8434208,15.9414571 25.9144853,15.9571661 25.9848017,15.9571661 C26.1564785,15.9571661 26.3214228,15.8625382 26.403334,15.6987159 C27.3043566,13.8948005 28.4208168,12.7270991 29.4665866,12.4948305 L29.4673346,12.4948305 L29.4688307,12.4948305 L29.4688307,12.4948305 L31.6329307,12.0168284 C31.8853966,11.9614729 32.0443566,11.7119992 31.9890011,11.4599074 L31.9890011,11.4599074 Z M22.840386,9.09046844 C23.9463735,10.2989384 25.3912264,11.4916994 26.8420636,12.1178148 L24.1251568,12.7177485 C23.3393334,12.8916694 21.9984591,12.1428743 20.8618016,10.9003682 C19.7243961,9.65711407 19.0990288,8.25377784 19.341022,7.48777769 C19.3436402,7.47954917 19.3417701,7.47132065 19.3436402,7.46309214 L20.1795827,4.83408086 C20.6740418,6.33503722 21.7343985,7.88125042 22.840386,9.09046844 L22.840386,9.09046844 Z M15.3311159,16.9991956 C15.285111,16.9292532 15.2402282,16.8637991 15.1987116,16.8065735 C14.9488639,16.4658381 14.6227154,16.1288429 14.267393,15.8520655 L15.8038816,15.5128262 L15.3311159,16.9991956 L15.3311159,16.9991956 Z M14.552399,13.4201646 L15.6288386,14.5942244 L14.0732748,14.937578 C14.2281206,14.6331229 14.3264888,14.3526053 14.3743638,14.2011257 C14.4222388,14.0485241 14.5037759,13.760526 14.552399,13.4201646 L14.552399,13.4201646 Z M15.2439684,12.7914311 C15.7126199,12.7656235 16.2691669,12.6556606 16.7752207,12.456306 L16.3017069,13.9452936 L15.2439684,12.7914311 L15.2439684,12.7914311 Z M17.6736252,12.7170004 C17.7274846,12.8011557 17.7805959,12.8800747 17.829219,12.9462768 C18.0794407,13.2877603 18.4059632,13.6247555 18.7616596,13.9022809 L17.1862725,14.2501228 L17.6736252,12.7170004 L17.6736252,12.7170004 Z M20.2704704,13.569026 L20.2704704,13.569026 C20.248403,13.5738883 20.2244655,13.5761324 20.1982839,13.5761324 C19.7786295,13.5761324 19.0694809,13.0566138 18.5843724,12.3934701 C18.2013724,11.8705852 18.0910354,11.4438244 18.1512532,11.2526984 C18.1591077,11.2287609 18.1591077,11.2048234 18.1624739,11.1808859 L18.7291195,9.39791577 C19.0735952,10.1665341 19.6133111,10.9198174 20.1724763,11.5313459 C20.7290233,12.1398821 21.4276992,12.7409379 22.1592892,13.1519898 L20.2704704,13.569026 L20.2704704,13.569026 Z M14.66498,6.50596597 C16.2672968,6.15213972 18.0218411,5.49311029 19.2897808,4.54720483 L17.2221788,11.0499776 C16.9929024,11.4281154 15.9931375,11.8638528 15.0322711,11.8638528 C14.5643677,11.8638528 14.2958188,11.7542639 14.1985727,11.6506594 L12.88201,10.2151571 C14.0179194,10.3340966 15.3531833,10.1377343 16.5021835,9.73865119 C16.7460469,9.65374785 16.875085,9.38781714 16.7905557,9.14357978 C16.7056523,8.89971645 16.4397216,8.76955627 16.1954843,8.85520765 C14.2898345,9.51685525 12.1971729,9.46299586 11.5295409,8.73477208 C11.5291669,8.73477208 11.5287929,8.73439806 11.5284189,8.73402403 C11.5246786,8.72990978 11.5194423,8.72841368 11.5157021,8.72467345 L9.63511184,6.6735285 C11.1858133,7.0011731 13.0596711,6.86016623 14.66498,6.50596597 L14.66498,6.50596597 Z M11.7879912,13.3831363 C12.0363428,12.5969389 12.2076456,11.691428 12.198295,10.8524932 L13.4998968,12.2722865 C13.5013929,12.2741566 13.5021409,12.2771488 13.5040111,12.2790189 C13.6831683,12.4746332 13.7366537,13.1160835 13.4826917,13.918738 C13.2287298,14.7210184 12.8169299,15.2147294 12.5577316,15.271955 C12.5573575,15.271955 12.5573575,15.2723291 12.5569835,15.2723291 L10.6681648,15.6893653 C11.1585096,15.0086425 11.5392655,14.1697078 11.7879912,13.3831363 L11.7879912,13.3831363 Z M12.8565764,18.2226265 C12.3004034,17.6140903 11.6021015,17.0137825 10.8708855,16.6023567 L12.7608263,16.1853205 C12.7817717,16.1804582 12.8057092,16.17784 12.8315168,16.17784 C13.2500491,16.17784 13.9588236,16.6969846 14.4443062,17.3593803 C14.7626002,17.7936216 14.8908902,18.1597906 14.8916383,18.3815865 L14.2789878,20.3081817 C13.9337641,19.5563944 13.4041468,18.8210642 12.8565764,18.2226265 L12.8565764,18.2226265 Z M18.4392513,16.9827386 C18.3004886,16.9644114 18.1523753,16.9554349 17.9967815,16.9554349 C17.480255,16.9554349 16.8062647,17.0721302 16.2123153,17.3133754 L16.8586279,15.2798095 L18.9557778,14.8167684 C18.8009321,15.1219716 18.7021898,15.4032373 18.6539408,15.5554649 C18.577266,15.7982061 18.4164359,16.3880412 18.4392513,16.9827386 L18.4392513,16.9827386 Z M21.2410615,16.3719582 C20.99458,17.1521712 20.8236512,18.0498277 20.8300096,18.8831521 L19.5306519,17.466351 C19.5224234,17.4577485 19.5112027,17.4540082 19.5026002,17.4457797 C19.5011041,17.4442836 19.499982,17.4427875 19.4984859,17.4412914 C19.341022,17.2135111 19.3054898,16.5974944 19.5459869,15.8367306 C19.7999489,15.0340761 20.2117487,14.539617 20.4713211,14.4820174 L22.3608879,14.0646071 C21.870543,14.745704 21.4897871,15.5853868 21.2410615,16.3719582 L21.2410615,16.3719582 Z" id="Shape" fill="#000000"></path>
    </g>
</svg>