<?xml version="1.0" encoding="UTF-8" standalone="no"?>
<svg width="32px" height="32px" viewBox="0 0 32 32" version="1.1" xmlns="http://www.w3.org/2000/svg" xmlns:xlink="http://www.w3.org/1999/xlink">
    <!-- Generator: Sketch 40.3 (33839) - http://www.bohemiancoding.com/sketch -->
    <title>Slice 1</title>
    <desc>Created with Sketch.</desc>
    <defs></defs>
    <g id="Page-1" stroke="none" stroke-width="1" fill="none" fill-rule="evenodd">
        <g id="Group" transform="translate(3.000000, 0.000000)" fill="#000000">
            <path d="M14.3875969,6.52307692 C15.379845,6.52307692 16.248062,5.72307692 16.248062,4.67692308 C16.248062,3.69230769 15.4418605,2.83076923 14.3875969,2.83076923 C13.3953488,2.83076923 12.5271318,3.63076923 12.5271318,4.67692308 C12.5271318,5.72307692 13.3953488,6.52307692 14.3875969,6.52307692 L14.3875969,6.52307692 L14.3875969,6.52307692 Z M14.3875969,3.87692308 C14.8217054,3.87692308 15.1937984,4.24615385 15.1937984,4.67692308 C15.1937984,5.10769231 14.8217054,5.47692308 14.3875969,5.47692308 C13.9534884,5.47692308 13.5813953,5.10769231 13.5813953,4.67692308 C13.5193798,4.24615385 13.8914729,3.87692308 14.3875969,3.87692308 L14.3875969,3.87692308 L14.3875969,3.87692308 Z" id="Shape"></path>
            <path d="M17.9844961,1.78461538 C17.9844961,2.76923077 18.7906977,3.56923077 19.7829457,3.56923077 C20.7751938,3.56923077 21.5813953,2.76923077 21.5813953,1.78461538 C21.5813953,0.8 20.7751938,0 19.7829457,0 C18.7906977,0 17.9844961,0.861538462 17.9844961,1.78461538 L17.9844961,1.78461538 L17.9844961,1.78461538 Z M20.5891473,1.78461538 C20.5891473,2.21538462 20.2170543,2.58461538 19.7829457,2.58461538 C19.3488372,2.58461538 18.9767442,2.21538462 18.9767442,1.78461538 C18.9767442,1.35384615 19.3488372,0.984615385 19.7829457,0.984615385 C20.2170543,0.984615385 20.5891473,1.35384615 20.5891473,1.78461538 L20.5891473,1.78461538 L20.5891473,1.78461538 Z" id="Shape"></path>
            <path d="M6.07751938,27.0153846 C5.95348837,27.0153846 5.82945736,26.9538462 5.76744186,26.8923077 C5.70542636,26.8307692 4.58914729,25.9076923 3.72093023,24.2461538 C3.59689922,24 3.65891473,23.6923077 3.96899225,23.5692308 C4.21705426,23.4461538 4.52713178,23.5076923 4.65116279,23.8153846 C5.39534884,25.2307692 6.4496124,26.1538462 6.4496124,26.1538462 C6.69767442,26.3384615 6.69767442,26.6461538 6.51162791,26.8923077 C6.3875969,26.9538462 6.26356589,27.0153846 6.07751938,27.0153846 L6.07751938,27.0153846 Z" id="Shape"></path>
            <path d="M7.87596899,28.0615385 C7.81395349,28.0615385 7.68992248,28.0615385 7.62790698,28 L7.25581395,27.7538462 C7.00775194,27.6307692 6.88372093,27.2615385 7.06976744,27.0153846 C7.19379845,26.7692308 7.50387597,26.6461538 7.81395349,26.8307692 L8.18604651,27.0769231 C8.43410853,27.2 8.55813953,27.5692308 8.37209302,27.8153846 C8.24806202,28 8.0620155,28.0615385 7.87596899,28.0615385 L7.87596899,28.0615385 Z" id="Shape"></path>
            <path d="M26.4186047,18.6461538 C26.4186047,16.4307692 25.8604651,14.2769231 24.8062016,12.3692308 L24.9302326,12.3692308 C25.5503876,12.3692308 26.0465116,11.8769231 26.0465116,11.2615385 L26.0465116,9.84615385 C26.0465116,9.23076923 25.5503876,8.73846154 24.9302326,8.73846154 L21.0232558,8.73846154 C21.0852713,8.12307692 21.0852713,7.44615385 20.4031008,6.70769231 C19.9069767,6.09230769 19.2868217,5.72307692 18.2945736,5.72307692 C17.0542636,5.72307692 16.0620155,6.52307692 15.751938,7.63076923 C15.4418605,7.44615385 15.1317829,7.26153846 14.6356589,7.26153846 C13.7674419,7.26153846 13.0232558,7.87692308 12.7131783,8.73846154 L9.30232558,8.73846154 L2.60465116,2.33846154 C2.35658915,2.09230769 1.98449612,1.90769231 1.6124031,1.90769231 C1.24031008,1.90769231 0.868217054,2.09230769 0.558139535,2.33846154 L0.558139535,2.33846154 C-1.74582571e-14,2.89230769 -1.74582571e-14,3.81538462 0.620155039,4.36923077 L5.14728682,8.73846154 L1.5503876,8.73846154 C0.930232558,8.73846154 0.434108527,9.23076923 0.434108527,9.84615385 L0.434108527,11.2615385 C0.434108527,11.8769231 0.930232558,12.3692308 1.5503876,12.3692308 L1.6744186,12.3692308 C0.620155039,14.2769231 0.0620155039,16.4307692 0.0620155039,18.6461538 C0.0620155039,20.4923077 0.434108527,22.2769231 1.17829457,23.9384615 C1.86046512,25.4769231 2.85271318,26.8307692 4.03100775,28 L3.84496124,31.0153846 C3.78294574,31.6307692 4.46511628,32.0615385 5.02325581,31.7538462 L7.50387597,30.4615385 C9.30232558,31.3230769 11.1627907,31.6923077 13.1472868,31.6923077 C15.1317829,31.6923077 16.9922481,31.2615385 18.7906977,30.4615385 L21.2713178,31.7538462 C21.8294574,32.0615385 22.5116279,31.6307692 22.4496124,31.0153846 L22.2635659,28.0615385 C23.503876,26.8923077 24.496124,25.5384615 25.1782946,23.9384615 C26.0465116,22.3384615 26.4186047,20.4923077 26.4186047,18.6461538 L26.4186047,18.6461538 Z M18.2945736,6.83076923 C19.1627907,6.83076923 19.9069767,7.56923077 19.9069767,8.43076923 C19.9069767,8.55384615 19.9069767,8.67692308 19.8449612,8.73846154 L16.744186,8.73846154 C16.744186,8.61538462 16.6821705,8.49230769 16.6821705,8.43076923 C16.6821705,7.56923077 17.4263566,6.83076923 18.2945736,6.83076923 L18.2945736,6.83076923 Z M14.6356589,8.24615385 C15.0697674,8.24615385 15.379845,8.49230769 15.627907,8.8 L13.6434109,8.8 C13.8914729,8.43076923 14.2015504,8.24615385 14.6356589,8.24615385 L14.6356589,8.24615385 Z M1.36434109,3.56923077 C1.24031008,3.44615385 1.24031008,3.26153846 1.36434109,3.13846154 L1.36434109,3.13846154 C1.42635659,3.07692308 1.48837209,3.01538462 1.6124031,3.01538462 C1.6744186,3.01538462 1.79844961,3.01538462 1.86046512,3.07692308 L7.68992248,8.73846154 L6.75968992,8.73846154 L1.36434109,3.56923077 L1.36434109,3.56923077 Z M1.5503876,11.2615385 L1.5503876,9.90769231 L24.8682171,9.90769231 L24.8682171,11.2615385 L1.5503876,11.2615385 L1.5503876,11.2615385 Z M10.6666667,16.3076923 L10.4186047,16.3076923 C9.92248062,16.3076923 9.5503876,16.6769231 9.5503876,17.1692308 C8.24806202,16.8615385 7.06976744,16.4307692 6.07751938,15.8153846 C4.46511628,14.8307692 3.53488372,13.6615385 3.28682171,12.3692308 L23.255814,12.3692308 C23.0697674,13.6615385 22.0775194,14.8923077 20.4651163,15.8153846 C19.6589147,16.3076923 18.7286822,16.6769231 17.7364341,16.9846154 C17.4883721,17.0461538 17.2403101,17.1076923 16.9922481,17.1692308 C16.9922481,16.6769231 16.620155,16.3076923 16.124031,16.3076923 L10.6666667,16.3076923 L10.6666667,16.3076923 Z M15.875969,17.4153846 L15.875969,18.8923077 L10.6666667,18.8923077 L10.6666667,17.4153846 L15.875969,17.4153846 L15.875969,17.4153846 Z M21.4573643,27.4461538 L21.2713178,27.6307692 L21.3953488,30.5230769 L18.9147287,29.2307692 L18.6046512,29.3538462 C16.9302326,30.2153846 15.1317829,30.5846154 13.2093023,30.5846154 C11.2868217,30.5846154 9.48837209,30.1538462 7.81395349,29.2923077 L7.56589147,29.1692308 L5.02325581,30.4615385 L5.20930233,27.5076923 L5.02325581,27.3230769 C3.84496124,26.2153846 2.85271318,24.9230769 2.23255814,23.4461538 C1.5503876,21.9076923 1.17829457,20.3076923 1.17829457,18.5846154 C1.17829457,16.7384615 1.6124031,14.9538462 2.41860465,13.3538462 C2.91472868,14.6461538 3.96899225,15.8153846 5.51937984,16.7384615 C6.69767442,17.4153846 8.0620155,17.9692308 9.5503876,18.2769231 L9.5503876,19.0769231 C9.5503876,19.5692308 9.92248062,19.9384615 10.4186047,19.9384615 L16.124031,19.9384615 C16.620155,19.9384615 16.9922481,19.5692308 16.9922481,19.0769231 L16.9922481,18.2769231 C17.1162791,18.2153846 17.3023256,18.2153846 17.4263566,18.1538462 C17.8604651,18.0307692 18.2325581,17.9076923 18.6666667,17.7846154 C19.5348837,17.4769231 20.3410853,17.1076923 21.0232558,16.6769231 C22.5736434,15.7538462 23.627907,14.5846154 24.124031,13.2923077 C24.9302326,14.8923077 25.3643411,16.6769231 25.3643411,18.5230769 C25.3643411,20.2461538 24.9922481,21.8461538 24.3100775,23.3846154 C23.5658915,25.0461538 22.6356589,26.3384615 21.4573643,27.4461538 L21.4573643,27.4461538 Z" id="Shape"></path>
        </g>
    </g>
</svg>