<?xml version="1.0" encoding="UTF-8" standalone="no"?>
<svg width="32px" height="32px" viewBox="0 0 32 32" version="1.1" xmlns="http://www.w3.org/2000/svg" xmlns:xlink="http://www.w3.org/1999/xlink">
    <!-- Generator: Sketch 40.3 (33839) - http://www.bohemiancoding.com/sketch -->
    <title>Slice 1</title>
    <desc>Created with Sketch.</desc>
    <defs></defs>
    <g id="Page-1" stroke="none" stroke-width="1" fill="none" fill-rule="evenodd">
        <g id="Group" transform="translate(7.000000, 0.000000)" fill="#000000">
            <g id="Shape">
                <path d="M8.34782609,19.8518519 C7.21490683,19.8518519 6.26086957,20.2666667 5.60496894,21.0962963 C4.77018634,22.0444444 4.41242236,23.4666667 4.59130435,25.0074074 C4.59130435,25.2444444 4.82981366,25.4814815 5.06832298,25.4814815 L6.26086957,25.4814815 L6.49937888,26.7259259 C6.55900621,26.962963 6.7378882,27.1407407 6.97639752,27.1407407 L9.77888199,27.1407407 C10.0173913,27.1407407 10.1962733,26.962963 10.2559006,26.7259259 L10.4944099,25.4814815 L11.6869565,25.4814815 C11.9254658,25.4814815 12.1639752,25.3037037 12.1639752,25.0074074 C12.3428571,23.4666667 11.9850932,22.0444444 11.1503106,21.0962963 C10.4347826,20.2666667 9.48074534,19.8518519 8.34782609,19.8518519 L8.34782609,19.8518519 L8.34782609,19.8518519 Z M11.1503106,24.4740741 L10.0173913,24.4740741 C9.77888199,24.4740741 9.6,24.6518519 9.54037267,24.8888889 L9.36149068,26.0740741 L7.39378882,26.0740741 L7.09565217,24.8888889 C7.03602484,24.6518519 6.85714286,24.4740741 6.61863354,24.4740741 L5.48571429,24.4740741 C5.42608696,23.4074074 5.7242236,22.4592593 6.26086957,21.8074074 C6.7378882,21.2148148 7.45341615,20.9185185 8.28819876,20.9185185 C9.12298137,20.9185185 9.83850932,21.2148148 10.315528,21.8074074 C10.9118012,22.4 11.2099379,23.4074074 11.1503106,24.4740741 L11.1503106,24.4740741 L11.1503106,24.4740741 Z"></path>
                <path d="M11.9850932,10.4296296 L11.9850932,7.7037037 C12.1639752,7.52592593 12.2832298,7.28888889 12.2832298,7.05185185 L12.2832298,5.45185185 C12.2832298,4.97777778 11.9254658,4.62222222 11.5080745,4.62222222 L11.3888199,4.62222222 L11.6273292,0.711111111 C11.6273292,0.592592593 11.5677019,0.414814815 11.5080745,0.355555556 C11.3888199,0.237037037 11.2695652,0.177777778 11.1503106,0.177777778 L5.60496894,0.177777778 C5.48571429,0.177777778 5.36645963,0.237037037 5.24720497,0.355555556 C5.12795031,0.474074074 5.12795031,0.592592593 5.12795031,0.711111111 L5.36645963,4.62222222 L5.24720497,4.62222222 C4.82981366,4.62222222 4.47204969,4.97777778 4.47204969,5.45185185 L4.47204969,7.05185185 C4.47204969,7.34814815 4.59130435,7.58518519 4.77018634,7.7037037 L4.77018634,10.4296296 C1.90807453,11.9111111 0.119254658,14.9333333 0.119254658,18.3111111 L0.119254658,31.4074074 C0.119254658,31.7037037 0.357763975,31.9407407 0.596273292,31.9407407 L16.2186335,31.9407407 C16.4571429,31.9407407 16.6956522,31.7037037 16.6956522,31.4074074 L16.6956522,18.3111111 C16.6360248,14.9333333 14.7875776,11.8518519 11.9850932,10.4296296 L11.9850932,10.4296296 L11.9850932,10.4296296 Z M6.08198758,1.12592593 L10.5540373,1.12592593 L10.3751553,4.56296296 L6.26086957,4.56296296 L6.08198758,1.12592593 L6.08198758,1.12592593 Z M5.36645963,6.81481481 L5.36645963,5.57037037 L11.3291925,5.57037037 L11.3291925,6.81481481 L5.36645963,6.81481481 L5.36645963,6.81481481 Z M15.6819876,18.7851852 L15.6819876,28.1481481 L1.0136646,28.1481481 L1.0136646,18.7851852 L15.6819876,18.7851852 L15.6819876,18.7851852 Z M1.07329193,17.7777778 C1.25217391,14.9333333 2.92173913,12.3851852 5.42608696,11.2 L5.42608696,11.2 C5.60496894,11.1407407 5.7242236,10.962963 5.7242236,10.7259259 L5.7242236,7.82222222 L11.0310559,7.82222222 L11.0310559,10.7259259 C11.0310559,10.9037037 11.1503106,11.1407407 11.3291925,11.2 C13.8335404,12.3851852 15.5031056,14.9333333 15.6819876,17.7777778 L1.07329193,17.7777778 L1.07329193,17.7777778 Z M1.0136646,30.8740741 L1.0136646,29.1555556 L15.6223602,29.1555556 L15.6223602,30.8740741 L1.0136646,30.8740741 L1.0136646,30.8740741 Z"></path>
            </g>
            <path d="M7.57267081,22.162963 C7.27453416,22.162963 7.03602484,22.4 7.03602484,22.637037 L7.03602484,23.2888889 C7.03602484,23.5851852 7.27453416,23.762963 7.57267081,23.762963 C7.87080745,23.762963 8.10931677,23.5259259 8.10931677,23.2888889 L8.10931677,22.637037 C8.04968944,22.4 7.81118012,22.162963 7.57267081,22.162963 L7.57267081,22.162963 L7.57267081,22.162963 Z" id="Shape"></path>
            <path d="M9.12298137,22.162963 C8.82484472,22.162963 8.5863354,22.4 8.5863354,22.637037 L8.5863354,23.2888889 C8.5863354,23.5851852 8.82484472,23.762963 9.12298137,23.762963 C9.42111801,23.762963 9.65962733,23.5259259 9.65962733,23.2888889 L9.65962733,22.637037 C9.65962733,22.4 9.42111801,22.162963 9.12298137,22.162963 L9.12298137,22.162963 L9.12298137,22.162963 Z" id="Shape"></path>
            <path d="M13.0583851,14.8148148 C12.8795031,14.8148148 12.7602484,14.7555556 12.6409938,14.637037 C12.6409938,14.637037 11.8658385,13.6296296 10.4944099,12.8 C10.2559006,12.6814815 10.1962733,12.3259259 10.315528,12.0888889 C10.4347826,11.8518519 10.7925466,11.7925926 11.0310559,11.9111111 C12.5813665,12.8 13.4161491,13.9851852 13.4757764,13.9851852 C13.6546584,14.2222222 13.5950311,14.5185185 13.3565217,14.6962963 C13.2372671,14.7555556 13.1180124,14.8148148 13.0583851,14.8148148 L13.0583851,14.8148148 Z" id="Shape"></path>
            <path d="M13.952795,16.5333333 C13.773913,16.5333333 13.5950311,16.4148148 13.4757764,16.237037 L13.2968944,15.8814815 C13.1776398,15.6444444 13.2968944,15.3481481 13.5354037,15.2296296 C13.773913,15.1111111 14.0720497,15.2296296 14.1913043,15.4666667 L14.3701863,15.8222222 C14.489441,16.0592593 14.3701863,16.3555556 14.131677,16.4740741 C14.131677,16.5333333 14.0124224,16.5333333 13.952795,16.5333333 L13.952795,16.5333333 Z" id="Shape"></path>
        </g>
    </g>
</svg>