<?xml version="1.0" encoding="UTF-8" standalone="no"?>
<svg width="32px" height="32px" viewBox="0 0 32 32" version="1.1" xmlns="http://www.w3.org/2000/svg" xmlns:xlink="http://www.w3.org/1999/xlink">
    <!-- Generator: Sketch 40.3 (33839) - http://www.bohemiancoding.com/sketch -->
    <title>Slice 1</title>
    <desc>Created with Sketch.</desc>
    <defs></defs>
    <g id="Page-1" stroke="none" stroke-width="1" fill="none" fill-rule="evenodd">
        <g id="Group-5" fill="#000000">
            <path d="M19.5664176,6.89138019 C19.2242637,5.65273687 18.292044,4.65606271 17.0514286,4.24798119 C16.8203956,4.17177319 16.5721319,4.29749882 16.4961758,4.52752757 C16.4202198,4.7579075 16.5457582,5.00584688 16.7760879,5.08205487 C17.6559121,5.37143454 18.3395165,6.041503 18.6507253,6.88892187 L15.3635165,6.88892187 C14.6707692,6.54019127 14.3694066,5.86169428 14.2431648,5.40093441 C14.5167473,5.22779828 14.8181099,5.09329292 15.1444396,5.01497779 C15.1511209,5.01357303 15.156044,5.0083052 15.1623736,5.00654926 C15.2014066,4.99531121 15.2365714,4.97740057 15.2706813,4.95632924 C15.282989,4.94895427 15.2970549,4.94438882 15.3083077,4.93560909 C15.3501538,4.9036509 15.3870769,4.86466893 15.4155604,4.81901437 C15.4197802,4.81199059 15.4208352,4.80356206 15.4247033,4.79653828 C15.4443956,4.76001463 15.4626813,4.72278861 15.4718242,4.67994356 C15.9314286,2.53804233 17.8567033,0.983328978 20.0495824,0.983328978 C20.2922198,0.983328978 20.4891429,0.786663183 20.4891429,0.544342827 C20.4891429,0.302022472 20.2922198,0.105356676 20.0495824,0.105356676 C17.5363516,0.105356676 15.3237802,1.82688477 14.680967,4.23288006 C13.4255824,4.62656284 12.4606593,5.62990959 12.1132308,6.89138019 C11.258022,6.89875516 10.4073846,6.99603449 9.5781978,7.17900392 C8.77116484,6.63325634 7.79850549,6.31402561 6.75235165,6.31402561 C3.96589011,6.31402561 1.69916484,8.57778939 1.69916484,11.3606104 C1.69916484,11.8013525 1.76175824,12.2266423 1.86865934,12.6343726 C0.665318681,14.5623998 0.0253186813,16.7798066 0.0253186813,19.0646418 C0.0253186813,19.3069621 0.222241758,19.5036279 0.464879121,19.5036279 C0.707516484,19.5036279 0.90443956,19.3069621 0.90443956,19.0646418 C0.90443956,17.1717335 1.3752967,15.3279916 2.27024176,13.681618 C2.49389011,14.1107708 2.77767033,14.5034001 3.11032967,14.8496723 L0.939956044,20.7981103 C0.881934066,20.9564965 0.920263736,21.1341981 1.03841758,21.2550071 C1.15621978,21.375816 1.33345055,21.4179587 1.49345055,21.364578 L3.43876923,20.7096107 L4.57002198,22.4894361 C4.6509011,22.6172689 4.79156044,22.6931257 4.94101099,22.6931257 C4.95683516,22.6931257 4.97265934,22.6924233 4.98848352,22.6906674 C5.15516484,22.6727567 5.29652747,22.561781 5.3541978,22.4047996 L6.0363956,20.5357721 L6.61907692,23.2729386 C6.65424176,23.4379974 6.78083516,23.5682885 6.94505495,23.608324 C6.97951648,23.6164014 7.01432967,23.6206156 7.04879121,23.6206156 C7.1789011,23.6206156 7.30408791,23.5630206 7.38883516,23.4597711 L8.88334066,21.6388565 L11.0691868,22.6832924 C11.2203956,22.7552861 11.3993846,22.7359707 11.5309011,22.6320188 C11.6624176,22.5287693 11.7236044,22.3594962 11.6887912,22.1958422 L10.1710769,15.0663559 C11.1732747,14.1437826 11.8055385,12.826473 11.8055385,11.3609616 C11.8055385,10.6227625 11.6423736,9.92319415 11.3557802,9.2907029 C12.2918681,8.65224144 13.3088352,8.20763627 14.3683516,7.97128612 C12.8351648,9.9976462 12.0235604,14.5543224 12.0235604,18.9076603 C12.0235604,19.3002895 12.0295385,19.6883533 12.0418462,20.070798 C12.0495824,20.3082017 12.2447473,20.4957366 12.4810549,20.4957366 L12.4954725,20.4957366 C12.7381099,20.4880105 12.9283516,20.2850233 12.9206154,20.0427029 C12.9086593,19.6693891 12.9026813,19.2904562 12.9026813,18.9076603 C12.9026813,12.3421834 14.624,7.76689417 16.1691429,7.76689417 L16.1691429,7.76689417 C17.076044,7.76689417 18.0346374,9.35672642 18.6707692,11.9154889 C18.7294945,12.1504343 18.9668571,12.2933682 19.2035165,12.2357732 C19.4391209,12.1771246 19.5825934,11.9390186 19.5242198,11.703722 C19.109978,10.0380329 18.5744176,8.77831826 17.9527033,7.96426235 C22.3715165,8.94162111 25.7241319,13.4754701 25.7241319,18.9076603 C25.7241319,19.765966 25.6400879,20.6204087 25.4748132,21.4474586 C25.426989,21.6852135 25.5817143,21.9162958 25.8194286,21.9640575 C25.8486154,21.9700277 25.8774505,21.972486 25.9062857,21.972486 C26.1112967,21.972486 26.2948571,21.8281474 26.3367033,21.6195412 C26.5135824,20.736301 26.6032527,19.8239122 26.6032527,18.9076603 C26.6032527,13.8912778 23.9205275,9.58535041 20.1216703,7.78691194 C26.0564396,8.12651163 30.7811868,13.0547458 30.7811868,19.0653441 C30.7811868,23.8243052 27.8181978,27.9030133 23.6385055,29.5648393 C22.8254945,29.5532501 21.9407473,29.4278756 21.3601758,29.3277868 C23.2566154,28.0747447 24.8066813,26.1460152 25.7237802,23.7456389 C25.8102857,23.519122 25.6967033,23.2652124 25.4698901,23.17882 C25.2427253,23.0927787 24.9891868,23.2058615 24.9023297,23.4323784 C23.6163516,26.798173 21.0018462,29.1592161 17.9716923,29.8405226 C19.5034725,27.8127578 20.3143736,23.2585398 20.3143736,18.9076603 C20.3143736,17.2454831 20.205011,15.6380915 19.9898022,14.1311398 C19.9553407,13.8912778 19.7345055,13.7241118 19.4925714,13.7585284 C19.2523956,13.7925937 19.0853626,14.0148963 19.1194725,14.2551095 C19.3287033,15.7213232 19.4349011,17.2865722 19.4349011,18.9076603 C19.4349011,25.4446909 17.7283516,30.0073373 16.1884835,30.0463193 C16.1723077,30.0463193 16.1564835,30.0449146 16.139956,30.0445634 C15.1732747,30.0062838 13.8591648,27.9915129 13.2251429,23.6114847 C13.1903297,23.3712715 12.965978,23.2044568 12.7272088,23.2395756 C12.4866813,23.2743433 12.3203516,23.4969971 12.3548132,23.7368592 C12.762022,26.5495312 13.4712967,28.6538552 14.3697582,29.8370107 C11.7643956,29.2410431 9.48641758,27.4071346 8.06575824,24.6826109 C7.95358242,24.4673321 7.68808791,24.3841003 7.47287912,24.4957784 C7.25767033,24.6078077 7.17362637,24.8729553 7.2858022,25.0878829 C8.62628571,27.658937 10.6806154,29.4970598 13.067956,30.3637941 L12.2166154,30.3637941 C7.22918681,30.3637941 2.76536264,27.0296065 1.36052747,22.2562467 C1.29301099,22.0234084 1.04791209,21.8896054 0.815824176,21.9587897 C0.583032967,22.0269203 0.449406593,22.2709966 0.517978022,22.5038349 C2.03147253,27.6487525 6.84237363,31.2417664 12.2173187,31.2417664 L19.4672527,31.2417664 C26.1904176,31.2417664 31.659956,25.7793739 31.659956,19.0653441 C31.659956,12.3843261 26.2438681,6.94476091 19.5664176,6.89138019 L19.5664176,6.89138019 Z M4.83375824,21.2662451 L3.99613187,19.9485843 C3.88782418,19.7779065 3.67648352,19.7031032 3.48448352,19.767722 L2.07859341,20.2407735 L3.63920879,15.964346 C4.15718681,16.5497779 5.12175824,17.7613797 5.61265934,19.1317188 L4.83375824,21.2662451 L4.83375824,21.2662451 Z M10.6433407,21.5064583 L8.95156044,20.6980214 C8.76835165,20.6102242 8.54997802,20.6593906 8.42197802,20.8156697 L7.28861538,22.1965446 L6.04413187,16.3517073 C6.27621978,16.3843679 6.51147253,16.4071952 6.75235165,16.4071952 C7.72254945,16.4071952 8.62663736,16.128 9.3970989,15.6524902 L10.6433407,21.5064583 L10.6433407,21.5064583 Z M6.75235165,15.5295741 C4.45081319,15.5295741 2.57828571,13.6594931 2.57828571,11.3609616 C2.57828571,9.0624301 4.45081319,7.1923491 6.75235165,7.1923491 C9.05389011,7.1923491 10.9264176,9.0624301 10.9264176,11.3609616 C10.9264176,13.6598443 9.05389011,15.5295741 6.75235165,15.5295741 L6.75235165,15.5295741 Z M10.4302418,7.91123282 C11.0196044,7.81781657 11.6174066,7.76654298 12.2176703,7.76654298 L12.263033,7.76654298 C11.8034286,7.98006585 11.3571868,8.23221949 10.9260659,8.52124797 C10.7776703,8.30421322 10.6099341,8.1019284 10.4302418,7.91123282 L10.4302418,7.91123282 Z" id="Shape"></path>
            <path d="M6.75235165,8.90966292 C5.39885714,8.90966292 4.29784615,10.0092354 4.29784615,11.3609616 C4.29784615,12.7126877 5.39885714,13.8122603 6.75235165,13.8122603 C8.10584615,13.8122603 9.20685714,12.7126877 9.20685714,11.3609616 C9.20685714,10.0092354 8.10584615,8.90966292 6.75235165,8.90966292 L6.75235165,8.90966292 Z M6.75235165,12.934288 C5.88378022,12.934288 5.17696703,12.2283982 5.17696703,11.3609616 C5.17696703,10.493525 5.88378022,9.78763522 6.75235165,9.78763522 C7.62092308,9.78763522 8.32773626,10.493525 8.32773626,11.3609616 C8.32773626,12.2283982 7.62092308,12.934288 6.75235165,12.934288 L6.75235165,12.934288 Z" id="Shape"></path>
        </g>
    </g>
</svg>