<?xml version="1.0" encoding="UTF-8" standalone="no"?>
<svg width="32px" height="32px" viewBox="0 0 32 32" version="1.1" xmlns="http://www.w3.org/2000/svg" xmlns:xlink="http://www.w3.org/1999/xlink">
    <!-- Generator: Sketch 40.3 (33839) - http://www.bohemiancoding.com/sketch -->
    <title>Slice 1</title>
    <desc>Created with Sketch.</desc>
    <defs></defs>
    <g id="Page-1" stroke="none" stroke-width="1" fill="none" fill-rule="evenodd">
        <path d="M17.565871,0.00163566024 C17.7960618,0.0197701308 18.0178389,0.096244986 18.2102825,0.223846524 L24.1544231,4.14586826 C24.5345543,4.3976285 24.7631444,4.82320183 24.7631444,5.27914367 C24.7631444,5.73508551 24.5345543,6.16065884 24.1544231,6.41241907 L18.2102825,10.3233303 C17.7929125,10.6003633 17.2569976,10.6253824 16.8156327,10.3884391 C16.3742679,10.1514959 16.0989984,9.6909989 16.0992793,9.19005486 L16.0992793,6.91239351 C10.0418858,6.92907497 5.17761535,11.8059421 5.17761535,17.8673891 C5.17761535,23.9392195 10.0607794,28.8334952 16.1326109,28.8334952 C22.2044431,28.8334952 27.0876065,23.9392195 27.0876065,17.8673891 C27.0876065,17.2997628 27.3904315,16.7752544 27.8820103,16.4914412 C28.3735891,16.2076281 28.9792392,16.2076281 29.470818,16.4914412 C29.9623968,16.7752544 30.2652218,17.2997628 30.2652218,17.8673891 C30.2652218,25.6529079 23.9181312,32 16.1326109,32 C8.34709138,32 2,25.6529079 2,17.8673891 C2,10.0922359 8.32796596,3.7516445 16.0992793,3.73477817 L16.0992793,1.35712193 C16.1012111,0.617933262 16.6934887,0.0157843502 17.4325445,0.00163566024 C17.4769599,-0.000545220081 17.5214556,-0.000545220081 17.565871,0.00163566024 L17.565871,0.00163566024 L17.565871,0.00163566024 Z" id="Shape" fill="#000000"></path>
    </g>
</svg>