<?xml version="1.0" encoding="UTF-8" standalone="no"?>
<svg width="32px" height="32px" viewBox="0 0 32 32" version="1.1" xmlns="http://www.w3.org/2000/svg" xmlns:xlink="http://www.w3.org/1999/xlink">
    <!-- Generator: Sketch 40.3 (33839) - http://www.bohemiancoding.com/sketch -->
    <title>Slice 1</title>
    <desc>Created with Sketch.</desc>
    <defs></defs>
    <g id="Page-1" stroke="none" stroke-width="1" fill="none" fill-rule="evenodd">
        <g id="Group-4" transform="translate(2.000000, 0.000000)" fill="#000000">
            <path d="M25.1076923,4.06153846 C24.9230769,3.81538462 24.6153846,3.75384615 24.3692308,3.87692308 C24.1230769,4 24.0615385,4.36923077 24.1846154,4.55384615 C25.8461538,7.07692308 26.1538462,9.90769231 26.0923077,11.8153846 C26.0307692,13.4153846 25.7846154,14.7076923 25.6615385,15.2 L19.5692308,17.4153846 L22.8923077,14.3384615 C22.9538462,14.2769231 23.0153846,14.1538462 23.0769231,14.0307692 C23.0769231,13.9692308 23.3846154,11.9384615 23.1384615,9.23076923 C22.9538462,6.70769231 22.2769231,3.2 20.1230769,0.430769231 C19.9384615,0.184615385 19.5692308,0.184615385 19.3846154,0.307692308 C19.0769231,0.492307692 19.0769231,0.8 19.2,1.04615385 C22.7692308,5.53846154 22.1538462,12.5538462 22.0307692,13.7230769 L20.5538462,15.0769231 C20.6769231,14.6461538 20.7384615,14.1538462 20.7384615,13.6615385 C20.7384615,10.0923077 17.6,7.13846154 13.7846154,7.13846154 C9.96923077,7.13846154 6.83076923,10.0307692 6.83076923,13.6615385 C6.83076923,14.1538462 6.89230769,14.5846154 7.01538462,15.0769231 L5.53846154,13.7230769 C5.41538462,12.5538462 4.73846154,5.53846154 8.30769231,1.04615385 C8.49230769,0.8 8.43076923,0.492307692 8.18461538,0.307692308 C7.93846154,0.123076923 7.56923077,0.184615385 7.44615385,0.430769231 C5.23076923,3.13846154 4.55384615,6.70769231 4.30769231,9.23076923 C4.12307692,11.9384615 4.36923077,13.9692308 4.36923077,14.0307692 C4.36923077,14.1538462 4.43076923,14.2769231 4.55384615,14.3384615 L7.87692308,17.4153846 L1.84615385,15.2 C1.53846154,14.0307692 0.492307692,8.86153846 3.32307692,4.55384615 C3.50769231,4.30769231 3.38461538,4 3.13846154,3.87692308 C2.89230769,3.75384615 2.52307692,3.81538462 2.4,4.06153846 C0.553846154,6.76923077 0.246153846,9.84615385 0.307692308,11.8769231 C0.369230769,14.0923077 0.861538462,15.6923077 0.861538462,15.7538462 C0.923076923,15.9384615 1.04615385,16.0615385 1.16923077,16.0615385 L10.5230769,19.4461538 C10.2153846,19.8153846 9.96923077,20.1846154 9.78461538,20.6153846 L2.89230769,20.0615385 C2.64615385,20.0615385 2.4,20.1846154 2.33846154,20.4307692 C2.33846154,20.4923077 1.84615385,22.0307692 1.84615385,24.0615385 C1.78461538,26.8307692 2.52307692,29.2307692 3.87692308,31.1384615 C4,31.2615385 4.18461538,31.3846154 4.30769231,31.3846154 C4.43076923,31.3846154 4.55384615,31.3846154 4.61538462,31.2615385 C4.86153846,31.0769231 4.92307692,30.7692308 4.73846154,30.5230769 C2.15384615,27.0769231 2.95384615,22.5230769 3.26153846,21.1076923 L9.53846154,21.6615385 L9.53846154,22.0307692 L9.53846154,22.2153846 L5.47692308,23.0153846 C5.23076923,23.0769231 5.10769231,23.2 5.04615385,23.4461538 C4.98461538,23.6307692 4.18461538,28.7384615 7.56923077,31.8769231 C7.69230769,32 7.81538462,32 7.93846154,32 C8.06153846,32 8.24615385,31.9384615 8.30769231,31.8769231 C8.49230769,31.6923077 8.49230769,31.3230769 8.30769231,31.1384615 C5.78461538,28.8 5.96923077,25.1076923 6.09230769,23.9384615 L9.72307692,23.2 C10.0307692,24.1846154 10.7692308,24.9846154 11.7538462,25.4769231 L11.7538462,27.2 C11.7538462,27.5076923 12,27.6923077 12.3076923,27.6923077 C12.6153846,27.6923077 12.8615385,27.4461538 12.8615385,27.2 L12.8615385,25.8461538 C13.1692308,25.9076923 13.4769231,25.9692308 13.7846154,25.9692308 C14.0923077,25.9692308 14.4,25.9076923 14.7076923,25.8461538 L14.7076923,27.2 C14.7076923,27.5076923 14.9538462,27.6923077 15.2615385,27.6923077 C15.5692308,27.6923077 15.8153846,27.4461538 15.8153846,27.2 L15.8153846,25.4769231 C16.7384615,24.9846154 17.4769231,24.1846154 17.8461538,23.2 L21.4769231,23.9384615 C21.6,25.1076923 21.7230769,28.8 19.2615385,31.1384615 C19.0769231,31.3230769 19.0769231,31.6923077 19.2615385,31.8769231 C19.3846154,32 19.5076923,32 19.6307692,32 C19.7538462,32 19.9384615,31.9384615 20,31.8769231 C23.3846154,28.7384615 22.5230769,23.6307692 22.5230769,23.4461538 C22.4615385,23.2615385 22.3384615,23.0769231 22.0923077,23.0153846 L17.9692308,22.1538462 L17.9692308,21.9692308 L17.9692308,21.6 L24.2461538,21.0461538 C24.5538462,22.4615385 25.3538462,27.0153846 22.7692308,30.4615385 C22.5846154,30.7076923 22.6461538,31.0153846 22.8923077,31.2 C23.0153846,31.2615385 23.0769231,31.3230769 23.2,31.3230769 C23.3846154,31.3230769 23.5692308,31.2615385 23.6307692,31.0769231 C25.0461538,29.2307692 25.7230769,26.7692308 25.6615385,24 C25.6,21.9076923 25.1692308,20.4307692 25.1692308,20.3692308 C25.1076923,20.1230769 24.8615385,20 24.6153846,20 L17.7230769,20.5538462 C17.5384615,20.1230769 17.2923077,19.6923077 16.9846154,19.3846154 L26.3384615,16 C26.5230769,15.9384615 26.6461538,15.8153846 26.6461538,15.6923077 C26.6461538,15.6307692 27.1384615,14.0307692 27.2,11.8153846 C27.2615385,9.78461538 26.8923077,6.76923077 25.1076923,4.06153846 L25.1076923,4.06153846 L25.1076923,4.06153846 Z M13.7230769,24.9230769 C12,24.9230769 10.5846154,23.6307692 10.5846154,22.0307692 C10.5846154,21.7846154 10.5846154,21.5384615 10.6461538,21.3538462 L10.6461538,21.2923077 C10.8307692,20.6769231 11.2,20.1230769 11.7538462,19.7538462 L11.8153846,19.6923077 C12.1230769,19.5076923 12.4307692,19.3846154 12.7384615,19.2615385 C13.0461538,19.2 13.1692308,18.8923077 13.1076923,18.6461538 C13.0461538,18.4 12.7384615,18.2153846 12.4307692,18.2769231 C12.0615385,18.4 11.6923077,18.5230769 11.3846154,18.7076923 C9.23076923,17.8461538 7.81538462,15.8769231 7.81538462,13.6615385 C7.81538462,10.6461538 10.4615385,8.18461538 13.6615385,8.18461538 C16.9230769,8.18461538 19.5076923,10.6461538 19.5076923,13.6615385 C19.5076923,15.8769231 18.0923077,17.8461538 15.9384615,18.7076923 C15.6307692,18.5230769 15.2615385,18.3384615 14.8923077,18.2769231 C14.5846154,18.2153846 14.2769231,18.3384615 14.2153846,18.6461538 C14.1538462,18.8923077 14.2769231,19.2 14.5846154,19.2615385 C14.9538462,19.3846154 15.2615385,19.5076923 15.5076923,19.6923077 L15.5692308,19.7538462 C16.1230769,20.1230769 16.4923077,20.6769231 16.6769231,21.2923077 L16.6769231,21.3538462 C16.7384615,21.6 16.7384615,21.7846154 16.7384615,22.0307692 C16.8615385,23.6307692 15.4461538,24.9230769 13.7230769,24.9230769 L13.7230769,24.9230769 L13.7230769,24.9230769 Z" id="Shape"></path>
            <path d="M11.5692308,12.4307692 C11.2615385,12.4307692 11.0153846,12.6769231 11.0153846,12.9230769 L11.0153846,13.6 C11.0153846,13.9076923 11.2615385,14.0923077 11.5692308,14.0923077 C11.8769231,14.0923077 12.1230769,13.8461538 12.1230769,13.6 L12.1230769,12.9230769 C12.1230769,12.6153846 11.8769231,12.4307692 11.5692308,12.4307692 L11.5692308,12.4307692 L11.5692308,12.4307692 Z" id="Shape"></path>
            <path d="M15.9384615,14.0923077 C16.2461538,14.0923077 16.4923077,13.8461538 16.4923077,13.6 L16.4923077,12.9230769 C16.4923077,12.6153846 16.2461538,12.4307692 15.9384615,12.4307692 C15.6307692,12.4307692 15.3846154,12.6769231 15.3846154,12.9230769 L15.3846154,13.6 C15.3846154,13.9076923 15.6307692,14.0923077 15.9384615,14.0923077 L15.9384615,14.0923077 L15.9384615,14.0923077 Z" id="Shape"></path>
            <path d="M13.7230769,17.2307692 C13.4153846,17.2307692 13.2307692,16.8615385 13.1692308,16.5538462 L13.1692308,13.4153846 C13.1692308,13.1076923 13.4153846,12.8615385 13.6615385,12.8615385 L13.6615385,12.8615385 C13.9692308,12.8615385 14.1538462,13.0461538 14.1538462,13.2923077 L14.1538462,16.4923077 C14.2769231,16.9230769 14.0307692,17.2307692 13.7230769,17.2307692 L13.7230769,17.2307692 L13.7230769,17.2307692 Z" id="Shape"></path>
            <path d="M13.7230769,10.0923077 C13.4153846,10.0923077 13.1692308,10.3384615 13.1692308,10.5846154 L13.1692308,11.2615385 C13.1692308,11.5692308 13.4153846,11.7538462 13.7230769,11.7538462 C14.0307692,11.7538462 14.2769231,11.5076923 14.2769231,11.2615385 L14.2769231,10.5846154 C14.2769231,10.3384615 14.0307692,10.0923077 13.7230769,10.0923077 L13.7230769,10.0923077 L13.7230769,10.0923077 Z" id="Shape"></path>
        </g>
    </g>
</svg>