<?xml version="1.0" encoding="UTF-8" standalone="no"?>
<svg width="32px" height="32px" viewBox="0 0 32 32" version="1.1" xmlns="http://www.w3.org/2000/svg" xmlns:xlink="http://www.w3.org/1999/xlink">
    <!-- Generator: Sketch 40.3 (33839) - http://www.bohemiancoding.com/sketch -->
    <title>Slice 1</title>
    <desc>Created with Sketch.</desc>
    <defs></defs>
    <g id="Page-1" stroke="none" stroke-width="1" fill="none" fill-rule="evenodd">
        <path d="M14.6993508,0.00163566024 C14.46916,0.0197701308 14.2473829,0.096244986 14.0549393,0.223846524 L8.11079875,4.14586826 C7.73066752,4.3976285 7.50207739,4.82320183 7.50207739,5.27914367 C7.50207739,5.73508551 7.73066752,6.16065884 8.11079875,6.41241907 L14.0549393,10.3233303 C14.4723093,10.6003633 15.0082243,10.6253824 15.4495891,10.3884391 C15.8909539,10.1514959 16.1662234,9.6909989 16.1659425,9.19005486 L16.1659425,6.91239351 C22.223336,6.92907497 27.0876065,11.8059421 27.0876065,17.8673891 C27.0876065,23.9392195 22.2044424,28.8334952 16.1326109,28.8334952 C10.0607787,28.8334952 5.17761535,23.9392195 5.17761535,17.8673891 C5.17761536,17.2997628 4.87479033,16.7752544 4.38321152,16.4914412 C3.89163271,16.2076281 3.28598264,16.2076281 2.79440383,16.4914412 C2.30282502,16.7752544 1.99999999,17.2997628 2,17.8673891 C2,25.6529079 8.34709067,32 16.1326109,32 C23.9181305,32 30.2652218,25.6529079 30.2652218,17.8673891 C30.2652218,10.0922359 23.9372559,3.7516445 16.1659425,3.73477817 L16.1659425,1.35712193 C16.1640108,0.617933262 15.5717331,0.0157843502 14.8326774,0.00163566024 C14.7882619,-0.000545220081 14.7437663,-0.000545220081 14.6993508,0.00163566024 L14.6993508,0.00163566024 Z" id="Shape" fill="#000000"></path>
    </g>
</svg>