<?xml version="1.0" encoding="UTF-8" standalone="no"?>
<svg width="32px" height="32px" viewBox="0 0 32 32" version="1.1" xmlns="http://www.w3.org/2000/svg" xmlns:xlink="http://www.w3.org/1999/xlink">
    <!-- Generator: Sketch 40.3 (33839) - http://www.bohemiancoding.com/sketch -->
    <title>Slice 1</title>
    <desc>Created with Sketch.</desc>
    <defs></defs>
    <g id="Page-1" stroke="none" stroke-width="1" fill="none" fill-rule="evenodd">
        <g id="Group" transform="translate(1.000000, 0.000000)" fill="#000000">
            <path d="M16.190901,13.2306173 L15.223372,13.2306173 L15.4871365,13.0488889 C15.6205888,12.9568395 15.7002676,12.8043457 15.7002676,12.6415802 L15.7002676,9.30488889 C15.7002676,9.0322963 15.4804639,8.81106173 15.2096343,8.81106173 C14.9388046,8.81106173 14.7190009,9.0322963 14.7190009,9.30488889 L14.7190009,12.3812346 L13.3621053,13.3171358 C13.1850847,13.4396049 13.1073684,13.664 13.1709545,13.8706173 C13.2345406,14.0772346 13.4245138,14.2182716 13.6396075,14.2182716 L16.190901,14.2182716 C16.4617306,14.2182716 16.6815343,13.997037 16.6815343,13.7244444 C16.6815343,13.4518519 16.4617306,13.2306173 16.190901,13.2306173 L16.190901,13.2306173 Z" id="Shape"></path>
            <path d="M19.2088849,6.90962963 C19.4797145,6.90962963 19.6995183,6.68839506 19.6995183,6.41580247 C19.6995183,6.14320988 19.4797145,5.92197531 19.2088849,5.92197531 C17.5042284,5.92197531 16.1178947,7.31733333 16.1178947,9.03308642 C16.1178947,9.30567901 16.3376985,9.52691358 16.6085281,9.52691358 C16.8793577,9.52691358 17.0991615,9.30567901 17.0991615,9.03308642 C17.0991615,7.86212346 18.0458876,6.90962963 19.2088849,6.90962963 L19.2088849,6.90962963 Z" id="Shape"></path>
            <path d="M13.6647279,9.03308642 C13.6647279,7.31733333 12.2783943,5.92197531 10.5737377,5.92197531 C10.3029081,5.92197531 10.0831044,6.14320988 10.0831044,6.41580247 C10.0831044,6.68839506 10.3029081,6.90962963 10.5737377,6.90962963 C11.7371276,6.90962963 12.6834612,7.86212346 12.6834612,9.03308642 C12.6834612,9.30567901 12.9032649,9.52691358 13.1740946,9.52691358 C13.4449242,9.52691358 13.6647279,9.30607407 13.6647279,9.03308642 L13.6647279,9.03308642 Z" id="Shape"></path>
            <ellipse id="Oval" cx="11.3465834" cy="9.56404938" rx="1.01816236" ry="1.02479012"></ellipse>
            <ellipse id="Oval" cx="18.4364318" cy="9.56404938" rx="1.01816236" ry="1.02479012"></ellipse>
            <path d="M20.0284389,9.67071605 C20.0284389,10.6374321 19.2473506,11.424 18.2864942,11.424 C18.0156646,11.424 17.7958608,11.6452346 17.7958608,11.9178272 C17.7958608,12.1904198 18.0156646,12.4116543 18.2864942,12.4116543 C19.7878323,12.4116543 21.0097056,11.1822222 21.0097056,9.67071605 C21.0097056,9.39812346 20.7899019,9.17688889 20.5190723,9.17688889 C20.2482426,9.17688889 20.0284389,9.39812346 20.0284389,9.67071605 L20.0284389,9.67071605 Z" id="Shape"></path>
            <path d="M11.5436218,11.4243951 C10.5831579,11.4243951 9.80167707,10.6378272 9.80167707,9.67111111 C9.80167707,9.39851852 9.58187333,9.17728395 9.31104371,9.17728395 C9.04021409,9.17728395 8.82041035,9.39851852 8.82041035,9.67111111 C8.82041035,11.1826173 10.0418912,12.4120494 11.5436218,12.4120494 C11.8144514,12.4120494 12.0342551,12.1908148 12.0342551,11.9182222 C12.0342551,11.6456296 11.8148439,11.4243951 11.5436218,11.4243951 L11.5436218,11.4243951 Z" id="Shape"></path>
            <path d="M24.9163247,22.3952593 C27.1339875,20.2330864 29.2707939,18.886321 29.3010169,18.867358 C29.4281891,18.7879506 29.5125781,18.6544198 29.5298483,18.5042963 C29.5471186,18.3545679 29.4957003,18.2048395 29.3897235,18.0985679 C27.9684567,16.6680494 26.3505442,15.4848395 24.581124,14.5714568 C25.4791793,14.5647407 26.1484032,13.7817284 26.222587,13.6920494 C26.2367172,13.6746667 26.2437823,13.6533333 26.255165,13.6343704 C26.2681178,13.612642 26.281463,13.593284 26.2916682,13.5699753 C26.3057984,13.5363951 26.313256,13.5016296 26.3195361,13.465679 C26.3238537,13.4415802 26.3305263,13.4198519 26.3317038,13.394963 C26.3317038,13.388642 26.3348439,13.3831111 26.3348439,13.3767901 L26.3348439,7.99604938 C26.3348439,7.80523457 26.2253345,7.63101235 26.0538091,7.54962963 C25.8818912,7.46745679 25.6797502,7.49274074 25.5325602,7.61441975 L24.0861731,8.81145679 C23.8310437,5.21165432 21.5234969,2.17560494 18.3363426,0.885333333 C18.2990544,0.860444444 18.2598037,0.839111111 18.217413,0.825283951 C18.071008,0.768790123 17.9202855,0.726123457 17.7715254,0.677925926 C17.720107,0.660938272 17.6690812,0.642765432 17.6176628,0.626962963 C17.4952007,0.589432099 17.3735236,0.553481481 17.249884,0.521481481 C17.0646209,0.472493827 16.8773952,0.430222222 16.6874219,0.392691358 C16.6163782,0.378864198 16.5461195,0.366222222 16.4750758,0.35437037 C16.2411418,0.313679012 16.0048528,0.281283951 15.7654237,0.259555556 C15.7469759,0.257580247 15.7285281,0.256790123 15.7096878,0.255209877 C15.4471008,0.232296296 15.1825513,0.218074074 14.9144692,0.218074074 C10.0654416,0.218074074 6.08306869,4.01580247 5.7435504,8.81145679 L4.29716325,7.61441975 C4.14997324,7.49274074 3.94783229,7.46745679 3.77591436,7.54962963 C3.60438894,7.63101235 3.49487957,7.80483951 3.49487957,7.99604938 L3.49487957,13.3771852 C3.49487957,13.4921481 3.53491525,13.6031605 3.60713649,13.6920494 C3.68092774,13.7817284 4.35054416,14.5651358 5.24859946,14.5714568 C3.47957181,15.4848395 1.86165923,16.6680494 0.440392507,18.0985679 C0.334023194,18.2052346 0.282604817,18.3545679 0.300267618,18.5046914 C0.317537913,18.6544198 0.401926851,18.7883457 0.529099019,18.867358 C0.559714541,18.886716 2.69573595,20.2311111 4.91418376,22.3948642 C4.0129884,22.9716543 0.0192328278,25.8362469 0.151900089,31.2351605 C0.15896521,31.5038025 0.376806423,31.7167407 0.642140946,31.7167407 L0.65470116,31.7167407 C0.925138269,31.7096296 1.13944692,31.4832593 1.13316682,31.2106667 C1.05937556,28.2188642 2.4406066,26.0614321 3.68171276,24.7348148 C3.89366637,24.6340741 4.53855486,24.3638519 5.37223907,24.3638519 C5.95942908,24.3638519 6.52267618,24.5029136 7.04981267,24.7676049 C7.2570562,25.0346667 7.45919715,25.3072593 7.65270294,25.586963 C7.74808207,25.7252346 7.90076717,25.798716 8.05580731,25.798716 C8.15236396,25.798716 8.25009813,25.7702716 8.33566459,25.7102222 C8.55782337,25.5541728 8.61277431,25.2464198 8.45812667,25.0228148 C8.24578055,24.7158519 8.02322926,24.4195556 7.79596789,24.128 C7.77123996,24.0837531 7.74023194,24.0438519 7.70412132,24.0094815 C5.4793934,21.1926914 2.71182872,19.1521975 1.57002676,18.3727407 C2.83272079,17.1824198 4.2473149,16.1923951 5.77926851,15.4117531 C6.0893488,18.1613827 7.59971454,20.5499259 9.77027654,22.0302222 L9.77027654,23.9545679 L9.59050847,23.8980741 C9.44096343,23.8514568 9.28003568,23.8791111 9.15404103,23.9719506 C9.02843889,24.0651852 8.95425513,24.2125432 8.95425513,24.3697778 L8.95425513,28.4246914 C8.95425513,28.5993086 9.04610169,28.761679 9.19564674,28.8501728 C9.27218555,28.8956049 9.35853702,28.9185185 9.44488849,28.9185185 C9.52652988,28.9185185 9.60856378,28.8979753 9.68235504,28.8568889 L13.843711,26.5374815 C13.9865834,26.7468642 14.1883318,26.9116049 14.4246209,27.0091852 L14.4246209,31.2229136 C14.4246209,31.4955062 14.6444246,31.7167407 14.9152542,31.7167407 C15.1860839,31.7167407 15.4058876,31.4955062 15.4058876,31.2229136 L15.4058876,27.0087901 C15.6488492,26.9084444 15.8557003,26.7369877 15.9989652,26.5189136 L20.1461909,28.8553086 C20.2203747,28.8971852 20.3031936,28.9181235 20.38562,28.9181235 C20.4715789,28.9181235 20.5575379,28.8952099 20.6336842,28.8501728 C20.7840143,28.761284 20.8762533,28.5993086 20.8762533,28.4242963 L20.8762533,23.9466667 C20.8762533,23.7831111 20.7957895,23.6302222 20.6615522,23.5385679 C20.5273149,23.4465185 20.356182,23.4267654 20.2054594,23.4872099 L20.0602319,23.5448889 L20.0602319,22.0298272 C22.2307939,20.5495309 23.7411597,18.1609877 24.05124,15.410963 C25.5828011,16.192 26.9981802,17.1820247 28.2608742,18.3727407 C26.9970027,19.2355556 23.7395897,21.6399012 21.4320428,24.9362963 C21.2758252,25.1591111 21.3288136,25.4672593 21.5505798,25.6240988 C21.6365388,25.6849383 21.735058,25.7145679 21.8327921,25.7145679 C21.9870473,25.7145679 22.1385549,25.6414815 22.233934,25.5051852 C22.8387868,24.6411852 23.5190009,23.8364444 24.2125602,23.1071605 C24.228653,23.1190123 24.2388582,23.1356049 24.2569135,23.1462716 C24.3024442,23.1727407 28.8292239,25.8386173 28.6969492,31.2102716 C28.6902765,31.4828642 28.9045852,31.7096296 29.1754148,31.7163457 L29.187975,31.7163457 C29.4533095,31.7163457 29.6711508,31.5034074 29.6782159,31.2347654 C29.8108831,25.837037 25.8186976,22.9724444 24.9163247,22.3952593 L24.9163247,22.3952593 Z M25.3535772,12.9781728 C24.584264,13.0291358 24.172132,12.2710123 24.1218912,12.1710617 C24.1195361,12.1659259 24.114826,12.1631605 24.112471,12.1588148 L24.112471,12.0086914 L24.5713113,12.0086914 C24.8421409,12.0086914 25.0619447,11.7874568 25.0619447,11.5148642 C25.0619447,11.2422716 24.8421409,11.021037 24.5713113,11.021037 L24.112471,11.021037 L24.112471,10.0689383 L25.3535772,9.04177778 L25.3535772,12.9781728 L25.3535772,12.9781728 Z M4.47693131,9.04177778 L5.71803747,10.0689383 L5.71803747,11.021037 L5.33534344,11.021037 C5.06451383,11.021037 4.84471008,11.2422716 4.84471008,11.5148642 C4.84471008,11.7874568 5.06451383,12.0086914 5.33534344,12.0086914 L5.71803747,12.0086914 L5.71803747,13.3673086 C5.49470116,13.5838025 5.32199822,13.5841975 5.25998216,13.5841975 C4.96363961,13.5841975 4.65395183,13.350716 4.47693131,13.1812346 L4.47693131,9.04177778 L4.47693131,9.04177778 Z M10.9344514,27.0293333 C10.4657984,27.0384198 10.0744692,26.4884938 9.93512935,26.2637037 L9.93512935,25.0398025 L12.8620517,25.9543704 L10.9344514,27.0293333 L10.9344514,27.0293333 Z M14.5965388,25.798716 C14.5965388,25.6217284 14.7394112,25.4779259 14.9152542,25.4779259 C15.0910972,25.4779259 15.2339697,25.6217284 15.2339697,25.798716 C15.2339697,25.9757037 15.0910972,26.1195062 14.9152542,26.1195062 C14.7394112,26.1195062 14.5965388,25.9757037 14.5965388,25.798716 L14.5965388,25.798716 Z M16.8667975,25.8757531 L19.5134701,24.8240988 C19.5327029,24.8264691 19.5499732,24.8355556 19.5699911,24.8355556 C19.6959857,24.8355556 19.8082426,24.7841975 19.8953791,24.7055802 L19.8953791,27.5820247 L16.8667975,25.8757531 L16.8667975,25.8757531 Z M19.0789652,23.9348148 L16.0342908,25.1444938 C15.808992,24.754963 15.3945049,24.4898765 14.9152542,24.4898765 C14.4128457,24.4898765 13.9806958,24.7814321 13.7644246,25.2025679 L10.7511508,24.2611358 L10.7511508,22.6101728 C12.0024621,23.2525432 13.4166637,23.6175802 14.9148617,23.6175802 C16.4130598,23.6175802 17.8276539,23.2525432 19.0785727,22.6101728 L19.0785727,23.9348148 L19.0789652,23.9348148 Z M14.9152542,22.6299259 C12.645388,22.6299259 10.5882605,21.6983704 9.09987511,20.1955556 C10.5427297,19.9395556 11.7685281,19.0522469 12.4895629,17.8271605 L12.9695986,19.2351605 C13.024157,19.3947654 13.1733095,19.5022222 13.3409099,19.5022222 C13.5085103,19.5022222 13.6576628,19.3951605 13.7118287,19.2355556 L14.4418912,17.0955062 L15.3882248,17.0955062 L16.1175022,19.2351605 C16.1720607,19.3947654 16.3212132,19.5022222 16.4888136,19.5022222 C16.6564139,19.5022222 16.8055665,19.3951605 16.8597324,19.2355556 L17.3405531,17.8263704 C18.0615879,19.0522469 19.2877788,19.9395556 20.7306334,20.1955556 C19.242248,21.6983704 17.1851204,22.6299259 14.9152542,22.6299259 L14.9152542,22.6299259 Z M13.0700803,17.0955062 L13.612132,17.0955062 L13.3409099,17.8903704 L13.0700803,17.0955062 L13.0700803,17.0955062 Z M16.2183764,17.0955062 L16.7604282,17.0955062 L16.4892061,17.8903704 L16.2183764,17.0955062 L16.2183764,17.0955062 Z M23.1312043,14.361284 C23.1312043,16.2066173 22.5200714,17.9065679 21.5015165,19.2837531 C19.3603925,19.2359506 17.6325781,17.4712099 17.6325781,15.3050864 C17.6325781,15.0324938 17.4127743,14.8112593 17.1419447,14.8112593 C16.8711151,14.8112593 16.6513113,15.0324938 16.6513113,15.3050864 C16.6513113,15.6476049 16.6858519,15.9826173 16.751793,16.3057778 L13.079893,16.3057778 C13.1458341,15.9826173 13.1803747,15.6476049 13.1803747,15.3050864 C13.1803747,15.0324938 12.9605709,14.8112593 12.6897413,14.8112593 C12.4189117,14.8112593 12.1991079,15.0324938 12.1991079,15.3050864 C12.1991079,17.4712099 10.4712935,19.2359506 8.33016949,19.2837531 C7.31122212,17.9065679 6.70048171,16.2066173 6.70048171,14.361284 L6.70048171,11.5891358 C6.70440678,11.5642469 6.71539697,11.5413333 6.71539697,11.5148642 C6.71539697,11.4883951 6.70440678,11.4654815 6.70048171,11.4405926 L6.70048171,9.47555556 C6.70048171,6.03417284 8.80117752,3.07990123 11.7783408,1.83624691 C12.8910972,2.17639506 13.818198,2.91555556 14.3975379,3.93837037 C14.4980196,4.11535802 14.6911329,4.20385185 14.8807136,4.18449383 C14.899554,4.18646914 14.9187868,4.18765432 14.9376271,4.18765432 C15.1083675,4.18765432 15.2736128,4.09797531 15.3642819,3.93837037 C15.9514719,2.90054321 16.8927029,2.15822222 18.0219447,1.824 C21.0163782,3.05975309 23.1323818,6.02153086 23.1323818,9.47516049 L23.1323818,14.361284 L23.1312043,14.361284 Z" id="Shape"></path>
        </g>
    </g>
</svg>