<?xml version="1.0" encoding="UTF-8" standalone="no"?>
<svg width="500px" height="500px" viewBox="0 0 500 500" version="1.1" xmlns="http://www.w3.org/2000/svg" xmlns:xlink="http://www.w3.org/1999/xlink">
    <!-- Generator: Sketch 40.3 (33839) - http://www.bohemiancoding.com/sketch -->
    <title>Slice 1</title>
    <desc>Created with Sketch.</desc>
    <defs></defs>
    <g id="Page-1" stroke="none" stroke-width="1" fill="none" fill-rule="evenodd" opacity="0.07">
        <g id="Group" transform="translate(-571.000000, -739.000000)" fill="#FFFFFF">
            <path d="M695.378723,821.459259 C697.225532,820.866667 698.059574,820.037037 698.059574,819.503704 C698.059574,819.207407 698,818.792593 697.285106,818.614815 C696.093617,818.318519 692.4,817.785185 692.4,817.785185 L687.693617,800.718519 C687.634043,800.6 687.634043,800.481481 687.693617,800.362963 L688.587234,796.985185 C688.646809,796.866667 688.706383,796.748148 688.765957,796.688889 L693.412766,792.125926 C693.591489,791.948148 693.591489,791.711111 693.47234,791.474074 C693.353191,791.296296 693.055319,791.177778 692.817021,791.296296 C692.817021,791.296296 687.097872,793.311111 685.548936,793.844444 C685.429787,793.903704 685.251064,794.022222 685.191489,794.140741 L681.617021,798.703704 C681.438298,798.940741 681.319149,799.118519 681.259574,799.414815 C679.710638,804.333333 676.195745,817.844444 676.195745,817.844444 L671.370213,818.674074 C670.774468,818.851852 670.53617,819.385185 670.53617,819.622222 C670.53617,820.511111 671.370213,820.925926 673.217021,821.518519 L695.378723,821.459259 Z M691.268085,817.785185 C690.195745,817.962963 689.004255,818.081481 687.753191,818.140741 L687.753191,815.414815 C688.706383,815.355556 689.659574,815.237037 690.493617,815.177778 L691.268085,817.785185 L691.268085,817.785185 Z M682.331915,799.474074 L686.025532,794.792593 L691.029787,793.014815 L687.812766,796.214815 C687.753191,796.274074 687.693617,796.333333 687.693617,796.451852 L686.621277,800.422222 L686.621277,800.659259 L690.314894,814.17037 C689.540426,814.288889 688.706383,814.348148 687.812766,814.407407 C687.753191,814.17037 687.514894,814.051852 687.276596,814.051852 L681.319149,814.051852 C681.080851,814.051852 680.842553,814.22963 680.782979,814.407407 C679.889362,814.348148 679.055319,814.288889 678.280851,814.17037 L682.331915,799.474074 L682.331915,799.474074 Z M686.740426,815.059259 L686.740426,818.555556 L681.914894,818.555556 L681.914894,815.059259 L686.740426,815.059259 L686.740426,815.059259 Z M678.042553,815.177778 C678.93617,815.296296 679.829787,815.355556 680.782979,815.414815 L680.782979,818.140741 C679.531915,818.081481 678.340426,817.903704 677.268085,817.785185 L678.042553,815.177778 L678.042553,815.177778 Z M671.72766,819.622222 L676.67234,818.733333 C677.923404,818.97037 679.353191,819.088889 680.842553,819.207407 C680.902128,819.444444 681.140426,819.622222 681.378723,819.622222 L687.276596,819.622222 C687.514894,819.622222 687.753191,819.444444 687.812766,819.207407 C689.302128,819.088889 690.731915,818.97037 691.982979,818.733333 L696.92766,819.622222 C696.510638,819.977778 695.557447,820.451852 693.651064,820.866667 C691.148936,821.4 687.87234,821.755556 684.297872,821.755556 C680.782979,821.755556 677.446809,821.459259 674.944681,820.866667 C673.038298,820.451852 672.144681,819.977778 671.72766,819.622222 L671.72766,819.622222 L671.72766,819.622222 Z M673.217021,821.459259 C673.33617,821.518519 674.587234,821.814815 674.765957,821.874074 C677.32766,822.466667 680.723404,822.762963 684.357447,822.762963 C687.991489,822.762963 691.387234,822.466667 693.948936,821.874074 C694.068085,821.874074 695.378723,821.518519 695.497872,821.459259 L673.217021,821.459259 Z" id="Shape"></path>
            <path d="M771.688889,891.530311 L779.333333,892.596978 L778.088889,893.841423 C777.911111,894.0192 777.911111,894.374756 778.088889,894.552534 C778.207407,894.671052 778.325926,894.730311 778.444444,894.730311 C778.562963,894.730311 778.681481,894.671052 778.8,894.552534 L780.755556,892.596978 C784.192593,890.04883 789.111111,890.759941 791.718519,894.196978 C791.837037,894.315497 791.955556,894.374756 792.133333,894.374756 L792.133333,894.374756 C792.311111,894.374756 792.42963,894.315497 792.548148,894.196978 C794.088889,892.241423 796.933333,891.885867 798.888889,893.426608 C799.007407,893.545126 799.244444,893.545126 799.422222,893.485867 C799.6,893.426608 799.718519,893.24883 799.718519,893.071052 C799.896296,890.700682 799.185185,888.389571 797.644444,886.611793 C796.340741,885.071052 794.622222,884.063645 792.666667,883.64883 L792.666667,883.64883 L792.666667,883.64883 C792.844444,883.471052 792.844444,883.115497 792.666667,882.937719 C792.488889,882.759941 792.133333,882.759941 791.955556,882.937719 L791.185185,883.589571 C788.814815,885.604385 785.614815,885.900682 782.651852,884.47846 C782.948148,884.004385 783.125926,883.411793 783.185185,882.8192 L784.42963,881.574756 C784.607407,881.396978 784.607407,881.041423 784.42963,880.863645 C784.251852,880.685867 783.896296,880.685867 783.718519,880.863645 L782.948148,881.634015 C782.77037,881.2192 782.533333,880.863645 782.237037,880.567348 C781.940741,880.271052 781.585185,880.034015 781.17037,879.856237 L781.940741,879.085867 C782.118519,878.908089 782.118519,878.552534 781.940741,878.374756 C781.762963,878.196978 781.407407,878.196978 781.22963,878.374756 L779.985185,879.6192 C779.392593,879.6192 778.8,879.796978 778.325926,880.152534 C776.903704,877.24883 777.2,873.989571 779.214815,871.6192 L779.925926,870.908089 C780.103704,870.730311 780.103704,870.374756 779.925926,870.196978 C779.748148,870.0192 779.392593,870.0192 779.214815,870.196978 L779.214815,870.196978 C778.8,868.241423 777.792593,866.522904 776.251852,865.2192 C774.355556,863.559941 772.044444,862.84883 769.674074,863.026608 C769.496296,863.026608 769.318519,863.145126 769.259259,863.322904 C769.2,863.500682 769.2,863.737719 769.318519,863.856237 C770.088889,864.804385 770.385185,865.989571 770.207407,867.174756 C770.02963,868.359941 769.437037,869.426608 768.488889,870.196978 C768.37037,870.315497 768.311111,870.434015 768.311111,870.611793 C768.311111,870.789571 768.37037,870.908089 768.488889,871.026608 C771.925926,873.634015 772.637037,878.552534 770.02963,881.989571 C770.02963,882.04883 769.97037,882.04883 769.97037,882.108089 L768.133333,883.945126 C767.955556,884.122904 767.955556,884.47846 768.133333,884.656237 C768.311111,884.774756 768.42963,884.774756 768.548148,884.774756 C768.666667,884.774756 768.785185,884.715497 768.903704,884.596978 L770.088889,883.411793 L771.155556,890.937719 L771.688889,891.530311 Z M771.807407,891.411793 C772.103704,891.352534 772.281481,891.115497 772.222222,890.8192 L771.037037,882.463645 C772.340741,880.626608 772.933333,878.315497 772.637037,876.063645 C772.340741,873.930311 771.274074,872.034015 769.674074,870.611793 C771.451852,868.893274 771.807407,866.226608 770.681481,864.034015 C772.459259,864.093274 774.177778,864.745126 775.540741,865.871052 C777.081481,867.174756 778.02963,869.011793 778.266667,871.026608 C777.140741,872.44883 776.488889,874.108089 776.42963,875.885867 C776.37037,877.545126 776.725926,879.204385 777.555556,880.745126 L774.592593,883.708089 C773.466667,884.834015 773.348148,886.552534 774.237037,887.796978 L770.681481,891.352534 C770.503704,891.530311 770.503704,891.885867 770.681481,892.063645 C770.8,892.182163 770.918519,892.241423 771.037037,892.241423 C771.155556,892.241423 771.274074,892.182163 771.392593,892.063645 L774.948148,888.508089 C775.481481,888.922904 776.133333,889.100682 776.785185,889.100682 C777.614815,889.100682 778.444444,888.745126 779.037037,888.152534 L782,885.189571 C783.540741,886.0192 785.2,886.374756 786.859259,886.315497 C788.637037,886.196978 790.296296,885.604385 791.718519,884.47846 C793.733333,884.715497 795.57037,885.663645 796.874074,887.204385 C798.059259,888.567348 798.651852,890.285867 798.711111,892.063645 C796.577778,890.937719 793.851852,891.293274 792.133333,893.071052 C789.17037,889.634015 784.014815,888.982163 780.281481,891.64883 L771.866667,890.463645 L771.807407,891.411793 Z M778.325926,887.441423 C777.911111,887.856237 777.377778,888.093274 776.785185,888.093274 C776.192593,888.093274 775.659259,887.856237 775.244444,887.441423 C774.414815,886.611793 774.414815,885.24883 775.244444,884.359941 L778.444444,881.159941 C778.444444,881.159941 778.444444,881.159941 778.503704,881.100682 C778.918519,880.685867 779.451852,880.508089 779.985185,880.508089 L780.103704,880.508089 L780.103704,880.508089 C780.637037,880.567348 781.111111,880.745126 781.525926,881.159941 C781.881481,881.515497 782.118519,882.04883 782.177778,882.582163 L782.177778,882.582163 L782.177778,882.700682 C782.177778,883.293274 781.940741,883.826608 781.585185,884.182163 C781.585185,884.182163 781.585185,884.182163 781.525926,884.241423 L778.325926,887.441423 L778.325926,887.441423 Z" id="Shape"></path>
            <path d="M794.82291,888.045132 C794.704391,888.045132 794.585873,887.985873 794.467354,887.926613 C794.467354,887.926613 793.519206,887.037724 792.037724,886.504391 C791.800687,886.385873 791.62291,886.148836 791.741428,885.852539 C791.859947,885.615502 792.096984,885.437724 792.39328,885.556243 C794.052539,886.148836 795.119206,887.096984 795.178465,887.156243 C795.356243,887.334021 795.415502,887.689576 795.237724,887.867354 C795.059947,887.985873 794.941428,888.045132 794.82291,888.045132 L794.82291,888.045132 Z" id="Shape"></path>
            <path d="M796.014479,889.829294 C795.836701,889.829294 795.718183,889.770035 795.599664,889.651516 L795.362627,889.29596 C795.184849,889.058923 795.244109,888.762627 795.481146,888.584849 C795.718183,888.407072 796.014479,888.466331 796.192257,888.703368 L796.429294,889.058923 C796.607072,889.29596 796.547812,889.592257 796.310775,889.770035 C796.192257,889.829294 796.073738,889.829294 796.014479,889.829294 L796.014479,889.829294 Z" id="Shape"></path>
            <path d="M853.581818,767.580247 C853.232727,767.98642 853,768.450617 853,768.97284 C853,769.495062 853.232727,770.017284 853.581818,770.365432 L868.069091,784.81358 L867.894545,784.987654 C867.370909,785.509877 867.661818,786.438272 868.36,786.612346 L868.534545,786.67037 L869.756364,786.902469 L869.756364,786.902469 C869.465455,787.598765 869.349091,788.295062 869.349091,789.049383 C869.349091,789.803704 869.465455,790.5 869.756364,791.196296 C870.047273,791.892593 870.454545,792.530864 871.036364,793.111111 L875.865455,797.92716 L875.865455,797.92716 C876.272727,798.333333 876.970909,798.333333 877.378182,797.92716 L877.378182,797.92716 L878.250909,797.05679 L878.250909,797.05679 C878.6,796.708642 878.658182,796.244444 878.425455,795.838272 L878.425455,795.838272 L877.669091,794.445679 L879.065455,795.2 L879.065455,795.2 C879.472727,795.432099 879.996364,795.374074 880.287273,795.025926 L880.287273,795.025926 L884.127273,791.196296 C884.534545,790.790123 884.534545,790.093827 884.127273,789.687654 L884.127273,789.687654 L879.298182,784.871605 C878.774545,784.349383 878.076364,783.885185 877.378182,783.595062 C876.68,783.304938 875.981818,783.188889 875.225455,783.188889 C874.469091,783.188889 873.770909,783.304938 873.072727,783.595062 L873.072727,783.595062 L872.84,782.376543 L872.781818,782.202469 C872.607273,781.448148 871.676364,781.158025 871.152727,781.738272 L870.861818,782.028395 L856.374545,767.580247 C856.025455,767.232099 855.501818,767 854.978182,767 C854.454545,767 853.989091,767.232099 853.581818,767.580247 L853.581818,767.580247 L853.581818,767.580247 L853.581818,767.580247 Z M871.734545,792.414815 C871.152727,791.834568 870.745455,791.080247 870.512727,790.325926 L876.389091,784.465432 C877.145455,784.697531 877.901818,785.103704 878.483636,785.683951 L883.312727,790.5 L879.472727,794.32963 L876.970909,792.937037 C876.389091,792.588889 875.690909,793.285185 876.04,793.865432 L877.436364,796.360494 L876.563636,797.230864 L871.734545,792.414815 L871.734545,792.414815 L871.734545,792.414815 Z M870.396364,788.991358 C870.396364,788.353086 870.570909,787.714815 870.803636,787.134568 C870.861818,786.960494 870.978182,786.78642 871.036364,786.67037 C871.152727,786.496296 871.269091,786.380247 871.385455,786.206173 C871.501818,786.090123 871.618182,785.916049 871.734545,785.8 L871.792727,785.741975 C871.909091,785.625926 872.083636,785.509877 872.2,785.393827 C872.374545,785.277778 872.490909,785.161728 872.665455,785.045679 C872.84,784.92963 872.956364,784.871605 873.130909,784.81358 C873.712727,784.523457 874.352727,784.407407 874.992727,784.407407 L873.363636,786.032099 L871.967273,787.424691 L870.396364,788.991358 L870.396364,788.991358 Z M868.767273,785.683951 L869.581818,784.871605 L870.92,783.537037 L871.676364,782.782716 L871.734545,782.724691 L871.792727,782.95679 L872.025455,784.291358 C871.676364,784.523457 871.385455,784.755556 871.094545,785.045679 L871.036364,785.045679 C870.745455,785.335802 870.512727,785.625926 870.28,785.974074 L868.941818,785.741975 L868.767273,785.683951 L868.767273,785.683951 Z M854.338182,769.669136 C853.989091,769.262963 853.989091,768.682716 854.338182,768.334568 L854.338182,768.334568 C854.512727,768.160494 854.745455,768.044444 854.978182,768.044444 C855.210909,768.044444 855.443636,768.160494 855.618182,768.334568 L870.105455,782.782716 L868.767273,784.117284 L854.338182,769.669136 L854.338182,769.669136 L854.338182,769.669136 Z" id="Shape"></path>
            <path d="M874.515933,791.153084 C874.283206,791.327158 874.283206,791.675306 874.457752,791.84938 L874.923206,792.313578 C875.097752,792.487652 875.446842,792.487652 875.621388,792.313578 C875.854115,792.139504 875.854115,791.791356 875.67957,791.617282 L875.214115,791.153084 C875.03957,790.920985 874.748661,790.97901 874.515933,791.153084 L874.515933,791.153084 L874.515933,791.153084 Z" id="Shape"></path>
            <path d="M879.574545,789.423148 C879.458182,789.423148 879.341818,789.365123 879.225455,789.307099 L877.130909,787.160185 C876.956364,786.986111 876.956364,786.637963 877.130909,786.463889 C877.305455,786.289815 877.654545,786.289815 877.829091,786.463889 L879.923636,788.552778 C880.098182,788.726852 880.098182,789.075 879.923636,789.249074 C879.865455,789.365123 879.749091,789.423148 879.574545,789.423148 L879.574545,789.423148 Z" id="Shape"></path>
            <path d="M881.104242,790.957716 C880.987879,790.957716 880.871515,790.899691 880.755152,790.841667 L880.464242,790.493519 C880.289697,790.319444 880.289697,789.971296 880.464242,789.797222 C880.638788,789.623148 880.987879,789.623148 881.162424,789.797222 L881.453333,790.087346 C881.627879,790.26142 881.627879,790.609568 881.453333,790.783642 C881.33697,790.899691 881.220606,790.957716 881.104242,790.957716 L881.104242,790.957716 Z" id="Shape"></path>
            <path d="M1020.10769,1153.06154 C1019.92308,1152.81538 1019.61538,1152.75385 1019.36923,1152.87692 C1019.12308,1153 1019.06154,1153.36923 1019.18462,1153.55385 C1020.84615,1156.07692 1021.15385,1158.90769 1021.09231,1160.81538 C1021.03077,1162.41538 1020.78462,1163.70769 1020.66154,1164.2 L1014.56923,1166.41538 L1017.89231,1163.33846 C1017.95385,1163.27692 1018.01538,1163.15385 1018.07692,1163.03077 C1018.07692,1162.96923 1018.38462,1160.93846 1018.13846,1158.23077 C1017.95385,1155.70769 1017.27692,1152.2 1015.12308,1149.43077 C1014.93846,1149.18462 1014.56923,1149.18462 1014.38462,1149.30769 C1014.07692,1149.49231 1014.07692,1149.8 1014.2,1150.04615 C1017.76923,1154.53846 1017.15385,1161.55385 1017.03077,1162.72308 L1015.55385,1164.07692 C1015.67692,1163.64615 1015.73846,1163.15385 1015.73846,1162.66154 C1015.73846,1159.09231 1012.6,1156.13846 1008.78462,1156.13846 C1004.96923,1156.13846 1001.83077,1159.03077 1001.83077,1162.66154 C1001.83077,1163.15385 1001.89231,1163.58462 1002.01538,1164.07692 L1000.53846,1162.72308 C1000.41538,1161.55385 999.738462,1154.53846 1003.30769,1150.04615 C1003.49231,1149.8 1003.43077,1149.49231 1003.18462,1149.30769 C1002.93846,1149.12308 1002.56923,1149.18462 1002.44615,1149.43077 C1000.23077,1152.13846 999.553846,1155.70769 999.307692,1158.23077 C999.123077,1160.93846 999.369231,1162.96923 999.369231,1163.03077 C999.369231,1163.15385 999.430769,1163.27692 999.553846,1163.33846 L1002.87692,1166.41538 L996.846154,1164.2 C996.538462,1163.03077 995.492308,1157.86154 998.323077,1153.55385 C998.507692,1153.30769 998.384615,1153 998.138462,1152.87692 C997.892308,1152.75385 997.523077,1152.81538 997.4,1153.06154 C995.553846,1155.76923 995.246154,1158.84615 995.307692,1160.87692 C995.369231,1163.09231 995.861538,1164.69231 995.861538,1164.75385 C995.923077,1164.93846 996.046154,1165.06154 996.169231,1165.06154 L1005.52308,1168.44615 C1005.21538,1168.81538 1004.96923,1169.18462 1004.78462,1169.61538 L997.892308,1169.06154 C997.646154,1169.06154 997.4,1169.18462 997.338462,1169.43077 C997.338462,1169.49231 996.846154,1171.03077 996.846154,1173.06154 C996.784615,1175.83077 997.523077,1178.23077 998.876923,1180.13846 C999,1180.26154 999.184615,1180.38462 999.307692,1180.38462 C999.430769,1180.38462 999.553846,1180.38462 999.615385,1180.26154 C999.861538,1180.07692 999.923077,1179.76923 999.738462,1179.52308 C997.153846,1176.07692 997.953846,1171.52308 998.261538,1170.10769 L1004.53846,1170.66154 L1004.53846,1171.03077 L1004.53846,1171.21538 L1000.47692,1172.01538 C1000.23077,1172.07692 1000.10769,1172.2 1000.04615,1172.44615 C999.984615,1172.63077 999.184615,1177.73846 1002.56923,1180.87692 C1002.69231,1181 1002.81538,1181 1002.93846,1181 C1003.06154,1181 1003.24615,1180.93846 1003.30769,1180.87692 C1003.49231,1180.69231 1003.49231,1180.32308 1003.30769,1180.13846 C1000.78462,1177.8 1000.96923,1174.10769 1001.09231,1172.93846 L1004.72308,1172.2 C1005.03077,1173.18462 1005.76923,1173.98462 1006.75385,1174.47692 L1006.75385,1176.2 C1006.75385,1176.50769 1007,1176.69231 1007.30769,1176.69231 C1007.61538,1176.69231 1007.86154,1176.44615 1007.86154,1176.2 L1007.86154,1174.84615 C1008.16923,1174.90769 1008.47692,1174.96923 1008.78462,1174.96923 C1009.09231,1174.96923 1009.4,1174.90769 1009.70769,1174.84615 L1009.70769,1176.2 C1009.70769,1176.50769 1009.95385,1176.69231 1010.26154,1176.69231 C1010.56923,1176.69231 1010.81538,1176.44615 1010.81538,1176.2 L1010.81538,1174.47692 C1011.73846,1173.98462 1012.47692,1173.18462 1012.84615,1172.2 L1016.47692,1172.93846 C1016.6,1174.10769 1016.72308,1177.8 1014.26154,1180.13846 C1014.07692,1180.32308 1014.07692,1180.69231 1014.26154,1180.87692 C1014.38462,1181 1014.50769,1181 1014.63077,1181 C1014.75385,1181 1014.93846,1180.93846 1015,1180.87692 C1018.38462,1177.73846 1017.52308,1172.63077 1017.52308,1172.44615 C1017.46154,1172.26154 1017.33846,1172.07692 1017.09231,1172.01538 L1012.96923,1171.15385 L1012.96923,1170.96923 L1012.96923,1170.6 L1019.24615,1170.04615 C1019.55385,1171.46154 1020.35385,1176.01538 1017.76923,1179.46154 C1017.58462,1179.70769 1017.64615,1180.01538 1017.89231,1180.2 C1018.01538,1180.26154 1018.07692,1180.32308 1018.2,1180.32308 C1018.38462,1180.32308 1018.56923,1180.26154 1018.63077,1180.07692 C1020.04615,1178.23077 1020.72308,1175.76923 1020.66154,1173 C1020.6,1170.90769 1020.16923,1169.43077 1020.16923,1169.36923 C1020.10769,1169.12308 1019.86154,1169 1019.61538,1169 L1012.72308,1169.55385 C1012.53846,1169.12308 1012.29231,1168.69231 1011.98462,1168.38462 L1021.33846,1165 C1021.52308,1164.93846 1021.64615,1164.81538 1021.64615,1164.69231 C1021.64615,1164.63077 1022.13846,1163.03077 1022.2,1160.81538 C1022.26154,1158.78462 1021.89231,1155.76923 1020.10769,1153.06154 L1020.10769,1153.06154 L1020.10769,1153.06154 Z M1008.72308,1173.92308 C1007,1173.92308 1005.58462,1172.63077 1005.58462,1171.03077 C1005.58462,1170.78462 1005.58462,1170.53846 1005.64615,1170.35385 L1005.64615,1170.29231 C1005.83077,1169.67692 1006.2,1169.12308 1006.75385,1168.75385 L1006.81538,1168.69231 C1007.12308,1168.50769 1007.43077,1168.38462 1007.73846,1168.26154 C1008.04615,1168.2 1008.16923,1167.89231 1008.10769,1167.64615 C1008.04615,1167.4 1007.73846,1167.21538 1007.43077,1167.27692 C1007.06154,1167.4 1006.69231,1167.52308 1006.38462,1167.70769 C1004.23077,1166.84615 1002.81538,1164.87692 1002.81538,1162.66154 C1002.81538,1159.64615 1005.46154,1157.18462 1008.66154,1157.18462 C1011.92308,1157.18462 1014.50769,1159.64615 1014.50769,1162.66154 C1014.50769,1164.87692 1013.09231,1166.84615 1010.93846,1167.70769 C1010.63077,1167.52308 1010.26154,1167.33846 1009.89231,1167.27692 C1009.58462,1167.21538 1009.27692,1167.33846 1009.21538,1167.64615 C1009.15385,1167.89231 1009.27692,1168.2 1009.58462,1168.26154 C1009.95385,1168.38462 1010.26154,1168.50769 1010.50769,1168.69231 L1010.56923,1168.75385 C1011.12308,1169.12308 1011.49231,1169.67692 1011.67692,1170.29231 L1011.67692,1170.35385 C1011.73846,1170.6 1011.73846,1170.78462 1011.73846,1171.03077 C1011.86154,1172.63077 1010.44615,1173.92308 1008.72308,1173.92308 L1008.72308,1173.92308 L1008.72308,1173.92308 Z" id="Shape"></path>
            <path d="M1006.56923,1161.43077 C1006.26154,1161.43077 1006.01538,1161.67692 1006.01538,1161.92308 L1006.01538,1162.6 C1006.01538,1162.90769 1006.26154,1163.09231 1006.56923,1163.09231 C1006.87692,1163.09231 1007.12308,1162.84615 1007.12308,1162.6 L1007.12308,1161.92308 C1007.12308,1161.61538 1006.87692,1161.43077 1006.56923,1161.43077 L1006.56923,1161.43077 L1006.56923,1161.43077 Z" id="Shape"></path>
            <path d="M1010.93846,1163.09231 C1011.24615,1163.09231 1011.49231,1162.84615 1011.49231,1162.6 L1011.49231,1161.92308 C1011.49231,1161.61538 1011.24615,1161.43077 1010.93846,1161.43077 C1010.63077,1161.43077 1010.38462,1161.67692 1010.38462,1161.92308 L1010.38462,1162.6 C1010.38462,1162.90769 1010.63077,1163.09231 1010.93846,1163.09231 L1010.93846,1163.09231 L1010.93846,1163.09231 Z" id="Shape"></path>
            <path d="M1008.72308,1166.23077 C1008.41538,1166.23077 1008.23077,1165.86154 1008.16923,1165.55385 L1008.16923,1162.41538 C1008.16923,1162.10769 1008.41538,1161.86154 1008.66154,1161.86154 L1008.66154,1161.86154 C1008.96923,1161.86154 1009.15385,1162.04615 1009.15385,1162.29231 L1009.15385,1165.49231 C1009.27692,1165.92308 1009.03077,1166.23077 1008.72308,1166.23077 L1008.72308,1166.23077 L1008.72308,1166.23077 Z" id="Shape"></path>
            <path d="M1008.72308,1159.09231 C1008.41538,1159.09231 1008.16923,1159.33846 1008.16923,1159.58462 L1008.16923,1160.26154 C1008.16923,1160.56923 1008.41538,1160.75385 1008.72308,1160.75385 C1009.03077,1160.75385 1009.27692,1160.50769 1009.27692,1160.26154 L1009.27692,1159.58462 C1009.27692,1159.33846 1009.03077,1159.09231 1008.72308,1159.09231 L1008.72308,1159.09231 L1008.72308,1159.09231 Z" id="Shape"></path>
            <path d="M1011,996.968627 L1011,996.968627 L1011,997.031373 L1011,997.031373 L1015.26667,1020.05882 C1015.32941,1020.3098 1015.51765,1020.49804 1015.76863,1020.49804 L1028.50588,1020.49804 C1028.75686,1020.49804 1029.00784,1020.3098 1029.00784,1020.05882 L1033.27451,997.031373 C1033.27451,996.905882 1033.27451,996.780392 1033.21176,996.717647 L1029.00784,989.25098 C1028.9451,989.062745 1028.75686,989 1028.56863,989 L1015.76863,989 C1015.58039,989 1015.39216,989.12549 1015.32941,989.25098 L1011.06275,996.717647 C1011.06275,996.717647 1011.06275,996.780392 1011,996.780392 L1011,996.780392 L1011,996.843137 L1011,996.843137 C1011,996.905882 1011,996.905882 1011,996.968627 L1011,996.968627 L1011,996.968627 L1011,996.968627 Z M1016.1451,990.003922 L1019.15686,990.003922 L1015.51765,996.466667 L1012.50588,996.466667 L1016.1451,990.003922 L1016.1451,990.003922 Z M1016.33333,997.031373 L1020.34902,990.003922 L1028.19216,990.003922 L1032.20784,997.031373 L1028.06667,1019.49412 L1020.47451,1019.49412 L1016.33333,997.031373 L1016.33333,997.031373 Z M1019.40784,1019.49412 L1016.27059,1019.49412 L1012.19216,997.470588 L1015.32941,997.470588 L1019.40784,1019.49412 L1019.40784,1019.49412 Z" id="Shape"></path>
            <path d="M1020.28627,996.843137 C1019.97255,996.843137 1019.78431,997.094118 1019.78431,997.345098 C1019.78431,997.596078 1020.03529,997.847059 1020.28627,997.847059 L1023.8,997.847059 L1023.8,1013.28235 C1023.8,1013.53333 1024.05098,1013.78431 1024.30196,1013.78431 C1024.61569,1013.78431 1024.80392,1013.53333 1024.80392,1013.28235 L1024.80392,997.847059 L1028.31765,997.847059 C1028.63137,997.847059 1028.81961,997.596078 1028.81961,997.345098 C1028.81961,997.094118 1028.56863,996.843137 1028.31765,996.843137 L1024.80392,996.843137 L1024.80392,993.266667 C1024.80392,993.015686 1024.55294,992.764706 1024.30196,992.764706 C1023.98824,992.764706 1023.8,993.015686 1023.8,993.266667 L1023.8,996.843137 L1020.28627,996.843137 L1020.28627,996.843137 L1020.28627,996.843137 Z" id="Shape"></path>
            <path d="M1024.11373,1014.72549 C1023.8,1014.72549 1023.54902,1014.97647 1023.54902,1015.22745 L1023.54902,1015.98039 C1023.54902,1016.29412 1023.8,1016.48235 1024.11373,1016.48235 C1024.42745,1016.48235 1024.67843,1016.23137 1024.67843,1015.98039 L1024.67843,1015.2902 C1024.61569,1014.97647 1024.42745,1014.72549 1024.11373,1014.72549 L1024.11373,1014.72549 L1024.11373,1014.72549 Z" id="Shape"></path>
            <path d="M755.387597,1043.52308 C756.379845,1043.52308 757.248062,1042.72308 757.248062,1041.67692 C757.248062,1040.69231 756.44186,1039.83077 755.387597,1039.83077 C754.395349,1039.83077 753.527132,1040.63077 753.527132,1041.67692 C753.527132,1042.72308 754.395349,1043.52308 755.387597,1043.52308 L755.387597,1043.52308 L755.387597,1043.52308 Z M755.387597,1040.87692 C755.821705,1040.87692 756.193798,1041.24615 756.193798,1041.67692 C756.193798,1042.10769 755.821705,1042.47692 755.387597,1042.47692 C754.953488,1042.47692 754.581395,1042.10769 754.581395,1041.67692 C754.51938,1041.24615 754.891473,1040.87692 755.387597,1040.87692 L755.387597,1040.87692 L755.387597,1040.87692 Z" id="Shape"></path>
            <path d="M758.984496,1038.78462 C758.984496,1039.76923 759.790698,1040.56923 760.782946,1040.56923 C761.775194,1040.56923 762.581395,1039.76923 762.581395,1038.78462 C762.581395,1037.8 761.775194,1037 760.782946,1037 C759.790698,1037 758.984496,1037.86154 758.984496,1038.78462 L758.984496,1038.78462 L758.984496,1038.78462 Z M761.589147,1038.78462 C761.589147,1039.21538 761.217054,1039.58462 760.782946,1039.58462 C760.348837,1039.58462 759.976744,1039.21538 759.976744,1038.78462 C759.976744,1038.35385 760.348837,1037.98462 760.782946,1037.98462 C761.217054,1037.98462 761.589147,1038.35385 761.589147,1038.78462 L761.589147,1038.78462 L761.589147,1038.78462 Z" id="Shape"></path>
            <path d="M747.077519,1064.01538 C746.953488,1064.01538 746.829457,1063.95385 746.767442,1063.89231 C746.705426,1063.83077 745.589147,1062.90769 744.72093,1061.24615 C744.596899,1061 744.658915,1060.69231 744.968992,1060.56923 C745.217054,1060.44615 745.527132,1060.50769 745.651163,1060.81538 C746.395349,1062.23077 747.449612,1063.15385 747.449612,1063.15385 C747.697674,1063.33846 747.697674,1063.64615 747.511628,1063.89231 C747.387597,1063.95385 747.263566,1064.01538 747.077519,1064.01538 L747.077519,1064.01538 Z" id="Shape"></path>
            <path d="M748.875969,1065.06154 C748.813953,1065.06154 748.689922,1065.06154 748.627907,1065 L748.255814,1064.75385 C748.007752,1064.63077 747.883721,1064.26154 748.069767,1064.01538 C748.193798,1063.76923 748.503876,1063.64615 748.813953,1063.83077 L749.186047,1064.07692 C749.434109,1064.2 749.55814,1064.56923 749.372093,1064.81538 C749.248062,1065 749.062016,1065.06154 748.875969,1065.06154 L748.875969,1065.06154 Z" id="Shape"></path>
            <path d="M767.418605,1055.64615 C767.418605,1053.43077 766.860465,1051.27692 765.806202,1049.36923 L765.930233,1049.36923 C766.550388,1049.36923 767.046512,1048.87692 767.046512,1048.26154 L767.046512,1046.84615 C767.046512,1046.23077 766.550388,1045.73846 765.930233,1045.73846 L762.023256,1045.73846 C762.085271,1045.12308 762.085271,1044.44615 761.403101,1043.70769 C760.906977,1043.09231 760.286822,1042.72308 759.294574,1042.72308 C758.054264,1042.72308 757.062016,1043.52308 756.751938,1044.63077 C756.44186,1044.44615 756.131783,1044.26154 755.635659,1044.26154 C754.767442,1044.26154 754.023256,1044.87692 753.713178,1045.73846 L750.302326,1045.73846 L743.604651,1039.33846 C743.356589,1039.09231 742.984496,1038.90769 742.612403,1038.90769 C742.24031,1038.90769 741.868217,1039.09231 741.55814,1039.33846 L741.55814,1039.33846 C741,1039.89231 741,1040.81538 741.620155,1041.36923 L746.147287,1045.73846 L742.550388,1045.73846 C741.930233,1045.73846 741.434109,1046.23077 741.434109,1046.84615 L741.434109,1048.26154 C741.434109,1048.87692 741.930233,1049.36923 742.550388,1049.36923 L742.674419,1049.36923 C741.620155,1051.27692 741.062016,1053.43077 741.062016,1055.64615 C741.062016,1057.49231 741.434109,1059.27692 742.178295,1060.93846 C742.860465,1062.47692 743.852713,1063.83077 745.031008,1065 L744.844961,1068.01538 C744.782946,1068.63077 745.465116,1069.06154 746.023256,1068.75385 L748.503876,1067.46154 C750.302326,1068.32308 752.162791,1068.69231 754.147287,1068.69231 C756.131783,1068.69231 757.992248,1068.26154 759.790698,1067.46154 L762.271318,1068.75385 C762.829457,1069.06154 763.511628,1068.63077 763.449612,1068.01538 L763.263566,1065.06154 C764.503876,1063.89231 765.496124,1062.53846 766.178295,1060.93846 C767.046512,1059.33846 767.418605,1057.49231 767.418605,1055.64615 L767.418605,1055.64615 Z M759.294574,1043.83077 C760.162791,1043.83077 760.906977,1044.56923 760.906977,1045.43077 C760.906977,1045.55385 760.906977,1045.67692 760.844961,1045.73846 L757.744186,1045.73846 C757.744186,1045.61538 757.682171,1045.49231 757.682171,1045.43077 C757.682171,1044.56923 758.426357,1043.83077 759.294574,1043.83077 L759.294574,1043.83077 Z M755.635659,1045.24615 C756.069767,1045.24615 756.379845,1045.49231 756.627907,1045.8 L754.643411,1045.8 C754.891473,1045.43077 755.20155,1045.24615 755.635659,1045.24615 L755.635659,1045.24615 Z M742.364341,1040.56923 C742.24031,1040.44615 742.24031,1040.26154 742.364341,1040.13846 L742.364341,1040.13846 C742.426357,1040.07692 742.488372,1040.01538 742.612403,1040.01538 C742.674419,1040.01538 742.79845,1040.01538 742.860465,1040.07692 L748.689922,1045.73846 L747.75969,1045.73846 L742.364341,1040.56923 L742.364341,1040.56923 Z M742.550388,1048.26154 L742.550388,1046.90769 L765.868217,1046.90769 L765.868217,1048.26154 L742.550388,1048.26154 L742.550388,1048.26154 Z M751.666667,1053.30769 L751.418605,1053.30769 C750.922481,1053.30769 750.550388,1053.67692 750.550388,1054.16923 C749.248062,1053.86154 748.069767,1053.43077 747.077519,1052.81538 C745.465116,1051.83077 744.534884,1050.66154 744.286822,1049.36923 L764.255814,1049.36923 C764.069767,1050.66154 763.077519,1051.89231 761.465116,1052.81538 C760.658915,1053.30769 759.728682,1053.67692 758.736434,1053.98462 C758.488372,1054.04615 758.24031,1054.10769 757.992248,1054.16923 C757.992248,1053.67692 757.620155,1053.30769 757.124031,1053.30769 L751.666667,1053.30769 L751.666667,1053.30769 Z M756.875969,1054.41538 L756.875969,1055.89231 L751.666667,1055.89231 L751.666667,1054.41538 L756.875969,1054.41538 L756.875969,1054.41538 Z M762.457364,1064.44615 L762.271318,1064.63077 L762.395349,1067.52308 L759.914729,1066.23077 L759.604651,1066.35385 C757.930233,1067.21538 756.131783,1067.58462 754.209302,1067.58462 C752.286822,1067.58462 750.488372,1067.15385 748.813953,1066.29231 L748.565891,1066.16923 L746.023256,1067.46154 L746.209302,1064.50769 L746.023256,1064.32308 C744.844961,1063.21538 743.852713,1061.92308 743.232558,1060.44615 C742.550388,1058.90769 742.178295,1057.30769 742.178295,1055.58462 C742.178295,1053.73846 742.612403,1051.95385 743.418605,1050.35385 C743.914729,1051.64615 744.968992,1052.81538 746.51938,1053.73846 C747.697674,1054.41538 749.062016,1054.96923 750.550388,1055.27692 L750.550388,1056.07692 C750.550388,1056.56923 750.922481,1056.93846 751.418605,1056.93846 L757.124031,1056.93846 C757.620155,1056.93846 757.992248,1056.56923 757.992248,1056.07692 L757.992248,1055.27692 C758.116279,1055.21538 758.302326,1055.21538 758.426357,1055.15385 C758.860465,1055.03077 759.232558,1054.90769 759.666667,1054.78462 C760.534884,1054.47692 761.341085,1054.10769 762.023256,1053.67692 C763.573643,1052.75385 764.627907,1051.58462 765.124031,1050.29231 C765.930233,1051.89231 766.364341,1053.67692 766.364341,1055.52308 C766.364341,1057.24615 765.992248,1058.84615 765.310078,1060.38462 C764.565891,1062.04615 763.635659,1063.33846 762.457364,1064.44615 L762.457364,1064.44615 Z" id="Shape"></path>
            <path d="M1019.17236,832.636364 C1018.03729,832.636364 1017.08145,833.051178 1016.42431,833.880808 C1015.58794,834.828956 1015.2295,836.251178 1015.40872,837.791919 C1015.40872,838.028956 1015.64768,838.265993 1015.88664,838.265993 L1017.08145,838.265993 L1017.32041,839.510438 C1017.38015,839.747475 1017.55937,839.925253 1017.79833,839.925253 L1020.60612,839.925253 C1020.84509,839.925253 1021.02431,839.747475 1021.08405,839.510438 L1021.32301,838.265993 L1022.51781,838.265993 C1022.75677,838.265993 1022.99574,838.088215 1022.99574,837.791919 C1023.17496,836.251178 1022.81651,834.828956 1021.98015,833.880808 C1021.26327,833.051178 1020.30742,832.636364 1019.17236,832.636364 L1019.17236,832.636364 L1019.17236,832.636364 Z M1021.98015,837.258586 L1020.84509,837.258586 C1020.60612,837.258586 1020.4269,837.436364 1020.36716,837.673401 L1020.18794,838.858586 L1018.21651,838.858586 L1017.91781,837.673401 C1017.85807,837.436364 1017.67885,837.258586 1017.43989,837.258586 L1016.30483,837.258586 C1016.24509,836.191919 1016.54379,835.243771 1017.08145,834.591919 C1017.55937,833.999327 1018.27625,833.70303 1019.11262,833.70303 C1019.94898,833.70303 1020.66586,833.999327 1021.14379,834.591919 C1021.74119,835.184512 1022.03989,836.191919 1021.98015,837.258586 L1021.98015,837.258586 L1021.98015,837.258586 Z" id="Shape"></path>
            <path d="M1022.88831,823.251852 L1022.88831,820.525926 C1023.06753,820.348148 1023.18701,820.111111 1023.18701,819.874074 L1023.18701,818.274074 C1023.18701,817.8 1022.82857,817.444444 1022.41039,817.444444 L1022.29091,817.444444 L1022.52987,813.533333 C1022.52987,813.414815 1022.47013,813.237037 1022.41039,813.177778 C1022.29091,813.059259 1022.17143,813 1022.05195,813 L1016.4961,813 C1016.37662,813 1016.25714,813.059259 1016.13766,813.177778 C1016.01818,813.296296 1016.01818,813.414815 1016.01818,813.533333 L1016.25714,817.444444 L1016.13766,817.444444 C1015.71948,817.444444 1015.36104,817.8 1015.36104,818.274074 L1015.36104,819.874074 C1015.36104,820.17037 1015.48052,820.407407 1015.65974,820.525926 L1015.65974,823.251852 C1012.79221,824.733333 1011,827.755556 1011,831.133333 L1011,844.22963 C1011,844.525926 1011.23896,844.762963 1011.47792,844.762963 L1027.12987,844.762963 C1027.36883,844.762963 1027.60779,844.525926 1027.60779,844.22963 L1027.60779,831.133333 C1027.54805,827.755556 1025.6961,824.674074 1022.88831,823.251852 L1022.88831,823.251852 L1022.88831,823.251852 Z M1016.97403,813.948148 L1021.45455,813.948148 L1021.27532,817.385185 L1017.15325,817.385185 L1016.97403,813.948148 L1016.97403,813.948148 Z M1016.25714,819.637037 L1016.25714,818.392593 L1022.23117,818.392593 L1022.23117,819.637037 L1016.25714,819.637037 L1016.25714,819.637037 Z M1026.59221,831.607407 L1026.59221,840.97037 L1011.8961,840.97037 L1011.8961,831.607407 L1026.59221,831.607407 L1026.59221,831.607407 Z M1011.95584,830.6 C1012.13506,827.755556 1013.80779,825.207407 1016.31688,824.022222 L1016.31688,824.022222 C1016.4961,823.962963 1016.61558,823.785185 1016.61558,823.548148 L1016.61558,820.644444 L1021.93247,820.644444 L1021.93247,823.548148 C1021.93247,823.725926 1022.05195,823.962963 1022.23117,824.022222 C1024.74026,825.207407 1026.41299,827.755556 1026.59221,830.6 L1011.95584,830.6 L1011.95584,830.6 Z M1011.8961,843.696296 L1011.8961,841.977778 L1026.53247,841.977778 L1026.53247,843.696296 L1011.8961,843.696296 L1011.8961,843.696296 Z" id="Shape"></path>
            <path d="M1018.08312,834.818182 C1017.78442,834.818182 1017.54545,835.055219 1017.54545,835.292256 L1017.54545,835.944108 C1017.54545,836.240404 1017.78442,836.418182 1018.08312,836.418182 C1018.38182,836.418182 1018.62078,836.181145 1018.62078,835.944108 L1018.62078,835.292256 C1018.56104,835.055219 1018.32208,834.818182 1018.08312,834.818182 L1018.08312,834.818182 L1018.08312,834.818182 Z" id="Shape"></path>
            <path d="M1019.53766,834.818182 C1019.23896,834.818182 1019,835.055219 1019,835.292256 L1019,835.944108 C1019,836.240404 1019.23896,836.418182 1019.53766,836.418182 C1019.83636,836.418182 1020.07532,836.181145 1020.07532,835.944108 L1020.07532,835.292256 C1020.07532,835.055219 1019.83636,834.818182 1019.53766,834.818182 L1019.53766,834.818182 L1019.53766,834.818182 Z" id="Shape"></path>
            <path d="M1023.98961,827.599327 C1023.81039,827.599327 1023.69091,827.540067 1023.57143,827.421549 C1023.57143,827.421549 1022.79481,826.414141 1021.42078,825.584512 C1021.18182,825.465993 1021.12208,825.110438 1021.24156,824.873401 C1021.36104,824.636364 1021.71948,824.577104 1021.95844,824.695623 C1023.51169,825.584512 1024.34805,826.769697 1024.40779,826.769697 C1024.58701,827.006734 1024.52727,827.30303 1024.28831,827.480808 C1024.16883,827.540067 1024.04935,827.599327 1023.98961,827.599327 L1023.98961,827.599327 Z" id="Shape"></path>
            <path d="M1024.79492,829.622926 C1024.6157,829.622926 1024.43648,829.504408 1024.317,829.32663 L1024.13778,828.971075 C1024.0183,828.734037 1024.13778,828.437741 1024.37674,828.319223 C1024.6157,828.200704 1024.91441,828.319223 1025.03389,828.55626 L1025.21311,828.911815 C1025.33259,829.148852 1025.21311,829.445149 1024.97415,829.563667 C1024.97415,829.622926 1024.85466,829.622926 1024.79492,829.622926 L1024.79492,829.622926 Z" id="Shape"></path>
            <path d="M885.190901,1066.23062 L884.223372,1066.23062 L884.487136,1066.04889 C884.620589,1065.95684 884.700268,1065.80435 884.700268,1065.64158 L884.700268,1062.30489 C884.700268,1062.0323 884.480464,1061.81106 884.209634,1061.81106 C883.938805,1061.81106 883.719001,1062.0323 883.719001,1062.30489 L883.719001,1065.38123 L882.362105,1066.31714 C882.185085,1066.4396 882.107368,1066.664 882.170955,1066.87062 C882.234541,1067.07723 882.424514,1067.21827 882.639607,1067.21827 L885.190901,1067.21827 C885.461731,1067.21827 885.681534,1066.99704 885.681534,1066.72444 C885.681534,1066.45185 885.461731,1066.23062 885.190901,1066.23062 L885.190901,1066.23062 Z" id="Shape"></path>
            <path d="M888.208885,1059.90963 C888.479715,1059.90963 888.699518,1059.6884 888.699518,1059.4158 C888.699518,1059.14321 888.479715,1058.92198 888.208885,1058.92198 C886.504228,1058.92198 885.117895,1060.31733 885.117895,1062.03309 C885.117895,1062.30568 885.337698,1062.52691 885.608528,1062.52691 C885.879358,1062.52691 886.099161,1062.30568 886.099161,1062.03309 C886.099161,1060.86212 887.045888,1059.90963 888.208885,1059.90963 L888.208885,1059.90963 Z" id="Shape"></path>
            <path d="M882.664728,1062.03309 C882.664728,1060.31733 881.278394,1058.92198 879.573738,1058.92198 C879.302908,1058.92198 879.083104,1059.14321 879.083104,1059.4158 C879.083104,1059.6884 879.302908,1059.90963 879.573738,1059.90963 C880.737128,1059.90963 881.683461,1060.86212 881.683461,1062.03309 C881.683461,1062.30568 881.903265,1062.52691 882.174095,1062.52691 C882.444924,1062.52691 882.664728,1062.30607 882.664728,1062.03309 L882.664728,1062.03309 Z" id="Shape"></path>
            <ellipse id="Oval" cx="880.346583" cy="1062.56405" rx="1.01816236" ry="1.02479012"></ellipse>
            <ellipse id="Oval" cx="887.436432" cy="1062.56405" rx="1.01816236" ry="1.02479012"></ellipse>
            <path d="M889.028439,1062.67072 C889.028439,1063.63743 888.247351,1064.424 887.286494,1064.424 C887.015665,1064.424 886.795861,1064.64523 886.795861,1064.91783 C886.795861,1065.19042 887.015665,1065.41165 887.286494,1065.41165 C888.787832,1065.41165 890.009706,1064.18222 890.009706,1062.67072 C890.009706,1062.39812 889.789902,1062.17689 889.519072,1062.17689 C889.248243,1062.17689 889.028439,1062.39812 889.028439,1062.67072 L889.028439,1062.67072 Z" id="Shape"></path>
            <path d="M880.543622,1064.4244 C879.583158,1064.4244 878.801677,1063.63783 878.801677,1062.67111 C878.801677,1062.39852 878.581873,1062.17728 878.311044,1062.17728 C878.040214,1062.17728 877.82041,1062.39852 877.82041,1062.67111 C877.82041,1064.18262 879.041891,1065.41205 880.543622,1065.41205 C880.814451,1065.41205 881.034255,1065.19081 881.034255,1064.91822 C881.034255,1064.64563 880.814844,1064.4244 880.543622,1064.4244 L880.543622,1064.4244 Z" id="Shape"></path>
            <path d="M893.916325,1075.39526 C896.133988,1073.23309 898.270794,1071.88632 898.301017,1071.86736 C898.428189,1071.78795 898.512578,1071.65442 898.529848,1071.5043 C898.547119,1071.35457 898.4957,1071.20484 898.389723,1071.09857 C896.968457,1069.66805 895.350544,1068.48484 893.581124,1067.57146 C894.479179,1067.56474 895.148403,1066.78173 895.222587,1066.69205 C895.236717,1066.67467 895.243782,1066.65333 895.255165,1066.63437 C895.268118,1066.61264 895.281463,1066.59328 895.291668,1066.56998 C895.305798,1066.5364 895.313256,1066.50163 895.319536,1066.46568 C895.323854,1066.44158 895.330526,1066.41985 895.331704,1066.39496 C895.331704,1066.38864 895.334844,1066.38311 895.334844,1066.37679 L895.334844,1060.99605 C895.334844,1060.80523 895.225335,1060.63101 895.053809,1060.54963 C894.881891,1060.46746 894.67975,1060.49274 894.53256,1060.61442 L893.086173,1061.81146 C892.831044,1058.21165 890.523497,1055.1756 887.336343,1053.88533 C887.299054,1053.86044 887.259804,1053.83911 887.217413,1053.82528 C887.071008,1053.76879 886.920285,1053.72612 886.771525,1053.67793 C886.720107,1053.66094 886.669081,1053.64277 886.617663,1053.62696 C886.495201,1053.58943 886.373524,1053.55348 886.249884,1053.52148 C886.064621,1053.47249 885.877395,1053.43022 885.687422,1053.39269 C885.616378,1053.37886 885.54612,1053.36622 885.475076,1053.35437 C885.241142,1053.31368 885.004853,1053.28128 884.765424,1053.25956 C884.746976,1053.25758 884.728528,1053.25679 884.709688,1053.25521 C884.447101,1053.2323 884.182551,1053.21807 883.914469,1053.21807 C879.065442,1053.21807 875.083069,1057.0158 874.74355,1061.81146 L873.297163,1060.61442 C873.149973,1060.49274 872.947832,1060.46746 872.775914,1060.54963 C872.604389,1060.63101 872.49488,1060.80484 872.49488,1060.99605 L872.49488,1066.37719 C872.49488,1066.49215 872.534915,1066.60316 872.607136,1066.69205 C872.680928,1066.78173 873.350544,1067.56514 874.248599,1067.57146 C872.479572,1068.48484 870.861659,1069.66805 869.440393,1071.09857 C869.334023,1071.20523 869.282605,1071.35457 869.300268,1071.50469 C869.317538,1071.65442 869.401927,1071.78835 869.529099,1071.86736 C869.559715,1071.88672 871.695736,1073.23111 873.914184,1075.39486 C873.012988,1075.97165 869.019233,1078.83625 869.1519,1084.23516 C869.158965,1084.5038 869.376806,1084.71674 869.642141,1084.71674 L869.654701,1084.71674 C869.925138,1084.70963 870.139447,1084.48326 870.133167,1084.21067 C870.059376,1081.21886 871.440607,1079.06143 872.681713,1077.73481 C872.893666,1077.63407 873.538555,1077.36385 874.372239,1077.36385 C874.959429,1077.36385 875.522676,1077.50291 876.049813,1077.7676 C876.257056,1078.03467 876.459197,1078.30726 876.652703,1078.58696 C876.748082,1078.72523 876.900767,1078.79872 877.055807,1078.79872 C877.152364,1078.79872 877.250098,1078.77027 877.335665,1078.71022 C877.557823,1078.55417 877.612774,1078.24642 877.458127,1078.02281 C877.245781,1077.71585 877.023229,1077.41956 876.795968,1077.128 C876.77124,1077.08375 876.740232,1077.04385 876.704121,1077.00948 C874.479393,1074.19269 871.711829,1072.1522 870.570027,1071.37274 C871.832721,1070.18242 873.247315,1069.1924 874.779269,1068.41175 C875.089349,1071.16138 876.599715,1073.54993 878.770277,1075.03022 L878.770277,1076.95457 L878.590508,1076.89807 C878.440963,1076.85146 878.280036,1076.87911 878.154041,1076.97195 C878.028439,1077.06519 877.954255,1077.21254 877.954255,1077.36978 L877.954255,1081.42469 C877.954255,1081.59931 878.046102,1081.76168 878.195647,1081.85017 C878.272186,1081.8956 878.358537,1081.91852 878.444888,1081.91852 C878.52653,1081.91852 878.608564,1081.89798 878.682355,1081.85689 L882.843711,1079.53748 C882.986583,1079.74686 883.188332,1079.9116 883.424621,1080.00919 L883.424621,1084.22291 C883.424621,1084.49551 883.644425,1084.71674 883.915254,1084.71674 C884.186084,1084.71674 884.405888,1084.49551 884.405888,1084.22291 L884.405888,1080.00879 C884.648849,1079.90844 884.8557,1079.73699 884.998965,1079.51891 L889.146191,1081.85531 C889.220375,1081.89719 889.303194,1081.91812 889.38562,1081.91812 C889.471579,1081.91812 889.557538,1081.89521 889.633684,1081.85017 C889.784014,1081.76128 889.876253,1081.59931 889.876253,1081.4243 L889.876253,1076.94667 C889.876253,1076.78311 889.795789,1076.63022 889.661552,1076.53857 C889.527315,1076.44652 889.356182,1076.42677 889.205459,1076.48721 L889.060232,1076.54489 L889.060232,1075.02983 C891.230794,1073.54953 892.74116,1071.16099 893.05124,1068.41096 C894.582801,1069.192 895.99818,1070.18202 897.260874,1071.37274 C895.997003,1072.23556 892.73959,1074.6399 890.432043,1077.9363 C890.275825,1078.15911 890.328814,1078.46726 890.55058,1078.6241 C890.636539,1078.68494 890.735058,1078.71457 890.832792,1078.71457 C890.987047,1078.71457 891.138555,1078.64148 891.233934,1078.50519 C891.838787,1077.64119 892.519001,1076.83644 893.21256,1076.10716 C893.228653,1076.11901 893.238858,1076.1356 893.256913,1076.14627 C893.302444,1076.17274 897.829224,1078.83862 897.696949,1084.21027 C897.690277,1084.48286 897.904585,1084.70963 898.175415,1084.71635 L898.187975,1084.71635 C898.45331,1084.71635 898.671151,1084.50341 898.678216,1084.23477 C898.810883,1078.83704 894.818698,1075.97244 893.916325,1075.39526 L893.916325,1075.39526 Z M894.353577,1065.97817 C893.584264,1066.02914 893.172132,1065.27101 893.121891,1065.17106 C893.119536,1065.16593 893.114826,1065.16316 893.112471,1065.15881 L893.112471,1065.00869 L893.571311,1065.00869 C893.842141,1065.00869 894.061945,1064.78746 894.061945,1064.51486 C894.061945,1064.24227 893.842141,1064.02104 893.571311,1064.02104 L893.112471,1064.02104 L893.112471,1063.06894 L894.353577,1062.04178 L894.353577,1065.97817 L894.353577,1065.97817 Z M873.476931,1062.04178 L874.718037,1063.06894 L874.718037,1064.02104 L874.335343,1064.02104 C874.064514,1064.02104 873.84471,1064.24227 873.84471,1064.51486 C873.84471,1064.78746 874.064514,1065.00869 874.335343,1065.00869 L874.718037,1065.00869 L874.718037,1066.36731 C874.494701,1066.5838 874.321998,1066.5842 874.259982,1066.5842 C873.96364,1066.5842 873.653952,1066.35072 873.476931,1066.18123 L873.476931,1062.04178 L873.476931,1062.04178 Z M879.934451,1080.02933 C879.465798,1080.03842 879.074469,1079.48849 878.935129,1079.2637 L878.935129,1078.0398 L881.862052,1078.95437 L879.934451,1080.02933 L879.934451,1080.02933 Z M883.596539,1078.79872 C883.596539,1078.62173 883.739411,1078.47793 883.915254,1078.47793 C884.091097,1078.47793 884.23397,1078.62173 884.23397,1078.79872 C884.23397,1078.9757 884.091097,1079.11951 883.915254,1079.11951 C883.739411,1079.11951 883.596539,1078.9757 883.596539,1078.79872 L883.596539,1078.79872 Z M885.866798,1078.87575 L888.51347,1077.8241 C888.532703,1077.82647 888.549973,1077.83556 888.569991,1077.83556 C888.695986,1077.83556 888.808243,1077.7842 888.895379,1077.70558 L888.895379,1080.58202 L885.866798,1078.87575 L885.866798,1078.87575 Z M888.078965,1076.93481 L885.034291,1078.14449 C884.808992,1077.75496 884.394505,1077.48988 883.915254,1077.48988 C883.412846,1077.48988 882.980696,1077.78143 882.764425,1078.20257 L879.751151,1077.26114 L879.751151,1075.61017 C881.002462,1076.25254 882.416664,1076.61758 883.914862,1076.61758 C885.41306,1076.61758 886.827654,1076.25254 888.078573,1075.61017 L888.078573,1076.93481 L888.078965,1076.93481 Z M883.915254,1075.62993 C881.645388,1075.62993 879.58826,1074.69837 878.099875,1073.19556 C879.54273,1072.93956 880.768528,1072.05225 881.489563,1070.82716 L881.969599,1072.23516 C882.024157,1072.39477 882.17331,1072.50222 882.34091,1072.50222 C882.50851,1072.50222 882.657663,1072.39516 882.711829,1072.23556 L883.441891,1070.09551 L884.388225,1070.09551 L885.117502,1072.23516 C885.172061,1072.39477 885.321213,1072.50222 885.488814,1072.50222 C885.656414,1072.50222 885.805566,1072.39516 885.859732,1072.23556 L886.340553,1070.82637 C887.061588,1072.05225 888.287779,1072.93956 889.730633,1073.19556 C888.242248,1074.69837 886.18512,1075.62993 883.915254,1075.62993 L883.915254,1075.62993 Z M882.07008,1070.09551 L882.612132,1070.09551 L882.34091,1070.89037 L882.07008,1070.09551 L882.07008,1070.09551 Z M885.218376,1070.09551 L885.760428,1070.09551 L885.489206,1070.89037 L885.218376,1070.09551 L885.218376,1070.09551 Z M892.131204,1067.36128 C892.131204,1069.20662 891.520071,1070.90657 890.501517,1072.28375 C888.360393,1072.23595 886.632578,1070.47121 886.632578,1068.30509 C886.632578,1068.03249 886.412774,1067.81126 886.141945,1067.81126 C885.871115,1067.81126 885.651311,1068.03249 885.651311,1068.30509 C885.651311,1068.6476 885.685852,1068.98262 885.751793,1069.30578 L882.079893,1069.30578 C882.145834,1068.98262 882.180375,1068.6476 882.180375,1068.30509 C882.180375,1068.03249 881.960571,1067.81126 881.689741,1067.81126 C881.418912,1067.81126 881.199108,1068.03249 881.199108,1068.30509 C881.199108,1070.47121 879.471293,1072.23595 877.330169,1072.28375 C876.311222,1070.90657 875.700482,1069.20662 875.700482,1067.36128 L875.700482,1064.58914 C875.704407,1064.56425 875.715397,1064.54133 875.715397,1064.51486 C875.715397,1064.4884 875.704407,1064.46548 875.700482,1064.44059 L875.700482,1062.47556 C875.700482,1059.03417 877.801178,1056.0799 880.778341,1054.83625 C881.891097,1055.1764 882.818198,1055.91556 883.397538,1056.93837 C883.49802,1057.11536 883.691133,1057.20385 883.880714,1057.18449 C883.899554,1057.18647 883.918787,1057.18765 883.937627,1057.18765 C884.108368,1057.18765 884.273613,1057.09798 884.364282,1056.93837 C884.951472,1055.90054 885.892703,1055.15822 887.021945,1054.824 C890.016378,1056.05975 892.132382,1059.02153 892.132382,1062.47516 L892.132382,1067.36128 L892.131204,1067.36128 Z" id="Shape"></path>
            <path d="M625.358325,955.888803 C625.369471,955.888803 625.380617,955.888443 625.392123,955.887723 C625.639493,955.868994 625.825381,955.65361 625.807044,955.405451 C625.795898,955.254539 625.790505,955.102185 625.790505,954.948031 L625.790505,953.24081 L625.790505,951.664693 L625.790505,948.963394 C626.565336,948.974559 627.237336,949.376152 627.251718,949.838615 L627.251718,953.317527 C627.251718,953.34382 627.262505,953.366871 627.266819,953.392083 C627.271853,953.420537 627.273651,953.44899 627.283718,953.475643 C627.296662,953.50986 627.317156,953.537953 627.337291,953.567127 C627.349516,953.585136 627.358505,953.604585 627.373246,953.620433 C627.403089,953.652848 627.439403,953.67626 627.477156,953.698951 C627.488302,953.705794 627.495493,953.716239 627.507359,953.721642 C627.512752,953.724163 627.517785,953.727404 627.523179,953.729926 C627.524617,953.730646 627.526055,953.731366 627.527493,953.732087 C629.070684,954.483048 630.066999,956.075373 630.066999,957.79592 C630.066999,958.04444 630.268347,958.246137 630.516437,958.246137 C630.764527,958.246137 630.965875,958.04444 630.965875,957.79592 C630.965875,955.82001 629.868887,953.986369 628.150235,953.043435 L628.150235,950.516461 C628.150235,950.51574 628.150594,950.51538 628.150594,950.51466 L628.150594,949.864187 C628.150594,949.859865 628.152752,949.856623 628.152752,949.852661 C628.152752,949.840776 628.150594,949.82925 628.150594,949.817004 L628.150235,944.850216 C628.150235,944.601697 627.948887,944.4 627.700797,944.4 C627.452707,944.4 627.251359,944.601697 627.251359,944.850216 L627.251359,947.455349 C627.030594,947.343335 626.784662,947.274182 626.520392,947.274182 C625.621875,947.274182 624.890909,948.006414 624.890909,948.906487 L624.890909,951.663612 L624.890909,953.23973 L624.890909,954.946951 C624.890909,955.123435 624.897381,955.297759 624.909965,955.470282 C624.927943,955.708357 625.124977,955.888803 625.358325,955.888803 L625.358325,955.888803 Z M626.662774,948.190462 C626.671403,948.192263 626.680033,948.195505 626.688662,948.197306 C626.680033,948.194784 626.671044,948.192984 626.662774,948.190462 L626.662774,948.190462 Z M626.709516,948.203789 C626.750145,948.214954 626.789696,948.228281 626.827089,948.245569 C626.788257,948.231522 626.749785,948.216755 626.709516,948.203789 L626.709516,948.203789 Z" id="Shape"></path>
            <path d="M635.280074,955.465818 C635.037018,955.411072 634.796838,955.560904 634.740749,955.802941 C634.57931,956.500956 634.23522,957.136662 633.745153,957.641625 C633.572209,957.81991 633.576524,958.105167 633.754501,958.278411 C633.841872,958.363412 633.954771,958.405912 634.06767,958.405912 C634.184883,958.405912 634.302097,958.36017 634.390187,958.269406 C634.993872,957.646667 635.417782,956.864011 635.616254,956.006438 C635.672344,955.763682 635.521692,955.522006 635.280074,955.465818 L635.280074,955.465818 Z" id="Shape"></path>
            <path d="M641.421181,947.000504 L640.586664,945.761869 C640.447518,945.55585 640.168507,945.501824 639.962844,945.64049 C639.757181,945.779517 639.702889,946.059372 639.841675,946.265391 L640.676192,947.504026 C640.883293,947.811614 640.802035,948.231216 640.494619,948.439036 C640.187563,948.646856 639.769046,948.565457 639.561226,948.257149 L639.418844,948.046447 C639.406259,948.027718 639.386484,948.016913 639.371743,948.000705 L638.98954,947.484577 C638.841406,947.285041 638.560237,947.243261 638.360686,947.391292 C638.161495,947.539684 638.119788,947.821699 638.267563,948.021235 L638.422889,948.231216 L637.271967,949.186035 C637.168776,949.271756 637.109091,949.398897 637.109091,949.532882 L637.109091,950.499947 C637.109091,950.748466 637.310439,950.950163 637.558529,950.950163 C637.806619,950.950163 638.007967,950.748466 638.007967,950.499947 L638.007967,949.744664 L638.96581,948.950122 C639.482844,949.509831 640.346844,949.624726 640.997271,949.185675 C641.715653,948.700161 641.905855,947.72013 641.421181,947.000504 L641.421181,947.000504 Z" id="Shape"></path>
            <path d="M638.610999,967.600554 L635.467808,967.600554 C635.468527,967.589029 635.474639,967.578584 635.474639,967.566698 L635.474639,960.367197 C635.474639,960.289399 635.44983,960.220246 635.415314,960.156495 C636.751403,958.89697 637.559673,957.084939 637.559673,955.106147 L637.559673,952.413853 C637.559673,952.165333 637.358325,951.963636 637.110235,951.963636 C636.862145,951.963636 636.660797,952.165333 636.660797,952.413853 L636.660797,955.106147 C636.660797,957.692911 635.088482,959.955158 632.747808,960.734933 C632.512302,960.813811 632.385021,961.068454 632.463044,961.304367 C632.525606,961.493098 632.701066,961.612315 632.889471,961.612315 C632.936212,961.612315 632.984392,961.604752 633.031493,961.589624 C633.287853,961.504263 633.533426,961.399093 633.772887,961.283837 C634.020617,961.39333 634.403538,961.62312 634.575403,962.03804 L634.575403,967.567058 C634.575403,967.578944 634.581516,967.589389 634.582235,967.600914 L628.028347,967.600914 C628.029066,967.589389 628.035179,967.578944 628.035179,967.567058 L628.035179,961.134365 C628.217471,961.234494 628.404797,961.326698 628.596078,961.408457 C628.653606,961.432589 628.713291,961.444474 628.772257,961.444474 C628.946999,961.444474 629.113111,961.341825 629.185741,961.170743 C629.283179,960.941673 629.176752,960.677666 628.948437,960.579699 C627.609111,960.008104 626.50601,958.881842 625.921381,957.490133 C625.825021,957.260703 625.56183,957.152651 625.332797,957.249538 C625.104123,957.346064 624.996617,957.610071 625.092977,957.839141 C625.539898,958.903453 626.255403,959.828377 627.136302,960.527834 L627.136302,967.567418 C627.136302,967.579304 627.142415,967.589749 627.143134,967.601274 L618.85046,967.601274 C618.651988,967.601274 618.490909,967.762272 618.490909,967.961448 C618.490909,968.160623 618.651988,968.321621 618.85046,968.321621 L638.610639,968.321621 C638.809111,968.321621 638.97019,968.160623 638.97019,967.961448 C638.97019,967.762272 638.809471,967.600554 638.610999,967.600554 L638.610999,967.600554 Z" id="Shape"></path>
            <path d="M643.573777,967.672727 L640.377732,967.672727 C640.17926,967.672727 640.018182,967.833725 640.018182,968.0329 C640.018182,968.232076 640.17926,968.393074 640.377732,968.393074 L643.573777,968.393074 C643.772249,968.393074 643.933328,968.232076 643.933328,968.0329 C643.933328,967.833725 643.772249,967.672727 643.573777,967.672727 L643.573777,967.672727 Z" id="Shape"></path>
            <path d="M646.064907,967.672727 L645.032278,967.672727 C644.833806,967.672727 644.672727,967.833725 644.672727,968.0329 C644.672727,968.232076 644.833806,968.393074 645.032278,968.393074 L646.064907,968.393074 C646.263379,968.393074 646.424458,968.232076 646.424458,968.0329 C646.424458,967.833725 646.263379,967.672727 646.064907,967.672727 L646.064907,967.672727 Z" id="Shape"></path>
            <path d="M616.73627,967.672727 L615.359551,967.672727 C615.161079,967.672727 615,967.833725 615,968.0329 C615,968.232076 615.161079,968.393074 615.359551,968.393074 L616.73627,968.393074 C616.934742,968.393074 617.09582,968.232076 617.09582,968.0329 C617.09582,967.833725 616.934742,967.672727 616.73627,967.672727 L616.73627,967.672727 Z" id="Shape"></path>
            <path d="M627.66798,943.728914 C627.916069,943.728914 628.117418,943.527217 628.117418,943.278698 L628.117418,939.667242 C628.89944,939.679127 629.578272,940.089004 629.578272,940.557229 L629.578272,949.747048 C629.578272,949.995567 629.77962,950.197264 630.02771,950.197264 C630.2758,950.197264 630.477148,949.995567 630.477148,949.747048 L630.477148,945.650798 C630.51598,945.614781 630.550856,945.573721 630.575665,945.523297 L632.861328,940.899394 C632.943305,940.707782 633.101867,940.560111 633.298541,940.493119 C633.494856,940.425406 633.710946,940.443775 633.892519,940.544263 L634.948519,941.126663 C635.239755,941.727072 635.140878,942.404918 634.723081,942.6185 C634.70762,942.626424 634.698272,942.640471 634.68389,942.649475 C634.66735,942.643713 634.65189,942.635429 634.63571,942.628585 L634.433283,942.525576 L634.328654,942.467948 C634.321103,942.463986 634.312834,942.463986 634.304923,942.460384 L633.623216,942.113898 C633.401732,942.001524 633.13135,942.089766 633.018811,942.311633 C632.906272,942.5335 632.995081,942.80435 633.216204,942.917084 L633.496654,943.059713 L632.174946,945.534462 C632.140069,945.599654 632.121732,945.672409 632.121732,945.746604 L632.118856,949.770459 C632.118856,950.018978 632.319845,950.220675 632.567935,950.221035 L632.568294,950.221035 C632.816384,950.221035 633.017732,950.019699 633.017732,949.771179 L633.021328,945.859699 L634.299171,943.467068 C634.320384,943.475713 634.342317,943.479674 634.36353,943.487598 C634.370002,943.489039 634.375755,943.49192 634.381867,943.493361 C634.700069,943.605375 635.04344,943.620502 635.374227,943.524336 C635.793822,943.402597 636.140429,943.124184 636.351126,942.740959 C636.561822,942.358095 636.611081,941.915442 636.489553,941.495481 C636.368025,941.075158 636.090451,940.727952 635.70789,940.51689 L634.326856,939.755124 C633.923081,939.532537 633.442362,939.491117 633.008384,939.640949 C632.572609,939.78862 632.218092,940.118178 632.045867,940.521932 L630.477148,943.694338 L630.477148,939.632305 C630.477148,938.732232 629.746182,938 628.847665,938 C627.949148,938 627.218182,938.732232 627.218182,939.632305 L627.218182,943.278698 C627.218541,943.527217 627.41989,943.728914 627.66798,943.728914 L627.66798,943.728914 Z" id="Shape"></path>
            <path d="M637.675416,945.300113 C637.465438,945.278863 637.265169,945.171531 637.138247,944.982801 C637.127461,944.966593 637.115596,944.951465 637.102652,944.936698 L636.559011,944.319722 C636.550382,944.309997 636.538157,944.305675 636.529169,944.296671 L636.140854,943.772979 C635.992719,943.573083 635.710831,943.531663 635.512,943.680054 C635.312809,943.828446 635.271101,944.110101 635.419236,944.309997 L635.597933,944.550953 L634.362876,945.575646 C634.259685,945.661367 634.2,945.788508 634.2,945.922492 L634.2,949.608144 C634.2,949.856664 634.401348,950.058361 634.649438,950.058361 C634.897528,950.058361 635.098876,949.856664 635.098876,949.608144 L635.098876,948.893561 C635.199551,948.858984 635.289438,948.791632 635.345888,948.691504 C635.387236,948.618388 635.440449,948.554638 635.503371,948.502052 L637.074607,947.198226 C637.265888,947.039749 637.292135,946.755573 637.134292,946.564321 C636.97573,946.372709 636.692404,946.346416 636.501483,946.504532 L635.099236,947.668252 L635.099236,946.133554 L636.172135,945.243206 C636.173213,945.243566 636.174292,945.243926 636.175371,945.244646 L636.410876,945.511895 C636.73591,945.975438 637.261213,946.217114 637.790831,946.204148 C637.795506,946.204148 637.799461,946.205949 637.804135,946.205949 C637.840449,946.205949 637.876764,946.200906 637.913079,946.191542 C638.173393,946.165609 638.430831,946.08421 638.662382,945.927535 C639.024449,945.682977 639.270022,945.311639 639.353079,944.882312 C639.436135,944.452986 639.347685,944.016456 639.090247,943.635753 L637.828225,941.950503 C637.736539,941.814717 637.625079,941.693699 637.497079,941.59033 C637.303281,941.434014 637.020674,941.46571 636.865348,941.659483 C636.710022,941.853256 636.740944,942.136712 636.934382,942.292307 C636.99227,942.338769 637.042607,942.393516 637.096899,942.472754 L637.846202,943.473675 C638.202157,944.194021 638.118742,944.992525 637.675416,945.300113 L637.675416,945.300113 Z" id="Shape"></path>
            <ellipse id="Oval" cx="638.627898" cy="964.538611" rx="0.936988764" ry="0.938611255"></ellipse>
            <path d="M624.35678,963.117756 C625.024825,963.117756 625.568106,962.573174 625.568106,961.904332 C625.568106,961.235491 625.024825,960.690909 624.35678,960.690909 C623.688735,960.690909 623.145455,961.235491 623.145455,961.904332 C623.145455,962.573174 623.688735,963.117756 624.35678,963.117756 L624.35678,963.117756 Z M624.35678,961.590982 C624.529005,961.590982 624.66923,961.731449 624.66923,961.903972 C624.66923,962.076495 624.529005,962.216963 624.35678,962.216963 C624.184556,962.216963 624.044331,962.076495 624.044331,961.903972 C624.044331,961.731449 624.184556,961.590982 624.35678,961.590982 L624.35678,961.590982 Z" id="Shape"></path>
            <path d="M624.309091,964.962313 C624.309091,965.39272 624.658574,965.742809 625.088237,965.742809 C625.5179,965.742809 625.867383,965.39272 625.867383,964.962313 C625.867383,964.531906 625.5179,964.181818 625.088237,964.181818 C624.658574,964.181818 624.309091,964.531906 624.309091,964.962313 L624.309091,964.962313 Z M625.207967,964.962313 C625.207967,965.028585 625.154394,965.082251 625.088237,965.082251 C625.02208,965.082251 624.968507,965.028585 624.968507,964.962313 C624.968507,964.896042 625.02208,964.842376 625.088237,964.842376 C625.154394,964.842376 625.207967,964.896042 625.207967,964.962313 L625.207967,964.962313 Z" id="Shape"></path>
            <path d="M631.872727,963.096561 C631.872727,963.461056 632.168278,963.757119 632.531783,963.757119 C632.895289,963.757119 633.19084,963.461056 633.19084,963.096561 C633.19084,962.732426 632.895289,962.436364 632.531783,962.436364 C632.168278,962.436364 631.872727,962.732426 631.872727,963.096561 L631.872727,963.096561 Z M632.531783,962.856686 C632.664098,962.856686 632.771604,962.964377 632.771604,963.096561 C632.771604,963.229105 632.664098,963.336797 632.531783,963.336797 C632.399469,963.336797 632.292323,963.229105 632.292323,963.096561 C632.292323,962.964377 632.399828,962.856686 632.531783,962.856686 L632.531783,962.856686 Z" id="Shape"></path>
            <path d="M619.731783,962.011664 C620.095289,962.011664 620.39084,961.715602 620.39084,961.351106 C620.39084,960.986971 620.095289,960.690909 619.731783,960.690909 C619.368278,960.690909 619.072727,960.986971 619.072727,961.351106 C619.072727,961.715602 619.368278,962.011664 619.731783,962.011664 L619.731783,962.011664 Z M619.731783,961.111231 C619.864098,961.111231 619.971604,961.218923 619.971604,961.351106 C619.971604,961.48365 619.864098,961.591342 619.731783,961.591342 C619.599469,961.591342 619.491963,961.48365 619.491963,961.351106 C619.491963,961.218923 619.599469,961.111231 619.731783,961.111231 L619.731783,961.111231 Z" id="Shape"></path>
            <path d="M639.429467,960.109091 C639.112703,960.109091 638.854545,960.367335 638.854545,960.685008 C638.854545,961.002681 639.112343,961.260925 639.429467,961.260925 C639.74659,961.260925 640.004388,961.002681 640.004388,960.685008 C640.004388,960.367335 639.74659,960.109091 639.429467,960.109091 L639.429467,960.109091 Z M639.429467,961.009524 C639.25077,961.009524 639.105512,960.864014 639.105512,960.685008 C639.105512,960.506002 639.25077,960.360492 639.429467,960.360492 C639.608163,960.360492 639.753422,960.506002 639.753422,960.685008 C639.753422,960.864014 639.608163,961.009524 639.429467,961.009524 L639.429467,961.009524 Z" id="Shape"></path>
            <path d="M642.480221,961.544741 C642.875367,961.544741 643.196805,961.222386 643.196805,960.826916 C643.196805,960.431446 642.875367,960.109091 642.480221,960.109091 C642.085075,960.109091 641.763636,960.431446 641.763636,960.826916 C641.763636,961.222386 642.085075,961.544741 642.480221,961.544741 L642.480221,961.544741 Z M642.480221,960.644308 C642.580535,960.644308 642.662513,960.726428 642.662513,960.826916 C642.662513,960.927404 642.580535,961.009524 642.480221,961.009524 C642.379906,961.009524 642.297928,960.927404 642.297928,960.826916 C642.297928,960.726428 642.379906,960.644308 642.480221,960.644308 L642.480221,960.644308 Z" id="Shape"></path>
            <path d="M798.613818,1169.22813 C797.608727,1170.02787 796.774909,1170.99721 796.136,1172.1086 C796.011273,1172.32566 796.086545,1172.60251 796.304727,1172.7268 C796.375636,1172.76739 796.453455,1172.78695 796.530182,1172.78695 C796.688,1172.78695 796.840727,1172.70506 796.925091,1172.55939 C797.506909,1171.54729 798.266182,1170.66456 799.181455,1169.93656 C799.377455,1169.78038 799.409455,1169.49555 799.252727,1169.29987 C799.096727,1169.1042 798.810545,1169.07231 798.613818,1169.22813 L798.613818,1169.22813 Z" id="Shape"></path>
            <path d="M800.843636,1168.83314 C800.908,1168.83314 800.973091,1168.81937 801.035273,1168.79038 C801.708,1168.47766 802.418182,1168.24683 803.146545,1168.10514 C803.392727,1168.05731 803.553455,1167.81923 803.505091,1167.57391 C803.457091,1167.32859 803.22,1167.16733 802.971636,1167.21625 C802.171273,1167.37207 801.390182,1167.62573 800.650909,1167.96962 C800.423273,1168.07543 800.325091,1168.34503 800.431273,1168.57187 C800.508364,1168.73639 800.672727,1168.83314 800.843636,1168.83314 L800.843636,1168.83314 Z" id="Shape"></path>
            <path d="M820.262182,1193.56086 L815.696364,1193.56086 L815.696364,1176.30194 C815.696364,1173.25151 814.488364,1170.39894 812.294545,1168.27002 C812.114545,1168.09536 811.826909,1168.09898 811.651636,1168.27836 C811.476727,1168.45773 811.480364,1168.74436 811.66,1168.91902 C813.676727,1170.87582 814.787273,1173.49792 814.787273,1176.30194 L814.787273,1193.56086 L796.537455,1193.56086 C795.196364,1193.56086 794.105455,1192.36867 794.105455,1190.90361 L794.105455,1176.30194 C794.105455,1170.61962 798.744364,1165.99688 804.446545,1165.99688 C806.22,1165.99688 807.969455,1166.45165 809.505818,1167.31192 C809.724727,1167.43476 810.001818,1167.35685 810.124727,1167.1387 C810.247636,1166.92056 810.169818,1166.64443 809.950909,1166.52195 C808.278909,1165.58595 806.375273,1165.09095 804.446182,1165.09059 C798.242909,1165.09059 793.196,1170.11992 793.196,1176.30157 L793.196,1190.90361 L793.196,1193.56086 L789.737818,1193.56086 C789.486909,1193.56086 789.283273,1193.76379 789.283273,1194.01383 C789.283273,1194.26386 789.486909,1194.46679 789.737818,1194.46679 L793.650545,1194.46679 L796.537091,1194.46679 L820.261818,1194.46679 C820.512727,1194.46679 820.716364,1194.26386 820.716364,1194.01383 C820.716364,1193.76379 820.513091,1193.56086 820.262182,1193.56086 L820.262182,1193.56086 Z" id="Shape"></path>
            <path d="M807.060364,1173.52365 C807.060364,1173.27362 806.856727,1173.07069 806.605818,1173.07069 L805.454545,1173.07069 L805.454545,1171.92415 C805.454545,1171.67412 805.250909,1171.47119 805,1171.47119 C804.749091,1171.47119 804.545455,1171.67412 804.545455,1171.92415 L804.545455,1173.07069 L803.394182,1173.07069 C803.143273,1173.07069 802.939636,1173.27362 802.939636,1173.52365 C802.939636,1173.77369 803.143273,1173.97661 803.394182,1173.97661 L804.545455,1173.97661 L804.545455,1176.7241 C804.545455,1176.97413 804.749091,1177.17706 805,1177.17706 C805.250909,1177.17706 805.454545,1176.97413 805.454545,1176.7241 L805.454545,1173.97661 L806.605818,1173.97661 C806.856727,1173.97661 807.060364,1173.77405 807.060364,1173.52365 L807.060364,1173.52365 Z" id="Shape"></path>
            <path d="M805.125455,1180.05246 C804.874545,1180.05246 804.670909,1180.25539 804.670909,1180.50542 L804.670909,1184.15086 C804.670909,1184.40089 804.874545,1184.60382 805.125455,1184.60382 C805.376364,1184.60382 805.58,1184.40089 805.58,1184.15086 L805.58,1180.50542 C805.58,1180.25539 805.376364,1180.05246 805.125455,1180.05246 L805.125455,1180.05246 Z" id="Shape"></path>
            <path d="M803.203273,1181.48092 C803.203273,1180.69313 802.56,1180.05246 801.769818,1180.05246 L800.088,1180.05246 C800.064364,1180.05246 800.044,1180.06224 800.021455,1180.06587 C799.998909,1180.06224 799.978182,1180.05246 799.954545,1180.05246 C799.703636,1180.05246 799.5,1180.25539 799.5,1180.50542 L799.5,1184.15086 C799.5,1184.40089 799.703636,1184.60382 799.954545,1184.60382 C800.205455,1184.60382 800.409091,1184.40089 800.409091,1184.15086 L800.409091,1182.90938 L801.506909,1182.90938 L802.354909,1184.37661 C802.438909,1184.52229 802.591636,1184.60346 802.749091,1184.60346 C802.826182,1184.60346 802.904,1184.58389 802.975636,1184.54294 C803.193091,1184.41829 803.268,1184.14144 803.142545,1183.92438 L802.452,1182.72892 C802.897091,1182.48686 803.203273,1182.02121 803.203273,1181.48092 L803.203273,1181.48092 Z M800.409091,1180.95838 L801.769455,1180.95838 C802.058545,1180.95838 802.293818,1181.19284 802.293818,1181.48092 C802.293818,1181.769 802.058545,1182.00346 801.769455,1182.00346 L800.409091,1182.00346 L800.409091,1180.95838 L800.409091,1180.95838 Z" id="Shape"></path>
            <path d="M807.844364,1180.05246 C807.820727,1180.05246 807.800364,1180.06224 807.777455,1180.06587 C807.754909,1180.06224 807.734545,1180.05246 807.710545,1180.05246 C807.459636,1180.05246 807.256,1180.25539 807.256,1180.50542 L807.256,1184.15086 C807.256,1184.40089 807.459636,1184.60382 807.710545,1184.60382 C807.961455,1184.60382 808.165091,1184.40089 808.165091,1184.15086 L808.165091,1182.90938 L809.525818,1182.90938 C810.316364,1182.90938 810.959273,1182.26835 810.959273,1181.48092 C810.959273,1180.69313 810.316,1180.05246 809.525818,1180.05246 L807.844364,1180.05246 L807.844364,1180.05246 Z M810.050909,1181.48092 C810.050909,1181.769 809.815636,1182.00346 809.526545,1182.00346 L808.165818,1182.00346 L808.165818,1180.95838 L809.526545,1180.95838 C809.815273,1180.95838 810.050909,1181.19284 810.050909,1181.48092 L810.050909,1181.48092 Z" id="Shape"></path>
            <path d="M646.989001,1144.45991 C646.933646,1144.20782 646.685294,1144.04886 646.431706,1144.10421 L644.267232,1144.58221 L644.266484,1144.58221 C642.834348,1144.90013 640.528493,1143.64341 638.530459,1141.45912 C636.551127,1139.29539 635.508723,1136.91436 635.919027,1135.50952 L636.205155,1134.60925 C636.283326,1134.36314 636.147182,1134.1002 635.901448,1134.02203 C635.654967,1133.94386 635.392402,1134.08038 635.314231,1134.32574 L635.04456,1135.17365 C635.043064,1135.17814 635.039324,1135.18113 635.037828,1135.18562 C634.594984,1136.58522 632.354957,1137.95414 629.463755,1138.5926 C626.572928,1139.23068 623.96561,1138.93184 622.97557,1137.84942 C622.964349,1137.83707 622.94864,1137.83184 622.936297,1137.82062 L620.457269,1135.1168 C620.283348,1134.92642 619.987496,1134.91408 619.796744,1135.088 C619.606366,1135.26267 619.593649,1135.55815 619.768318,1135.74853 L622.360301,1138.5754 C623.316305,1139.75993 623.311817,1142.51573 622.332249,1145.36355 C622.248094,1145.60779 622.37788,1145.87372 622.622117,1145.95787 C622.864859,1146.0424 623.132285,1145.91187 623.216067,1145.668 C623.770369,1144.05634 624.156362,1142.02688 623.959999,1140.31984 L625.863779,1142.39642 C626.381054,1143.00944 626.397137,1144.51975 625.897067,1146.10075 C625.389143,1147.70718 624.486625,1148.94969 623.702671,1149.12286 C623.702297,1149.12286 623.701923,1149.12323 623.701549,1149.12323 L620.973796,1149.72578 C621.620856,1149.00616 622.221164,1148.05091 622.73208,1146.90153 C622.836807,1146.66552 622.730584,1146.38912 622.494575,1146.28439 C622.257444,1146.17855 621.982163,1146.28589 621.877436,1146.52153 C620.950232,1148.60708 619.710344,1150.00406 618.56097,1150.25802 C618.56097,1150.25802 618.560596,1150.25802 618.560596,1150.25839 L615.366809,1150.96418 C615.114717,1151.01991 614.955383,1151.26938 615.011113,1151.52147 C615.059362,1151.73953 615.252732,1151.88801 615.467421,1151.88801 C615.50071,1151.88801 615.534746,1151.88427 615.568782,1151.87717 L618.763691,1151.17176 C620.270631,1150.83776 622.746667,1152.25568 624.783973,1154.61539 C624.876357,1154.72274 625.006891,1154.77772 625.138173,1154.77772 C625.246266,1154.77772 625.354733,1154.74032 625.443003,1154.66402 C625.638243,1154.49533 625.66031,1154.20023 625.491626,1154.00461 C624.362449,1152.69665 622.780329,1151.32473 621.186241,1150.63653 L623.906514,1150.03585 C624.688597,1149.86343 626.030968,1150.61147 627.166503,1151.85323 C628.214891,1152.99886 628.819313,1154.27428 628.719449,1155.06796 L627.827403,1157.87463 C627.522199,1156.96127 626.992956,1155.9731 626.25613,1154.96548 C626.103154,1154.75715 625.811042,1154.71114 625.602711,1154.86412 C625.39438,1155.01635 625.349123,1155.30883 625.50135,1155.51754 C626.721415,1157.18531 627.324715,1158.79174 627.176602,1159.92017 L626.028349,1163.53286 C625.950179,1163.77897 626.086323,1164.04191 626.332057,1164.12008 C626.379183,1164.13504 626.427058,1164.14215 626.473811,1164.14215 C626.672044,1164.14215 626.856063,1164.01498 626.919273,1163.81637 L627.902581,1160.72282 C627.940358,1160.67794 627.972524,1160.62745 627.990851,1160.56798 L627.991225,1160.56798 C627.991225,1160.56723 627.991225,1160.56686 627.991599,1160.56648 C628.604997,1158.63241 633.106744,1156.50197 637.303288,1156.86477 C637.556502,1156.88534 637.787275,1156.69683 637.809342,1156.43913 C637.831783,1156.1818 637.641405,1155.95552 637.383703,1155.93308 C634.507836,1155.68061 630.815476,1156.61941 628.689901,1158.24754 L629.502654,1155.69071 C629.53482,1155.64882 629.56175,1155.60169 629.578581,1155.54783 L629.578955,1155.54783 C629.770829,1154.94079 630.646792,1154.30458 631.866108,1153.88717 C632.109972,1153.80339 632.240506,1153.53746 632.156725,1153.29322 C632.072943,1153.04936 631.808509,1152.91882 631.562775,1153.0026 C631.02493,1153.18662 630.555156,1153.40992 630.148966,1153.65752 L630.702895,1151.91457 C630.730947,1151.8753 630.754137,1151.83116 630.769471,1151.78254 C630.893647,1151.38907 631.967095,1150.88975 632.996407,1150.88975 C633.468799,1150.88975 633.738844,1151.0012 633.834594,1151.10556 C633.846189,1151.11827 633.862272,1151.12314 633.874615,1151.13436 L635.163874,1152.54031 C634.628646,1152.48309 634.031331,1152.48907 633.37866,1152.57584 C633.122453,1152.61025 632.942922,1152.84514 632.976958,1153.10097 C633.011368,1153.35718 633.251492,1153.53334 633.502087,1153.50267 C634.889715,1153.31641 636.038715,1153.51539 636.499886,1154.0192 C636.516717,1154.0379 636.539158,1154.04576 636.558233,1154.06072 L639.86909,1157.67117 C639.928185,1157.75083 639.986533,1157.83162 640.053109,1157.90418 C640.077047,1157.93074 640.108465,1157.9442 640.137264,1157.96403 L641.840567,1159.8218 C641.932951,1159.92241 642.058997,1159.97328 642.185417,1159.97328 C642.298372,1159.97328 642.411327,1159.93289 642.501467,1159.8506 C642.691845,1159.67593 642.704562,1159.38008 642.530267,1159.1897 L640.760014,1157.25862 C640.75964,1157.25824 640.759265,1157.25824 640.758891,1157.25787 L640.572254,1157.0544 C639.68507,1155.77487 639.74828,1153.03477 640.759265,1150.21239 C640.846039,1149.96927 640.719993,1149.70147 640.476878,1149.61433 C640.233014,1149.52755 639.965962,1149.6536 639.878814,1149.89671 C639.247462,1151.65836 638.88279,1153.7226 639.07616,1155.42254 L637.087477,1153.2532 C636.647625,1152.58519 636.658846,1151.14969 637.132359,1149.65248 C637.640283,1148.0453 638.542802,1146.80204 639.327503,1146.62924 L639.327878,1146.62924 L642.053013,1146.02744 C641.520029,1146.62139 641.017716,1147.37729 640.566643,1148.28056 C640.45107,1148.5117 640.54495,1148.79222 640.776097,1148.9078 C640.843421,1148.94146 640.914485,1148.95717 640.984802,1148.95717 C641.156478,1148.95717 641.321423,1148.86254 641.403334,1148.69872 C642.304357,1146.8948 643.420817,1145.7271 644.466587,1145.49483 L644.467335,1145.49483 L644.468831,1145.49483 L644.468831,1145.49483 L646.632931,1145.01683 C646.885397,1144.96147 647.044357,1144.712 646.989001,1144.45991 L646.989001,1144.45991 Z M637.840386,1142.09047 C638.946374,1143.29894 640.391226,1144.4917 641.842064,1145.11781 L639.125157,1145.71775 C638.339333,1145.89167 636.998459,1145.14287 635.861802,1143.90037 C634.724396,1142.65711 634.099029,1141.25378 634.341022,1140.48778 C634.34364,1140.47955 634.34177,1140.47132 634.34364,1140.46309 L635.179583,1137.83408 C635.674042,1139.33504 636.734398,1140.88125 637.840386,1142.09047 L637.840386,1142.09047 Z M630.331116,1149.9992 C630.285111,1149.92925 630.240228,1149.8638 630.198712,1149.80657 C629.948864,1149.46584 629.622715,1149.12884 629.267393,1148.85207 L630.803882,1148.51283 L630.331116,1149.9992 L630.331116,1149.9992 Z M629.552399,1146.42016 L630.628839,1147.59422 L629.073275,1147.93758 C629.228121,1147.63312 629.326489,1147.35261 629.374364,1147.20113 C629.422239,1147.04852 629.503776,1146.76053 629.552399,1146.42016 L629.552399,1146.42016 Z M630.243968,1145.79143 C630.71262,1145.76562 631.269167,1145.65566 631.775221,1145.45631 L631.301707,1146.94529 L630.243968,1145.79143 L630.243968,1145.79143 Z M632.673625,1145.717 C632.727485,1145.80116 632.780596,1145.88007 632.829219,1145.94628 C633.079441,1146.28776 633.405963,1146.62476 633.76166,1146.90228 L632.186273,1147.25012 L632.673625,1145.717 L632.673625,1145.717 Z M635.27047,1146.56903 L635.27047,1146.56903 C635.248403,1146.57389 635.224466,1146.57613 635.198284,1146.57613 C634.77863,1146.57613 634.069481,1146.05661 633.584372,1145.39347 C633.201372,1144.87059 633.091035,1144.44382 633.151253,1144.2527 C633.159108,1144.22876 633.159108,1144.20482 633.162474,1144.18089 L633.72912,1142.39792 C634.073595,1143.16653 634.613311,1143.91982 635.172476,1144.53135 C635.729023,1145.13988 636.427699,1145.74094 637.159289,1146.15199 L635.27047,1146.56903 L635.27047,1146.56903 Z M629.66498,1139.50597 C631.267297,1139.15214 633.021841,1138.49311 634.289781,1137.5472 L632.222179,1144.04998 C631.992902,1144.42812 630.993138,1144.86385 630.032271,1144.86385 C629.564368,1144.86385 629.295819,1144.75426 629.198573,1144.65066 L627.88201,1143.21516 C629.017919,1143.3341 630.353183,1143.13773 631.502184,1142.73865 C631.746047,1142.65375 631.875085,1142.38782 631.790556,1142.14358 C631.705652,1141.89972 631.439722,1141.76956 631.195484,1141.85521 C629.289834,1142.51686 627.197173,1142.463 626.529541,1141.73477 C626.529167,1141.73477 626.528793,1141.7344 626.528419,1141.73402 C626.524679,1141.72991 626.519442,1141.72841 626.515702,1141.72467 L624.635112,1139.67353 C626.185813,1140.00117 628.059671,1139.86017 629.66498,1139.50597 L629.66498,1139.50597 Z M626.787991,1146.38314 C627.036343,1145.59694 627.207646,1144.69143 627.198295,1143.85249 L628.499897,1145.27229 C628.501393,1145.27416 628.502141,1145.27715 628.504011,1145.27902 C628.683168,1145.47463 628.736654,1146.11608 628.482692,1146.91874 C628.22873,1147.72102 627.81693,1148.21473 627.557732,1148.27196 C627.557358,1148.27196 627.557358,1148.27233 627.556984,1148.27233 L625.668165,1148.68937 C626.15851,1148.00864 626.539266,1147.16971 626.787991,1146.38314 L626.787991,1146.38314 Z M627.856576,1151.22263 C627.300403,1150.61409 626.602101,1150.01378 625.870886,1149.60236 L627.760826,1149.18532 C627.781772,1149.18046 627.805709,1149.17784 627.831517,1149.17784 C628.250049,1149.17784 628.958824,1149.69698 629.444306,1150.35938 C629.7626,1150.79362 629.89089,1151.15979 629.891638,1151.38159 L629.278988,1153.30818 C628.933764,1152.55639 628.404147,1151.82106 627.856576,1151.22263 L627.856576,1151.22263 Z M633.439251,1149.98274 C633.300489,1149.96441 633.152375,1149.95543 632.996781,1149.95543 C632.480255,1149.95543 631.806265,1150.07213 631.212315,1150.31338 L631.858628,1148.27981 L633.955778,1147.81677 C633.800932,1148.12197 633.70219,1148.40324 633.653941,1148.55546 C633.577266,1148.79821 633.416436,1149.38804 633.439251,1149.98274 L633.439251,1149.98274 Z M636.241061,1149.37196 C635.99458,1150.15217 635.823651,1151.04983 635.83001,1151.88315 L634.530652,1150.46635 C634.522423,1150.45775 634.511203,1150.45401 634.5026,1150.44578 C634.501104,1150.44428 634.499982,1150.44279 634.498486,1150.44129 C634.341022,1150.21351 634.30549,1149.59749 634.545987,1148.83673 C634.799949,1148.03408 635.211749,1147.53962 635.471321,1147.48202 L637.360888,1147.06461 C636.870543,1147.7457 636.489787,1148.58539 636.241061,1149.37196 L636.241061,1149.37196 Z" id="Shape"></path>
            <path d="M934.566418,913.89138 C934.224264,912.652737 933.292044,911.656063 932.051429,911.247981 C931.820396,911.171773 931.572132,911.297499 931.496176,911.527528 C931.42022,911.757907 931.545758,912.005847 931.776088,912.082055 C932.655912,912.371435 933.339516,913.041503 933.650725,913.888922 L930.363516,913.888922 C929.670769,913.540191 929.369407,912.861694 929.243165,912.400934 C929.516747,912.227798 929.81811,912.093293 930.14444,912.014978 C930.151121,912.013573 930.156044,912.008305 930.162374,912.006549 C930.201407,911.995311 930.236571,911.977401 930.270681,911.956329 C930.282989,911.948954 930.297055,911.944389 930.308308,911.935609 C930.350154,911.903651 930.387077,911.864669 930.41556,911.819014 C930.41978,911.811991 930.420835,911.803562 930.424703,911.796538 C930.444396,911.760015 930.462681,911.722789 930.471824,911.679944 C930.931429,909.538042 932.856703,907.983329 935.049582,907.983329 C935.29222,907.983329 935.489143,907.786663 935.489143,907.544343 C935.489143,907.302022 935.29222,907.105357 935.049582,907.105357 C932.536352,907.105357 930.32378,908.826885 929.680967,911.23288 C928.425582,911.626563 927.460659,912.62991 927.113231,913.89138 C926.258022,913.898755 925.407385,913.996034 924.578198,914.179004 C923.771165,913.633256 922.798505,913.314026 921.752352,913.314026 C918.96589,913.314026 916.699165,915.577789 916.699165,918.36061 C916.699165,918.801352 916.761758,919.226642 916.868659,919.634373 C915.665319,921.5624 915.025319,923.779807 915.025319,926.064642 C915.025319,926.306962 915.222242,926.503628 915.464879,926.503628 C915.707516,926.503628 915.90444,926.306962 915.90444,926.064642 C915.90444,924.171733 916.375297,922.327992 917.270242,920.681618 C917.49389,921.110771 917.77767,921.5034 918.11033,921.849672 L915.939956,927.79811 C915.881934,927.956496 915.920264,928.134198 916.038418,928.255007 C916.15622,928.375816 916.333451,928.417959 916.493451,928.364578 L918.438769,927.709611 L919.570022,929.489436 C919.650901,929.617269 919.79156,929.693126 919.941011,929.693126 C919.956835,929.693126 919.972659,929.692423 919.988484,929.690667 C920.155165,929.672757 920.296527,929.561781 920.354198,929.4048 L921.036396,927.535772 L921.619077,930.272939 C921.654242,930.437997 921.780835,930.568288 921.945055,930.608324 C921.979516,930.616401 922.01433,930.620616 922.048791,930.620616 C922.178901,930.620616 922.304088,930.563021 922.388835,930.459771 L923.883341,928.638857 L926.069187,929.683292 C926.220396,929.755286 926.399385,929.735971 926.530901,929.632019 C926.662418,929.528769 926.723604,929.359496 926.688791,929.195842 L925.171077,922.066356 C926.173275,921.143783 926.805538,919.826473 926.805538,918.360962 C926.805538,917.622762 926.642374,916.923194 926.35578,916.290703 C927.291868,915.652241 928.308835,915.207636 929.368352,914.971286 C927.835165,916.997646 927.02356,921.554322 927.02356,925.90766 C927.02356,926.30029 927.029538,926.688353 927.041846,927.070798 C927.049582,927.308202 927.244747,927.495737 927.481055,927.495737 L927.495473,927.495737 C927.73811,927.48801 927.928352,927.285023 927.920615,927.042703 C927.908659,926.669389 927.902681,926.290456 927.902681,925.90766 C927.902681,919.342183 929.624,914.766894 931.169143,914.766894 L931.169143,914.766894 C932.076044,914.766894 933.034637,916.356726 933.670769,918.915489 C933.729495,919.150434 933.966857,919.293368 934.203516,919.235773 C934.439121,919.177125 934.582593,918.939019 934.52422,918.703722 C934.109978,917.038033 933.574418,915.778318 932.952703,914.964262 C937.371516,915.941621 940.724132,920.47547 940.724132,925.90766 C940.724132,926.765966 940.640088,927.620409 940.474813,928.447459 C940.426989,928.685213 940.581714,928.916296 940.819429,928.964057 C940.848615,928.970028 940.877451,928.972486 940.906286,928.972486 C941.111297,928.972486 941.294857,928.828147 941.336703,928.619541 C941.513582,927.736301 941.603253,926.823912 941.603253,925.90766 C941.603253,920.891278 938.920527,916.58535 935.12167,914.786912 C941.05644,915.126512 945.781187,920.054746 945.781187,926.065344 C945.781187,930.824305 942.818198,934.903013 938.638505,936.564839 C937.825495,936.55325 936.940747,936.427876 936.360176,936.327787 C938.256615,935.074745 939.806681,933.146015 940.72378,930.745639 C940.810286,930.519122 940.696703,930.265212 940.46989,930.17882 C940.242725,930.092779 939.989187,930.205862 939.90233,930.432378 C938.616352,933.798173 936.001846,936.159216 932.971692,936.840523 C934.503473,934.812758 935.314374,930.25854 935.314374,925.90766 C935.314374,924.245483 935.205011,922.638091 934.989802,921.13114 C934.955341,920.891278 934.734505,920.724112 934.492571,920.758528 C934.252396,920.792594 934.085363,921.014896 934.119473,921.255109 C934.328703,922.721323 934.434901,924.286572 934.434901,925.90766 C934.434901,932.444691 932.728352,937.007337 931.188484,937.046319 C931.172308,937.046319 931.156484,937.044915 931.139956,937.044563 C930.173275,937.006284 928.859165,934.991513 928.225143,930.611485 C928.19033,930.371271 927.965978,930.204457 927.727209,930.239576 C927.486681,930.274343 927.320352,930.496997 927.354813,930.736859 C927.762022,933.549531 928.471297,935.653855 929.369758,936.837011 C926.764396,936.241043 924.486418,934.407135 923.065758,931.682611 C922.953582,931.467332 922.688088,931.3841 922.472879,931.495778 C922.25767,931.607808 922.173626,931.872955 922.285802,932.087883 C923.626286,934.658937 925.680615,936.49706 928.067956,937.363794 L927.216615,937.363794 C922.229187,937.363794 917.765363,934.029606 916.360527,929.256247 C916.293011,929.023408 916.047912,928.889605 915.815824,928.95879 C915.583033,929.02692 915.449407,929.270997 915.517978,929.503835 C917.031473,934.648753 921.842374,938.241766 927.217319,938.241766 L934.467253,938.241766 C941.190418,938.241766 946.659956,932.779374 946.659956,926.065344 C946.659956,919.384326 941.243868,913.944761 934.566418,913.89138 L934.566418,913.89138 Z M919.833758,928.266245 L918.996132,926.948584 C918.887824,926.777906 918.676484,926.703103 918.484484,926.767722 L917.078593,927.240773 L918.639209,922.964346 C919.157187,923.549778 920.121758,924.76138 920.612659,926.131719 L919.833758,928.266245 L919.833758,928.266245 Z M925.643341,928.506458 L923.95156,927.698021 C923.768352,927.610224 923.549978,927.659391 923.421978,927.81567 L922.288615,929.196545 L921.044132,923.351707 C921.27622,923.384368 921.511473,923.407195 921.752352,923.407195 C922.722549,923.407195 923.626637,923.128 924.397099,922.65249 L925.643341,928.506458 L925.643341,928.506458 Z M921.752352,922.529574 C919.450813,922.529574 917.578286,920.659493 917.578286,918.360962 C917.578286,916.06243 919.450813,914.192349 921.752352,914.192349 C924.05389,914.192349 925.926418,916.06243 925.926418,918.360962 C925.926418,920.659844 924.05389,922.529574 921.752352,922.529574 L921.752352,922.529574 Z M925.430242,914.911233 C926.019604,914.817817 926.617407,914.766543 927.21767,914.766543 L927.263033,914.766543 C926.803429,914.980066 926.357187,915.232219 925.926066,915.521248 C925.77767,915.304213 925.609934,915.101928 925.430242,914.911233 L925.430242,914.911233 Z" id="Shape"></path>
            <path d="M921.752352,915.909663 C920.398857,915.909663 919.297846,917.009235 919.297846,918.360962 C919.297846,919.712688 920.398857,920.81226 921.752352,920.81226 C923.105846,920.81226 924.206857,919.712688 924.206857,918.360962 C924.206857,917.009235 923.105846,915.909663 921.752352,915.909663 L921.752352,915.909663 Z M921.752352,919.934288 C920.88378,919.934288 920.176967,919.228398 920.176967,918.360962 C920.176967,917.493525 920.88378,916.787635 921.752352,916.787635 C922.620923,916.787635 923.327736,917.493525 923.327736,918.360962 C923.327736,919.228398 922.620923,919.934288 921.752352,919.934288 L921.752352,919.934288 Z" id="Shape"></path>
        </g>
    </g>
</svg>